{
.appVersion = "3506";
DisplayStrings = (
"ACGOQS\012aæbðefg/gcircumflex hj/jdotless mn/nhookleft o/oe pþqß/longs uxyz/f.ss01/f_f/f_f_i/f_f_l/f_iacute/fi/fl \012ªº/nmod/Omega/mu/pi/three.lf/five.lf/six.lf/seven.lf/eight.lf/nine.lf/sixsuperior ¼¾!¡?¿*\"'/colonsign/dong/guarani/lira £/won ~/infinity/emptyset \012/summation %/perthousand @&§©/published/trademark/dagger/daggerdbl/numero/doubleprimemod/primemod ´`/acute.case/grave.case/acute.loclPLK.case/acute.loclPLK/IJacute/ijacute/breveacute/breveacute.case/brevehook/circumflexacute/circumflexacute.case/circumflexgrave/circumflexgrave.case/circumflexhook.case/dblgrave/dblgrave.case/dieresisacute/dieresisacute.case/dieresisgrave/dieresisgrave.case/dieresismacron/dieresismacron.case/dotaccentmacron/dotaccentmacron.case/hook.case/ringacute/ringacute.case"
);
classes = (
{
automatic = 1;

glyphs = (
{
glyphname = A;
layers = (
{
anchors = (
{
name = bottom;
position = "{219, 0}";
},
{
name = ogonek;
position = "{447, 0}";
},
{
name = top;
position = "{337, 597}";
}
);
layerId = "9A6463FA-02C3-4660-BEDA-F7CC218AE705";
paths = (
{
closed = 1;
nodes = (
"119 0 LINE",
"123 29 LINE",
"72 26 LINE SMOOTH",
"62.667 26 OFFCURVE",
"58 31 OFFCURVE",
"58 41 CURVE SMOOTH",
"58 52.333 OFFCURVE",
"65 70.667 OFFCURVE",
"79 96 CURVE SMOOTH",
"139 208 LINE",
"361 208 LINE",
"392 90 LINE SMOOTH",
"394.667 81.333 OFFCURVE",
"396 70.667 OFFCURVE",
"396 58 CURVE SMOOTH",
"396 36.667 OFFCURVE",
"387 26.333 OFFCURVE",
"369 27 CURVE SMOOTH",
"316 29 LINE",
"312 0 LINE",
"571 0 LINE",
"575 29 LINE",
"541 27 LINE",
"536 27 LINE SMOOTH",
"523.333 27 OFFCURVE",
"513.667 32.667 OFFCURVE",
"507 44 CURVE SMOOTH",
"500.333 55.333 OFFCURVE",
"493.333 74.667 OFFCURVE",
"486 102 CURVE SMOOTH",
"355 607 LINE",
"326 607 LINE",
"53 104 LINE SMOOTH",
"39 78 OFFCURVE",
"26.833 58.667 OFFCURVE",
"16.5 46 CURVE SMOOTH",
"6.167 33.333 OFFCURVE",
"-4.667 27 OFFCURVE",
"-16 27 CURVE SMOOTH",
"-47 29 LINE",
"-51 0 LINE"
);
},
{
closed = 1;
nodes = (
"288 484 LINE",
"353 236 LINE",
"154 236 LINE"
);
}
);
userData = {
assembly = "NPUSHB[ ]	/* 53 values pushed */
33 1 8 6 1 74 0 8 0 2 1 8 2 101 0 6 6 17 75 9 7 5 3 4 1 1 0 93 4 1 0 0 21 0 76 0 0 32 31 0 30 0 28 19 33 17 36 20 33 17 10 7 27 
CALL[ ]	/* CallFunction */";
};
width = 580;
},
{
anchors = (
{
name = bottom;
position = "{231, 0}";
},
{
name = ogonek;
position = "{459, 0}";
},
{
name = top;
position = "{345, 597}";
}
);
layerId = "EC024578-EFD3-4C50-A1DE-0E38CDD8AD0F";
paths = (
{
closed = 1;
nodes = (
"133 0 LINE",
"137 37 LINE",
"91 34 LINE SMOOTH",
"79 33.333 OFFCURVE",
"73 38.333 OFFCURVE",
"73 49 CURVE SMOOTH",
"73 61.667 OFFCURVE",
"79.667 80 OFFCURVE",
"93 104 CURVE SMOOTH",
"137 186 LINE",
"355 186 LINE",
"380 98 LINE SMOOTH",
"384 82 OFFCURVE",
"386 70.333 OFFCURVE",
"386 63 CURVE SMOOTH",
"384.667 42.333 OFFCURVE",
"374 33 OFFCURVE",
"354 35 CURVE SMOOTH",
"307 37 LINE",
"302 0 LINE",
"601 0 LINE",
"606 37 LINE",
"580 35 LINE",
"575 35 LINE SMOOTH",
"563 35 OFFCURVE",
"554 39 OFFCURVE",
"546 49 CURVE SMOOTH",
"536 60 OFFCURVE",
"529 80 OFFCURVE",
"521 110 CURVE SMOOTH",
"379 607 LINE",
"330 607 LINE",
"62 112 LINE SMOOTH",
"48 85 OFFCURVE",
"35 64 OFFCURVE",
"22 51 CURVE SMOOTH",
"12 41 OFFCURVE",
"2 35 OFFCURVE",
"-9 35 CURVE SMOOTH",
"-43 37 LINE",
"-47 0 LINE"
);
},
{
closed = 1;
nodes = (
"280 451 LINE",
"345 221 LINE",
"156 221 LINE"
);
}
);
userData = {
assembly = "NPUSHB[ ]	/* 53 values pushed */
33 1 8 6 1 74 0 8 0 2 1 8 2 102 0 6 6 17 75 9 7 5 3 4 1 1 0 93 4 1 0 0 21 0 76 0 0 32 31 0 30 0 28 19 33 17 36 21 17 17 10 7 27 
CALL[ ]	/* CallFunction */";
};
width = 608;
},
{
anchors = (
{
name = bottom;
position = "{214, 0}";
},
{
name = ogonek;
position = "{442, 0}";
},
{
name = top;
position = "{333, 597}";
}
);
layerId = "6E1F4822-938D-406D-B3C9-5D869F42D31A";
paths = (
{
closed = 1;
nodes = (
"113 0 LINE",
"117 25 LINE",
"64 22 LINE",
"55.333 22.667 OFFCURVE",
"51 27.667 OFFCURVE",
"51 37 CURVE SMOOTH",
"51 48.333 OFFCURVE",
"58.333 66.667 OFFCURVE",
"73 92 CURVE SMOOTH",
"140 218 LINE",
"364 218 LINE",
"397 86 LINE",
"399 80.667 OFFCURVE",
"400 70.667 OFFCURVE",
"400 56 CURVE SMOOTH",
"400.667 34 OFFCURVE",
"392.667 23 OFFCURVE",
"376 23 CURVE SMOOTH",
"320 25 LINE",
"316 0 LINE",
"558 0 LINE",
"561 25 LINE",
"524 23 LINE",
"519 23 LINE SMOOTH",
"507 23 OFFCURVE",
"497.667 28.667 OFFCURVE",
"491 40 CURVE SMOOTH",
"484.333 51.333 OFFCURVE",
"477.333 70.667 OFFCURVE",
"470 98 CURVE SMOOTH",
"344 607 LINE",
"324 607 LINE",
"49 100 LINE SMOOTH",
"34.333 72.667 OFFCURVE",
"22 53 OFFCURVE",
"12 41 CURVE SMOOTH",
"2 29 OFFCURVE",
"-8.333 23 OFFCURVE",
"-19 23 CURVE SMOOTH",
"-49 25 LINE",
"-53 0 LINE"
);
},
{
closed = 1;
nodes = (
"292 499 LINE",
"357 243 LINE",
"153 243 LINE"
);
}
);
userData = {
assembly = "NPUSHB[ ]	/* 53 values pushed */
33 1 8 6 1 74 0 8 0 2 1 8 2 101 0 6 6 17 75 9 7 5 3 4 1 1 0 93 4 1 0 0 21 0 76 0 0 32 31 0 30 0 28 19 33 17 36 20 33 17 10 7 27 
CALL[ ]	/* CallFunction */";
};
width = 568;
}
);
leftKerningGroup = A;
note = A;
rightKerningGroup = A;
unicode = 0041;
},
{
glyphname = AE;
layers = (
{
anchors = (
{
name = top;
position = "{457, 597}";
}
);
layerId = "9A6463FA-02C3-4660-BEDA-F7CC218AE705";
paths = (
{
closed = 1;
nodes = (
"770 171 LINE",
"741 171 LINE",
"728.333 75 OFFCURVE",
"677 27 OFFCURVE",
"587 27 CURVE SMOOTH",
"523 27 LINE SMOOTH",
"513.667 27 OFFCURVE",
"508 33.333 OFFCURVE",
"506 46 CURVE",
"496 297 LINE",
"571 297 LINE SMOOTH",
"605.667 297 OFFCURVE",
"629 265.667 OFFCURVE",
"629 219 CURVE SMOOTH",
"629 213.667 OFFCURVE",
"628.333 205.667 OFFCURVE",
"627 195 CURVE",
"656 195 LINE",
"689 426 LINE",
"660 426 LINE",
"650.667 366 OFFCURVE",
"615 324 OFFCURVE",
"575 324 CURVE SMOOTH",
"496 324 LINE",
"487 569 LINE",
"643 569 LINE SMOOTH",
"724.333 569 OFFCURVE",
"763 539.333 OFFCURVE",
"763 474 CURVE SMOOTH",
"763 460.667 OFFCURVE",
"762.333 450.333 OFFCURVE",
"761 443 CURVE",
"789 443 LINE",
"811 599 LINE",
"800.333 597.667 OFFCURVE",
"789 597 OFFCURVE",
"777 597 CURVE SMOOTH",
"327 597 LINE",
"322 565 LINE",
"373 567 LINE SMOOTH",
"379.667 567 OFFCURVE",
"386 558.667 OFFCURVE",
"386 552 CURVE SMOOTH",
"386 549.333 OFFCURVE",
"385 546.333 OFFCURVE",
"383 543 CURVE SMOOTH",
"49 86 LINE SMOOTH",
"34.333 66 OFFCURVE",
"22.167 51.167 OFFCURVE",
"12.5 41.5 CURVE SMOOTH",
"2.833 31.833 OFFCURVE",
"-5.333 27 OFFCURVE",
"-12 27 CURVE SMOOTH",
"-47 30 LINE",
"-51 0 LINE",
"121 0 LINE",
"125 30 LINE",
"71 27 LINE SMOOTH",
"63.667 27 OFFCURVE",
"60 31 OFFCURVE",
"60 39 CURVE SMOOTH",
"60 50.333 OFFCURVE",
"65.667 64 OFFCURVE",
"77 80 CURVE SMOOTH",
"168 208 LINE",
"403 208 LINE",
"409 47 LINE",
"406.333 36.333 OFFCURVE",
"398.667 27 OFFCURVE",
"388 27 CURVE SMOOTH",
"330 30 LINE",
"326 0 LINE",
"660 0 LINE SMOOTH",
"693.333 0 OFFCURVE",
"722 -1 OFFCURVE",
"746 -3 CURVE"
);
},
{
closed = 1;
nodes = (
"390 511 LINE",
"401 236 LINE",
"188 236 LINE"
);
}
);
userData = {
assembly = "NPUSHB[ ]	/* 16 values pushed */
65 1 0 1 49 38 22 3 6 7 2 74 64 1 15 72 
MPPEM[ ]	/* MeasurePixelPerEm */
PUSHB[ ]	/* 1 value pushed */
10 
LT[ ]	/* LessThan */
IF[ ]	/* If */
NPUSHB[ ]	/* 69 values pushed */
0 0 1 3 1 0 112 0 4 10 7 10 4 7 126 0 7 6 10 7 6 124 0 2 0 5 16 2 5 101 0 16 0 10 4 16 10 101 14 1 1 1 15 93 0 15 15 17 75 0 3 3 20 75 13 11 9 3 6 6 8 93 12 1 8 8 21 8 76 
ELSE[ ]	/* Else */
NPUSHB[ ]	/* 70 values pushed */
0 0 1 3 1 0 3 126 0 4 10 7 10 4 7 126 0 7 6 10 7 6 124 0 2 0 5 16 2 5 101 0 16 0 10 4 16 10 101 14 1 1 1 15 93 0 15 15 17 75 0 3 3 20 75 13 11 9 3 6 6 8 93 12 1 8 8 21 8 76 
EIF[ ]	/* EndIf */
NPUSHB[ ]	/* 28 values pushed */
67 66 63 61 60 58 51 50 48 47 46 44 40 39 36 33 34 17 50 36 17 18 33 36 16 17 7 29 
CALL[ ]	/* CallFunction */";
};
width = 818;
},
{
anchors = (
{
name = top;
position = "{467, 597}";
}
);
layerId = "EC024578-EFD3-4C50-A1DE-0E38CDD8AD0F";
paths = (
{
closed = 1;
nodes = (
"796 171 LINE",
"761 171 LINE",
"749.667 79.667 OFFCURVE",
"697 34 OFFCURVE",
"603 34 CURVE SMOOTH",
"560 34 LINE SMOOTH",
"549.333 34 OFFCURVE",
"543.333 40.333 OFFCURVE",
"542 53 CURVE SMOOTH",
"529 289 LINE",
"585 289 LINE SMOOTH",
"622.333 289 OFFCURVE",
"647 255.667 OFFCURVE",
"647 209 CURVE SMOOTH",
"647 201 OFFCURVE",
"646.667 195 OFFCURVE",
"646 191 CURVE",
"680 191 LINE",
"713 426 LINE",
"677 426 LINE",
"667.667 366 OFFCURVE",
"631.667 324 OFFCURVE",
"589 324 CURVE SMOOTH",
"529 324 LINE",
"519 562 LINE",
"657 562 LINE SMOOTH",
"742.333 562 OFFCURVE",
"783 533 OFFCURVE",
"783 469 CURVE SMOOTH",
"783 463.667 OFFCURVE",
"782.333 455 OFFCURVE",
"781 443 CURVE",
"815 443 LINE",
"837 599 LINE",
"825 597.667 OFFCURVE",
"811 597 OFFCURVE",
"795 597 CURVE SMOOTH",
"329 597 LINE",
"324 558 LINE",
"375 560 LINE SMOOTH",
"381.667 560 OFFCURVE",
"390 553 OFFCURVE",
"390 545 CURVE SMOOTH",
"390 543 OFFCURVE",
"388.667 540 OFFCURVE",
"386 536 CURVE SMOOTH",
"57 94 LINE SMOOTH",
"40.333 71.333 OFFCURVE",
"27 55.5 OFFCURVE",
"17 46.5 CURVE SMOOTH",
"7 37.5 OFFCURVE",
"-2.333 33.667 OFFCURVE",
"-11 35 CURVE SMOOTH",
"-42 38 LINE",
"-47 0 LINE",
"138 0 LINE",
"143 38 LINE",
"91 35 LINE SMOOTH",
"80.333 34.333 OFFCURVE",
"75 38 OFFCURVE",
"75 46 CURVE SMOOTH",
"75 57.333 OFFCURVE",
"81.333 71.333 OFFCURVE",
"94 88 CURVE SMOOTH",
"165 186 LINE",
"392 186 LINE",
"398 58 LINE SMOOTH",
"398 46 OFFCURVE",
"387.667 33.667 OFFCURVE",
"373 35 CURVE SMOOTH",
"317 38 LINE",
"311 0 LINE",
"677 0 LINE SMOOTH",
"714.333 0 OFFCURVE",
"746 -1 OFFCURVE",
"772 -3 CURVE"
);
},
{
closed = 1;
nodes = (
"379 472 LINE",
"390 221 LINE",
"192 221 LINE"
);
}
);
userData = {
assembly = "NPUSHB[ ]	/* 15 values pushed */
65 1 0 1 49 22 2 6 7 2 74 64 1 14 72 
MPPEM[ ]	/* MeasurePixelPerEm */
PUSHB[ ]	/* 1 value pushed */
10 
LT[ ]	/* LessThan */
IF[ ]	/* If */
NPUSHB[ ]	/* 65 values pushed */
0 0 1 3 1 0 112 0 7 4 6 4 7 6 126 0 2 0 5 15 2 5 103 0 15 4 4 15 85 13 1 1 1 14 93 0 14 14 17 75 10 1 4 4 3 93 0 3 3 20 75 11 9 2 6 6 8 93 12 1 8 8 21 8 76 
ELSE[ ]	/* Else */
MPPEM[ ]	/* MeasurePixelPerEm */
PUSHB[ ]	/* 1 value pushed */
45 
LT[ ]	/* LessThan */
IF[ ]	/* If */
NPUSHB[ ]	/* 66 values pushed */
0 0 1 3 1 0 3 126 0 7 4 6 4 7 6 126 0 2 0 5 15 2 5 103 0 15 4 4 15 85 13 1 1 1 14 93 0 14 14 17 75 10 1 4 4 3 93 0 3 3 20 75 11 9 2 6 6 8 93 12 1 8 8 21 8 76 
ELSE[ ]	/* Else */
NPUSHB[ ]	/* 67 values pushed */
0 0 1 3 1 0 3 126 0 7 10 6 10 7 6 126 0 2 0 5 15 2 5 103 0 15 0 10 7 15 10 101 13 1 1 1 14 93 0 14 14 17 75 0 4 4 3 93 0 3 3 20 75 11 9 2 6 6 8 93 12 1 8 8 21 8 76 
EIF[ ]	/* EndIf */
EIF[ ]	/* EndIf */
NPUSHB[ ]	/* 26 values pushed */
67 66 63 61 60 58 48 47 46 44 40 39 35 34 34 18 50 36 17 18 33 36 16 16 7 29 
CALL[ ]	/* CallFunction */";
};
width = 846;
},
{
anchors = (
{
name = top;
position = "{453, 597}";
}
);
layerId = "6E1F4822-938D-406D-B3C9-5D869F42D31A";
paths = (
{
closed = 1;
nodes = (
"758 171 LINE",
"732 171 LINE",
"718.667 72.333 OFFCURVE",
"668 23.333 OFFCURVE",
"580 24 CURVE SMOOTH",
"507 24 LINE SMOOTH",
"497.667 24 OFFCURVE",
"492 30.333 OFFCURVE",
"490 43 CURVE",
"481 301 LINE",
"565 301 LINE SMOOTH",
"598.333 301 OFFCURVE",
"621 269.667 OFFCURVE",
"621 223 CURVE SMOOTH",
"621 219 OFFCURVE",
"620.333 210.333 OFFCURVE",
"619 197 CURVE",
"645 197 LINE",
"678 426 LINE",
"652 426 LINE",
"642.667 366 OFFCURVE",
"607.667 324 OFFCURVE",
"569 324 CURVE SMOOTH",
"481 324 LINE",
"473 572 LINE",
"637 572 LINE SMOOTH",
"715.667 572 OFFCURVE",
"754 542.667 OFFCURVE",
"754 476 CURVE SMOOTH",
"754 459.333 OFFCURVE",
"753.333 448.333 OFFCURVE",
"752 443 CURVE",
"777 443 LINE",
"799 599 LINE",
"789 597.667 OFFCURVE",
"779 597 OFFCURVE",
"769 597 CURVE SMOOTH",
"326 597 LINE",
"321 568 LINE",
"372 570 LINE SMOOTH",
"378.667 570 OFFCURVE",
"384 561.667 OFFCURVE",
"384 555 CURVE SMOOTH",
"384 552.333 OFFCURVE",
"383.333 549.333 OFFCURVE",
"382 546 CURVE",
"45 82 LINE SMOOTH",
"31.667 64 OFFCURVE",
"20.333 49.833 OFFCURVE",
"11 39.5 CURVE SMOOTH",
"1.667 29.167 OFFCURVE",
"-6 23.667 OFFCURVE",
"-12 23 CURVE",
"-49 26 LINE",
"-53 0 LINE",
"113 0 LINE",
"117 26 LINE",
"62 23 LINE",
"56 23.667 OFFCURVE",
"53 28 OFFCURVE",
"53 36 CURVE SMOOTH",
"53 47.333 OFFCURVE",
"58.333 60.667 OFFCURVE",
"69 76 CURVE SMOOTH",
"169 218 LINE",
"408 218 LINE",
"414 42 LINE",
"410 31.333 OFFCURVE",
"404.333 24.333 OFFCURVE",
"395 23 CURVE",
"336 26 LINE",
"333 0 LINE",
"652 0 LINE SMOOTH",
"684 0 OFFCURVE",
"711.333 -1 OFFCURVE",
"734 -3 CURVE"
);
},
{
closed = 1;
nodes = (
"395 528 LINE",
"406 243 LINE",
"186 243 LINE"
);
}
);
userData = {
assembly = "NPUSHB[ ]	/* 16 values pushed */
65 1 0 1 49 38 22 3 6 7 2 74 64 1 15 72 
MPPEM[ ]	/* MeasurePixelPerEm */
PUSHB[ ]	/* 1 value pushed */
10 
LT[ ]	/* LessThan */
IF[ ]	/* If */
NPUSHB[ ]	/* 69 values pushed */
0 0 1 3 1 0 112 0 4 10 7 10 4 7 126 0 7 6 10 7 6 124 0 2 0 5 16 2 5 101 0 16 0 10 4 16 10 101 14 1 1 1 15 93 0 15 15 17 75 0 3 3 20 75 13 11 9 3 6 6 8 93 12 1 8 8 21 8 76 
ELSE[ ]	/* Else */
NPUSHB[ ]	/* 70 values pushed */
0 0 1 3 1 0 3 126 0 4 10 7 10 4 7 126 0 7 6 10 7 6 124 0 2 0 5 16 2 5 101 0 16 0 10 4 16 10 101 14 1 1 1 15 93 0 15 15 17 75 0 3 3 20 75 13 11 9 3 6 6 8 93 12 1 8 8 21 8 76 
EIF[ ]	/* EndIf */
NPUSHB[ ]	/* 28 values pushed */
67 66 63 61 60 58 51 50 48 47 46 44 40 39 36 33 34 17 50 36 17 18 33 36 16 17 7 29 
CALL[ ]	/* CallFunction */";
};
width = 806;
}
);
leftKerningGroup = AE;
note = AE;
unicode = 00C6;
},
{
glyphname = B;
layers = (
{
layerId = "9A6463FA-02C3-4660-BEDA-F7CC218AE705";
paths = (
{
closed = 1;
nodes = (
"272 0 LINE SMOOTH",
"430.667 0 OFFCURVE",
"511 62.667 OFFCURVE",
"511 180 CURVE SMOOTH",
"511 258.667 OFFCURVE",
"450 317 OFFCURVE",
"366 317 CURVE",
"458 333 OFFCURVE",
"521 393.333 OFFCURVE",
"521 476 CURVE SMOOTH",
"521 556 OFFCURVE",
"468.667 597 OFFCURVE",
"370 597 CURVE SMOOTH",
"102 597 LINE",
"98 567 LINE",
"149 569 LINE SMOOTH",
"156.333 569 OFFCURVE",
"160 563.333 OFFCURVE",
"160 552 CURVE SMOOTH",
"160 549 LINE",
"90 49 LINE SMOOTH",
"88 34.333 OFFCURVE",
"82 27 OFFCURVE",
"72 27 CURVE SMOOTH",
"22 29 LINE",
"18 0 LINE"
);
},
{
closed = 1;
nodes = (
"184.667 28 OFFCURVE",
"181 31 OFFCURVE",
"181 37 CURVE",
"182 41 LINE",
"218 299 LINE",
"316 299 LINE SMOOTH",
"382 299 OFFCURVE",
"415 263 OFFCURVE",
"415 191 CURVE SMOOTH",
"415 89.667 OFFCURVE",
"352 28 OFFCURVE",
"260 28 CURVE SMOOTH",
"192 28 LINE SMOOTH"
);
},
{
closed = 1;
nodes = (
"254 557 LINE",
"256 565 OFFCURVE",
"260 569 OFFCURVE",
"266 569 CURVE SMOOTH",
"322 569 LINE SMOOTH",
"388.667 569 OFFCURVE",
"425 532.333 OFFCURVE",
"425 471 CURVE SMOOTH",
"425 380.333 OFFCURVE",
"380.667 327 OFFCURVE",
"294 327 CURVE SMOOTH",
"222 327 LINE"
);
}
);
userData = {
assembly = "NPUSHB[ ]	/* 76 values pushed */
17 1 6 3 1 74 0 0 6 8 6 0 112 0 6 11 1 8 2 6 8 101 10 5 2 3 3 4 93 9 1 4 4 17 75 7 1 2 2 1 93 0 1 1 21 1 76 35 35 25 24 0 0 35 45 35 44 41 38 29 27 24 34 25 33 0 23 0 22 36 33 36 21 12 7 24 
CALL[ ]	/* CallFunction */";
};
width = 555;
},
{
background = {
paths = (
{
closed = 1;
nodes = (
"92 597 LINE",
"87 560 LINE",
"135 562 LINE",
"141 562 OFFCURVE",
"148 552 OFFCURVE",
"148 545 QCURVE SMOOTH",
"148 542 LINE",
"80 57 LINE SMOOTH",
"77 35 OFFCURVE",
"61 35 QCURVE",
"13 37 LINE",
"8 0 LINE",
"302 0 LINE SMOOTH",
"423 0 OFFCURVE",
"546 92 OFFCURVE",
"546 179 QCURVE SMOOTH",
"546 239 OFFCURVE",
"462 317 OFFCURVE",
"397 317 QCURVE",
"468 329 OFFCURVE",
"555 413 OFFCURVE",
"555 476 QCURVE SMOOTH",
"555 536 OFFCURVE",
"476 597 OFFCURVE",
"401 597 QCURVE SMOOTH"
);
},
{
closed = 1;
nodes = (
"338 562 LINE SMOOTH",
"375 562 OFFCURVE",
"415 519 OFFCURVE",
"415 475 QCURVE SMOOTH",
"415 403 OFFCURVE",
"363 329 OFFCURVE",
"307 329 QCURVE SMOOTH",
"256 329 LINE",
"287 550 LINE",
"290 562 OFFCURVE",
"301 562 QCURVE SMOOTH"
);
},
{
closed = 1;
nodes = (
"326 294 LINE SMOOTH",
"366 294 OFFCURVE",
"405 247 OFFCURVE",
"405 197 QCURVE SMOOTH",
"405 117 OFFCURVE",
"335 36 OFFCURVE",
"277 36 QCURVE SMOOTH",
"228 36 LINE SMOOTH",
"216 36 OFFCURVE",
"216 45 QCURVE",
"217 49 LINE",
"251 294 LINE"
);
}
);
};
layerId = "EC024578-EFD3-4C50-A1DE-0E38CDD8AD0F";
paths = (
{
closed = 1;
nodes = (
"302 0 LINE SMOOTH",
"463.333 0 OFFCURVE",
"546 63 OFFCURVE",
"546 179 CURVE SMOOTH",
"546 259 OFFCURVE",
"483.667 317 OFFCURVE",
"397 317 CURVE",
"491.667 333 OFFCURVE",
"555 392 OFFCURVE",
"555 476 CURVE SMOOTH",
"555 556 OFFCURVE",
"501 597 OFFCURVE",
"401 597 CURVE SMOOTH",
"92 597 LINE",
"87 560 LINE",
"135 562 LINE SMOOTH",
"143.667 562 OFFCURVE",
"148 556.333 OFFCURVE",
"148 545 CURVE SMOOTH",
"148 542 LINE",
"80 57 LINE SMOOTH",
"78 42.333 OFFCURVE",
"71.667 35 OFFCURVE",
"61 35 CURVE SMOOTH",
"13 37 LINE",
"8 0 LINE"
);
},
{
closed = 1;
nodes = (
"220 36 OFFCURVE",
"216 39 OFFCURVE",
"216 45 CURVE",
"217 49 LINE",
"251 294 LINE",
"326 294 LINE SMOOTH",
"378.667 294 OFFCURVE",
"405 261.667 OFFCURVE",
"405 197 CURVE SMOOTH",
"405 90.333 OFFCURVE",
"354.333 36 OFFCURVE",
"277 36 CURVE SMOOTH",
"228 36 LINE SMOOTH"
);
},
{
closed = 1;
nodes = (
"287 550 LINE",
"289 558 OFFCURVE",
"293.667 562 OFFCURVE",
"301 562 CURVE SMOOTH",
"338 562 LINE SMOOTH",
"387.333 562 OFFCURVE",
"415 533.667 OFFCURVE",
"415 475 CURVE SMOOTH",
"415 379 OFFCURVE",
"381.667 329 OFFCURVE",
"307 329 CURVE SMOOTH",
"256 329 LINE"
);
}
);
userData = {
assembly = "NPUSHB[ ]	/* 77 values pushed */
17 1 6 3 1 74 0 0 6 8 6 0 8 126 0 6 11 1 8 2 6 8 101 10 5 2 3 3 4 93 9 1 4 4 17 75 7 1 2 2 1 94 0 1 1 21 1 76 36 36 26 25 0 0 36 47 36 46 42 39 30 28 25 35 26 34 0 24 0 23 37 33 36 21 12 7 24 
CALL[ ]	/* CallFunction */";
};
width = 577;
},
{
layerId = "6E1F4822-938D-406D-B3C9-5D869F42D31A";
paths = (
{
closed = 1;
nodes = (
"259 0 LINE SMOOTH",
"416.333 0 OFFCURVE",
"495 62.667 OFFCURVE",
"495 180 CURVE SMOOTH",
"495 258.667 OFFCURVE",
"434.667 317 OFFCURVE",
"352 317 CURVE",
"442.667 333 OFFCURVE",
"506 393.333 OFFCURVE",
"506 476 CURVE SMOOTH",
"506 556 OFFCURVE",
"454.667 597 OFFCURVE",
"356 597 CURVE SMOOTH",
"106 597 LINE",
"103 570 LINE",
"155 572 LINE SMOOTH",
"161.667 572 OFFCURVE",
"165 566.333 OFFCURVE",
"165 555 CURVE SMOOTH",
"165 552 LINE",
"94 45 LINE SMOOTH",
"92 30.333 OFFCURVE",
"86.333 23 OFFCURVE",
"77 23 CURVE SMOOTH",
"26 25 LINE",
"22 0 LINE"
);
},
{
closed = 1;
nodes = (
"168.667 24 OFFCURVE",
"165 27 OFFCURVE",
"165 33 CURVE",
"166 37 LINE",
"203 301 LINE",
"312 301 LINE SMOOTH",
"383.333 301 OFFCURVE",
"419 263.333 OFFCURVE",
"419 188 CURVE SMOOTH",
"419 89.333 OFFCURVE",
"350.667 24 OFFCURVE",
"252 24 CURVE SMOOTH",
"176 24 LINE SMOOTH"
);
},
{
closed = 1;
nodes = (
"239 560 LINE",
"241 568 OFFCURVE",
"244.667 572 OFFCURVE",
"250 572 CURVE SMOOTH",
"315 572 LINE SMOOTH",
"389.667 572 OFFCURVE",
"429 531.667 OFFCURVE",
"429 469 CURVE SMOOTH",
"429 381 OFFCURVE",
"380 326 OFFCURVE",
"288 326 CURVE SMOOTH",
"207 326 LINE"
);
}
);
userData = {
assembly = "NPUSHB[ ]	/* 76 values pushed */
17 1 6 3 1 74 0 0 6 8 6 0 112 0 6 11 1 8 2 6 8 101 10 5 2 3 3 4 93 9 1 4 4 17 75 7 1 2 2 1 93 0 1 1 21 1 76 35 35 25 24 0 0 35 45 35 44 41 38 29 27 24 34 25 33 0 23 0 22 36 33 36 21 12 7 24 
CALL[ ]	/* CallFunction */";
};
width = 545;
}
);
note = B;
rightKerningGroup = B;
unicode = 0042;
},
{
glyphname = C;
layers = (
{
anchors = (
{
name = bottom;
position = "{279, 0}";
},
{
name = top;
position = "{370, 597}";
}
);
layerId = "9A6463FA-02C3-4660-BEDA-F7CC218AE705";
paths = (
{
closed = 1;
nodes = (
"346 -10 OFFCURVE",
"378 -1 OFFCURVE",
"426 16 CURVE SMOOTH",
"462 29 OFFCURVE",
"482 35 OFFCURVE",
"509 35 CURVE SMOOTH",
"516 35 LINE",
"516 47 LINE SMOOTH",
"516 60 OFFCURVE",
"517 73 OFFCURVE",
"520 87 CURVE SMOOTH",
"523 101 OFFCURVE",
"529 128 OFFCURVE",
"538 167 CURVE",
"507 167 LINE",
"476 80 OFFCURVE",
"394 17 OFFCURVE",
"305 17 CURVE SMOOTH",
"209 17 OFFCURVE",
"150 105 OFFCURVE",
"150 240 CURVE SMOOTH",
"150 438 OFFCURVE",
"246 582 OFFCURVE",
"380 582 CURVE SMOOTH",
"461 582 OFFCURVE",
"534 520 OFFCURVE",
"540 433 CURVE",
"566 433 LINE",
"565 434 OFFCURVE",
"565 439 OFFCURVE",
"565 448 CURVE SMOOTH",
"565 469 OFFCURVE",
"573 521 OFFCURVE",
"584 564 CURVE",
"553 564 OFFCURVE",
"536 570 OFFCURVE",
"508 582 CURVE SMOOTH",
"472 598 OFFCURVE",
"447 607 OFFCURVE",
"388 607 CURVE SMOOTH",
"181 607 OFFCURVE",
"49 466 OFFCURVE",
"49 245 CURVE SMOOTH",
"49 86 OFFCURVE",
"141 -10 OFFCURVE",
"297 -10 CURVE SMOOTH"
);
}
);
userData = {
assembly = "NPUSHB[ ]	/* 48 values pushed */
0 1 0 2 5 1 2 103 0 5 0 6 4 5 6 103 0 3 3 0 95 0 0 0 25 75 0 4 4 7 95 0 7 7 26 7 76 36 36 18 37 35 36 20 34 8 7 28 
CALL[ ]	/* CallFunction */";
};
width = 585;
},
{
anchors = (
{
name = bottom;
position = "{279, 0}";
},
{
name = top;
position = "{370, 597}";
}
);
layerId = "EC024578-EFD3-4C50-A1DE-0E38CDD8AD0F";
paths = (
{
closed = 1;
nodes = (
"353 -10 OFFCURVE",
"392 0 OFFCURVE",
"441 16 CURVE SMOOTH",
"481 28 OFFCURVE",
"505 35 OFFCURVE",
"532 35 CURVE SMOOTH",
"538 35 LINE",
"538 49 LINE SMOOTH",
"538 59 OFFCURVE",
"538 68 OFFCURVE",
"539 78 CURVE SMOOTH",
"542 100 OFFCURVE",
"547 125 OFFCURVE",
"558 167 CURVE",
"522 167 LINE",
"494 86 OFFCURVE",
"417 25 OFFCURVE",
"334 25 CURVE SMOOTH",
"242 25 OFFCURVE",
"188 103 OFFCURVE",
"188 238 CURVE SMOOTH",
"188 447 OFFCURVE",
"274 575 OFFCURVE",
"400 575 CURVE SMOOTH",
"479 575 OFFCURVE",
"545 512 OFFCURVE",
"551 433 CURVE",
"583 433 LINE",
"582 434 OFFCURVE",
"582 439 OFFCURVE",
"582 450 CURVE SMOOTH",
"582 471 OFFCURVE",
"588 523 OFFCURVE",
"599 564 CURVE",
"568 564 OFFCURVE",
"551 570 OFFCURVE",
"518 582 CURVE SMOOTH",
"478 598 OFFCURVE",
"447 607 OFFCURVE",
"391 607 CURVE SMOOTH",
"173 607 OFFCURVE",
"39 472 OFFCURVE",
"39 251 CURVE SMOOTH",
"39 88 OFFCURVE",
"139 -10 OFFCURVE",
"308 -10 CURVE SMOOTH"
);
}
);
userData = {
assembly = "NPUSHB[ ]	/* 48 values pushed */
0 1 0 2 5 1 2 103 0 5 0 6 4 5 6 103 0 3 3 0 95 0 0 0 25 75 0 4 4 7 95 0 7 7 26 7 76 36 36 18 37 35 36 20 34 8 7 28 
CALL[ ]	/* CallFunction */";
};
width = 593;
},
{
anchors = (
{
name = bottom;
position = "{279, 0}";
},
{
name = top;
position = "{370, 597}";
}
);
layerId = "6E1F4822-938D-406D-B3C9-5D869F42D31A";
paths = (
{
closed = 1;
nodes = (
"343 -10 OFFCURVE",
"374 -1 OFFCURVE",
"419 16 CURVE SMOOTH",
"455 31 OFFCURVE",
"472 35 OFFCURVE",
"499 35 CURVE SMOOTH",
"506 35 LINE",
"506 46 LINE SMOOTH",
"506 57 OFFCURVE",
"507 70 OFFCURVE",
"510 83 CURVE SMOOTH",
"513 96 OFFCURVE",
"519 124 OFFCURVE",
"529 167 CURVE",
"500 167 LINE",
"468 78 OFFCURVE",
"384 13 OFFCURVE",
"292 13 CURVE SMOOTH",
"195 13 OFFCURVE",
"133 106 OFFCURVE",
"133 241 CURVE SMOOTH",
"133 434 OFFCURVE",
"235 585 OFFCURVE",
"371 585 CURVE SMOOTH",
"454 585 OFFCURVE",
"529 523 OFFCURVE",
"535 433 CURVE",
"558 433 LINE",
"557 434 OFFCURVE",
"557 438 OFFCURVE",
"557 447 CURVE SMOOTH",
"557 468 OFFCURVE",
"566 521 OFFCURVE",
"577 564 CURVE",
"546 564 OFFCURVE",
"529 570 OFFCURVE",
"504 582 CURVE SMOOTH",
"469 598 OFFCURVE",
"447 607 OFFCURVE",
"387 607 CURVE SMOOTH",
"184 607 OFFCURVE",
"53 464 OFFCURVE",
"53 242 CURVE SMOOTH",
"53 86 OFFCURVE",
"143 -10 OFFCURVE",
"292 -10 CURVE SMOOTH"
);
}
);
userData = {
assembly = "NPUSHB[ ]	/* 48 values pushed */
0 1 0 2 5 1 2 103 0 5 0 6 4 5 6 103 0 3 3 0 95 0 0 0 25 75 0 4 4 7 95 0 7 7 26 7 76 36 36 18 37 35 36 20 34 8 7 28 
CALL[ ]	/* CallFunction */";
};
width = 581;
}
);
leftKerningGroup = C;
note = C;
unicode = 0043;
},
{
glyphname = D;
layers = (
{
anchors = (
{
name = center;
position = "{216, 300}";
},
{
name = top;
position = "{359, 597}";
}
);
background = {
paths = (
{
closed = 1;
nodes = (
"102 597 LINE",
"98 567 LINE",
"137 569 LINE",
"151 570 OFFCURVE",
"151 553 QCURVE SMOOTH",
"151 548 LINE",
"81 49 LINE",
"77 27 OFFCURVE",
"65 27 QCURVE",
"22 29 LINE",
"18 0 LINE",
"248 0 LINE SMOOTH",
"419 0 OFFCURVE",
"588 187 OFFCURVE",
"588 362 QCURVE SMOOTH",
"588 486 OFFCURVE",
"456 597 OFFCURVE",
"320 597 QCURVE SMOOTH"
);
},
{
closed = 1;
nodes = (
"300 569 LINE SMOOTH",
"399 569 OFFCURVE",
"487 477 OFFCURVE",
"487 373 QCURVE SMOOTH",
"487 287 OFFCURVE",
"464 202 QCURVE SMOOTH",
"448 143 OFFCURVE",
"395 68 OFFCURVE",
"300 28 OFFCURVE",
"224 28 QCURVE SMOOTH",
"180 28 LINE SMOOTH",
"171 28 OFFCURVE",
"171 37 QCURVE",
"172 41 LINE",
"244 556 LINE",
"245 569 OFFCURVE",
"256 569 QCURVE SMOOTH"
);
}
);
};
layerId = "9A6463FA-02C3-4660-BEDA-F7CC218AE705";
paths = (
{
closed = 1;
nodes = (
"248 0 LINE SMOOTH",
"476 0 OFFCURVE",
"588 128.667 OFFCURVE",
"588 362 CURVE SMOOTH",
"588 527.333 OFFCURVE",
"501.333 597 OFFCURVE",
"320 597 CURVE SMOOTH",
"102 597 LINE",
"98 567 LINE",
"137 569 LINE SMOOTH",
"146.333 569.667 OFFCURVE",
"151 564.333 OFFCURVE",
"151 553 CURVE SMOOTH",
"151 548 LINE",
"81 49 LINE SMOOTH",
"78.333 34.333 OFFCURVE",
"73 27 OFFCURVE",
"65 27 CURVE SMOOTH",
"22 29 LINE",
"18 0 LINE"
);
},
{
closed = 1;
nodes = (
"174 28 OFFCURVE",
"171 31 OFFCURVE",
"171 37 CURVE",
"172 41 LINE",
"244 556 LINE SMOOTH",
"244.667 564.667 OFFCURVE",
"248.667 569 OFFCURVE",
"256 569 CURVE SMOOTH",
"300 569 LINE SMOOTH",
"432 569 OFFCURVE",
"487 511.667 OFFCURVE",
"487 373 CURVE SMOOTH",
"487 317 OFFCURVE",
"479.333 260 OFFCURVE",
"464 202 CURVE SMOOTH",
"432 82 OFFCURVE",
"369.333 28 OFFCURVE",
"224 28 CURVE SMOOTH",
"180 28 LINE SMOOTH"
);
}
);
userData = {
assembly = "NPUSHB[ ]	/* 51 values pushed */
11 1 1 2 1 74 7 4 2 2 2 3 93 6 1 3 3 17 75 5 1 1 1 0 93 0 0 0 21 0 76 20 19 0 0 27 24 19 35 20 34 0 18 0 17 37 33 36 8 7 23 
CALL[ ]	/* CallFunction */";
};
width = 613;
},
{
anchors = (
{
name = center;
position = "{220, 300}";
},
{
name = top;
position = "{379, 597}";
}
);
background = {
paths = (
{
closed = 1;
nodes = (
"92 597 LINE",
"87 560 LINE",
"123 562 LINE",
"138 562 OFFCURVE",
"138 545 QCURVE SMOOTH",
"138 541 LINE",
"70 57 LINE SMOOTH",
"67 35 OFFCURVE",
"53 35 QCURVE SMOOTH",
"13 37 LINE",
"8 0 LINE",
"262 0 LINE SMOOTH",
"381 0 OFFCURVE",
"542 90 OFFCURVE",
"620 244 OFFCURVE",
"620 340 QCURVE SMOOTH",
"620 466 OFFCURVE",
"478 597 OFFCURVE",
"334 597 QCURVE SMOOTH"
);
},
{
closed = 1;
nodes = (
"313 562 LINE SMOOTH",
"400 562 OFFCURVE",
"476 468 OFFCURVE",
"476 360 QCURVE SMOOTH",
"476 274 OFFCURVE",
"454 202 QCURVE SMOOTH",
"429 124 OFFCURVE",
"327 36 OFFCURVE",
"238 36 QCURVE SMOOTH",
"216 36 LINE SMOOTH",
"206 36 OFFCURVE",
"206 45 QCURVE",
"207 49 LINE",
"277 549 LINE",
"278 562 OFFCURVE",
"291 562 QCURVE SMOOTH"
);
}
);
};
layerId = "EC024578-EFD3-4C50-A1DE-0E38CDD8AD0F";
paths = (
{
closed = 1;
nodes = (
"262 0 LINE SMOOTH",
"494 0 OFFCURVE",
"620 137.333 OFFCURVE",
"620 340 CURVE SMOOTH",
"620 508 OFFCURVE",
"526 597 OFFCURVE",
"334 597 CURVE SMOOTH",
"92 597 LINE",
"87 560 LINE",
"123 562 LINE SMOOTH",
"133 562 OFFCURVE",
"138 556.333 OFFCURVE",
"138 545 CURVE SMOOTH",
"138 541 LINE",
"70 57 LINE SMOOTH",
"68 42.333 OFFCURVE",
"62.333 35 OFFCURVE",
"53 35 CURVE SMOOTH",
"13 37 LINE",
"8 0 LINE"
);
},
{
closed = 1;
nodes = (
"209.333 36 OFFCURVE",
"206 39 OFFCURVE",
"206 45 CURVE",
"207 49 LINE",
"277 549 LINE SMOOTH",
"277.667 557.667 OFFCURVE",
"282.333 562 OFFCURVE",
"291 562 CURVE SMOOTH",
"313 562 LINE SMOOTH",
"429 562 OFFCURVE",
"476 504 OFFCURVE",
"476 360 CURVE SMOOTH",
"476 302.667 OFFCURVE",
"468.667 250 OFFCURVE",
"454 202 CURVE SMOOTH",
"420.667 98 OFFCURVE",
"356.667 36 OFFCURVE",
"238 36 CURVE SMOOTH",
"216 36 LINE SMOOTH"
);
}
);
userData = {
assembly = "NPUSHB[ ]	/* 51 values pushed */
14 1 1 2 1 74 7 4 2 2 2 3 93 6 1 3 3 17 75 5 1 1 1 0 93 0 0 0 21 0 76 22 21 0 0 29 26 21 36 22 35 0 20 0 19 37 49 37 8 7 23 
CALL[ ]	/* CallFunction */";
};
width = 636;
},
{
anchors = (
{
name = center;
position = "{214, 300}";
},
{
name = top;
position = "{350, 597}";
}
);
layerId = "6E1F4822-938D-406D-B3C9-5D869F42D31A";
paths = (
{
closed = 1;
nodes = (
"242 0 LINE SMOOTH",
"467.333 0 OFFCURVE",
"574 125.333 OFFCURVE",
"574 372 CURVE SMOOTH",
"574 536 OFFCURVE",
"490 597 OFFCURVE",
"314 597 CURVE SMOOTH",
"106 597 LINE",
"103 570 LINE",
"143 572 LINE SMOOTH",
"151.667 572.667 OFFCURVE",
"156.333 567.667 OFFCURVE",
"157 557 CURVE SMOOTH",
"157 551 LINE",
"86 45 LINE SMOOTH",
"83.333 31 OFFCURVE",
"78 23.667 OFFCURVE",
"70 23 CURVE",
"26 25 LINE",
"22 0 LINE"
);
},
{
closed = 1;
nodes = (
"158 24 OFFCURVE",
"155 27 OFFCURVE",
"155 33 CURVE",
"156 37 LINE",
"229 559 LINE SMOOTH",
"229.667 567.667 OFFCURVE",
"233.333 572 OFFCURVE",
"240 572 CURVE SMOOTH",
"294 572 LINE SMOOTH",
"434 572 OFFCURVE",
"492 515 OFFCURVE",
"492 379 CURVE SMOOTH",
"492 323.667 OFFCURVE",
"484 264.667 OFFCURVE",
"468 202 CURVE SMOOTH",
"437.333 75.333 OFFCURVE",
"375.333 24 OFFCURVE",
"218 24 CURVE SMOOTH",
"164 24 LINE SMOOTH"
);
}
);
userData = {
assembly = "NPUSHB[ ]	/* 51 values pushed */
11 1 1 2 1 74 7 4 2 2 2 3 93 6 1 3 3 17 75 5 1 1 1 0 93 0 0 0 21 0 76 20 19 0 0 27 24 19 35 20 34 0 18 0 17 37 33 36 8 7 23 
CALL[ ]	/* CallFunction */";
};
width = 603;
}
);
note = D;
rightKerningGroup = D;
unicode = 0044;
},
{
glyphname = E;
layers = (
{
anchors = (
{
name = bottom;
position = "{242, 0}";
},
{
name = ogonek;
position = "{381, 0}";
},
{
name = top;
position = "{329, 597}";
}
);
layerId = "9A6463FA-02C3-4660-BEDA-F7CC218AE705";
paths = (
{
closed = 1;
nodes = (
"498 179 LINE",
"469 179 LINE",
"455.667 81.667 OFFCURVE",
"401.333 28 OFFCURVE",
"316 28 CURVE SMOOTH",
"180 28 LINE SMOOTH",
"174.667 28 OFFCURVE",
"172 31.333 OFFCURVE",
"172 38 CURVE SMOOTH",
"172 41 LINE",
"208 297 LINE",
"298 297 LINE SMOOTH",
"331.333 297 OFFCURVE",
"356 264.667 OFFCURVE",
"356 218 CURVE SMOOTH",
"356 213.333 OFFCURVE",
"355.333 205.667 OFFCURVE",
"354 195 CURVE",
"384 195 LINE",
"417 426 LINE",
"387 426 LINE",
"377.667 363.333 OFFCURVE",
"343.333 325 OFFCURVE",
"302 325 CURVE SMOOTH",
"212 325 LINE",
"244 555 LINE SMOOTH",
"245.333 564.333 OFFCURVE",
"249.333 569 OFFCURVE",
"256 569 CURVE SMOOTH",
"360 569 LINE SMOOTH",
"442.667 569 OFFCURVE",
"480 540.333 OFFCURVE",
"480 475 CURVE SMOOTH",
"480 465.667 OFFCURVE",
"479 455 OFFCURVE",
"477 443 CURVE",
"506 443 LINE",
"528 599 LINE",
"524.667 597.667 OFFCURVE",
"518.667 597 OFFCURVE",
"510 597 CURVE SMOOTH",
"102 597 LINE",
"98 567 LINE",
"136 569 LINE SMOOTH",
"146 569 OFFCURVE",
"151 563.667 OFFCURVE",
"151 553 CURVE SMOOTH",
"151 548 LINE",
"81 49 LINE SMOOTH",
"79 34.333 OFFCURVE",
"72.667 27 OFFCURVE",
"62 27 CURVE SMOOTH",
"22 30 LINE",
"18 0 LINE",
"387 0 LINE SMOOTH",
"429.667 0 OFFCURVE",
"458.333 -1 OFFCURVE",
"473 -3 CURVE"
);
}
);
userData = {
assembly = "NPUSHB[ ]	/* 11 values pushed */
41 1 0 1 37 24 2 6 7 2 74 
MPPEM[ ]	/* MeasurePixelPerEm */
PUSHB[ ]	/* 1 value pushed */
10 
LT[ ]	/* LessThan */
IF[ ]	/* If */
NPUSHB[ ]	/* 58 values pushed */
0 0 1 3 1 0 112 0 4 5 7 5 4 7 126 0 7 6 5 7 6 124 0 2 0 5 4 2 5 101 10 1 1 1 11 93 0 11 11 17 75 0 3 3 20 75 9 1 6 6 8 93 0 8 8 21 8 76 
ELSE[ ]	/* Else */
NPUSHB[ ]	/* 59 values pushed */
0 0 1 3 1 0 3 126 0 4 5 7 5 4 7 126 0 7 6 5 7 6 124 0 2 0 5 4 2 5 101 10 1 1 1 11 93 0 11 11 17 75 0 3 3 20 75 9 1 6 6 8 93 0 8 8 21 8 76 
EIF[ ]	/* EndIf */
NPUSHB[ ]	/* 18 values pushed */
48 46 45 43 39 38 34 18 51 36 17 18 34 52 16 12 7 29 
CALL[ ]	/* CallFunction */";
};
width = 545;
},
{
anchors = (
{
name = bottom;
position = "{248, 0}";
},
{
name = ogonek;
position = "{387, 0}";
},
{
name = top;
position = "{335, 597}";
}
);
layerId = "EC024578-EFD3-4C50-A1DE-0E38CDD8AD0F";
paths = (
{
closed = 1;
nodes = (
"518 179 LINE",
"483 179 LINE",
"469.667 87 OFFCURVE",
"414.333 36 OFFCURVE",
"325 36 CURVE SMOOTH",
"216 36 LINE SMOOTH",
"210 36 OFFCURVE",
"207 39.333 OFFCURVE",
"207 46 CURVE SMOOTH",
"207 49 LINE",
"240 290 LINE",
"311 290 LINE SMOOTH",
"347 290 OFFCURVE",
"373 256.667 OFFCURVE",
"373 210 CURVE SMOOTH",
"373 201.333 OFFCURVE",
"372.667 195 OFFCURVE",
"372 191 CURVE",
"407 191 LINE",
"440 426 LINE",
"405 426 LINE",
"395.667 363.333 OFFCURVE",
"361.333 325 OFFCURVE",
"316 325 CURVE SMOOTH",
"246 325 LINE",
"277 548 LINE SMOOTH",
"278.333 557.333 OFFCURVE",
"283 562 OFFCURVE",
"291 562 CURVE SMOOTH",
"367 562 LINE SMOOTH",
"453.667 562 OFFCURVE",
"492 535 OFFCURVE",
"492 471 CURVE SMOOTH",
"492 465.667 OFFCURVE",
"491.333 456.333 OFFCURVE",
"490 443 CURVE",
"525 443 LINE",
"547 598 LINE",
"544.333 597.333 OFFCURVE",
"538.667 597 OFFCURVE",
"530 597 CURVE SMOOTH",
"92 597 LINE",
"87 560 LINE",
"122 562 LINE SMOOTH",
"132.667 562.667 OFFCURVE",
"138 557 OFFCURVE",
"138 545 CURVE SMOOTH",
"138 541 LINE",
"70 57 LINE SMOOTH",
"68 42.333 OFFCURVE",
"61 35 OFFCURVE",
"49 35 CURVE SMOOTH",
"14 38 LINE",
"8 0 LINE",
"398 0 LINE SMOOTH",
"446.667 0 OFFCURVE",
"478.333 -1 OFFCURVE",
"493 -3 CURVE"
);
}
);
userData = {
assembly = "NPUSHB[ ]	/* 11 values pushed */
41 1 0 1 37 24 2 6 7 2 74 
MPPEM[ ]	/* MeasurePixelPerEm */
PUSHB[ ]	/* 1 value pushed */
10 
LT[ ]	/* LessThan */
IF[ ]	/* If */
NPUSHB[ ]	/* 58 values pushed */
0 0 1 3 1 0 112 0 4 5 7 5 4 7 126 0 7 6 5 7 6 124 0 2 0 5 4 2 5 101 10 1 1 1 11 93 0 11 11 17 75 0 3 3 20 75 9 1 6 6 8 94 0 8 8 21 8 76 
ELSE[ ]	/* Else */
NPUSHB[ ]	/* 59 values pushed */
0 0 1 3 1 0 3 126 0 4 5 7 5 4 7 126 0 7 6 5 7 6 124 0 2 0 5 4 2 5 101 10 1 1 1 11 93 0 11 11 17 75 0 3 3 20 75 9 1 6 6 8 94 0 8 8 21 8 76 
EIF[ ]	/* EndIf */
NPUSHB[ ]	/* 18 values pushed */
49 47 46 44 39 38 34 18 51 36 17 18 34 52 16 12 7 29 
CALL[ ]	/* CallFunction */";
};
width = 566;
},
{
anchors = (
{
name = bottom;
position = "{239, 0}";
},
{
name = ogonek;
position = "{378, 0}";
},
{
name = top;
position = "{326, 597}";
}
);
layerId = "6E1F4822-938D-406D-B3C9-5D869F42D31A";
paths = (
{
closed = 1;
nodes = (
"489 179 LINE",
"463 179 LINE",
"449.667 79 OFFCURVE",
"396 24 OFFCURVE",
"312 24 CURVE SMOOTH",
"164 24 LINE SMOOTH",
"158.667 24 OFFCURVE",
"156 27.333 OFFCURVE",
"156 34 CURVE SMOOTH",
"156 37 LINE",
"194 300 LINE",
"292 300 LINE SMOOTH",
"324 300 OFFCURVE",
"348 268.667 OFFCURVE",
"348 222 CURVE SMOOTH",
"348 218.667 OFFCURVE",
"347.333 210.333 OFFCURVE",
"346 197 CURVE",
"374 197 LINE",
"407 426 LINE",
"379 426 LINE",
"369.667 363.333 OFFCURVE",
"334.667 325 OFFCURVE",
"296 325 CURVE SMOOTH",
"197 325 LINE",
"229 558 LINE SMOOTH",
"230.333 567.333 OFFCURVE",
"234 572 OFFCURVE",
"240 572 CURVE SMOOTH",
"357 572 LINE SMOOTH",
"438.333 572 OFFCURVE",
"475 542.333 OFFCURVE",
"475 477 CURVE SMOOTH",
"475 465.667 OFFCURVE",
"473.667 454.333 OFFCURVE",
"471 443 CURVE",
"498 443 LINE",
"520 599 LINE",
"516.667 597.667 OFFCURVE",
"510.333 597 OFFCURVE",
"501 597 CURVE SMOOTH",
"106 597 LINE",
"103 570 LINE",
"142 572 LINE SMOOTH",
"151.333 572 OFFCURVE",
"156.333 567 OFFCURVE",
"157 557 CURVE SMOOTH",
"157 551 LINE",
"86 45 LINE SMOOTH",
"84 30.333 OFFCURVE",
"78 23 OFFCURVE",
"68 23 CURVE SMOOTH",
"26 26 LINE",
"22 0 LINE",
"382 0 LINE SMOOTH",
"422 0 OFFCURVE",
"449.333 -1 OFFCURVE",
"464 -3 CURVE"
);
}
);
userData = {
assembly = "NPUSHB[ ]	/* 11 values pushed */
41 1 0 1 37 24 2 6 7 2 74 
MPPEM[ ]	/* MeasurePixelPerEm */
PUSHB[ ]	/* 1 value pushed */
10 
LT[ ]	/* LessThan */
IF[ ]	/* If */
NPUSHB[ ]	/* 58 values pushed */
0 0 1 3 1 0 112 0 4 5 7 5 4 7 126 0 7 6 5 7 6 124 0 2 0 5 4 2 5 101 10 1 1 1 11 93 0 11 11 17 75 0 3 3 20 75 9 1 6 6 8 93 0 8 8 21 8 76 
ELSE[ ]	/* Else */
NPUSHB[ ]	/* 59 values pushed */
0 0 1 3 1 0 3 126 0 4 5 7 5 4 7 126 0 7 6 5 7 6 124 0 2 0 5 4 2 5 101 10 1 1 1 11 93 0 11 11 17 75 0 3 3 20 75 9 1 6 6 8 93 0 8 8 21 8 76 
EIF[ ]	/* EndIf */
NPUSHB[ ]	/* 18 values pushed */
48 46 45 43 39 38 34 18 51 36 17 18 34 52 16 12 7 29 
CALL[ ]	/* CallFunction */";
};
width = 536;
}
);
note = E;
rightKerningGroup = E;
unicode = 0045;
},
{
glyphname = F;
layers = (
{
layerId = "9A6463FA-02C3-4660-BEDA-F7CC218AE705";
paths = (
{
closed = 1;
nodes = (
"235 0 LINE",
"239 30 LINE",
"187 27 LINE SMOOTH",
"179 27 OFFCURVE",
"173 34.667 OFFCURVE",
"173 44 CURVE SMOOTH",
"173 48 LINE",
"207 287 LINE",
"277 287 LINE SMOOTH",
"315.667 287 OFFCURVE",
"340 257.667 OFFCURVE",
"340 211 CURVE",
"338 187 LINE",
"367 187 LINE",
"400 417 LINE",
"371 417 LINE",
"361.667 354.333 OFFCURVE",
"326.333 315 OFFCURVE",
"281 315 CURVE SMOOTH",
"210 315 LINE",
"244 556 LINE SMOOTH",
"244.667 564.667 OFFCURVE",
"248.667 569 OFFCURVE",
"256 569 CURVE SMOOTH",
"369 569 LINE SMOOTH",
"451.667 569 OFFCURVE",
"490 540.333 OFFCURVE",
"490 475 CURVE SMOOTH",
"490 465.667 OFFCURVE",
"489 455 OFFCURVE",
"487 443 CURVE",
"516 443 LINE",
"538 599 LINE",
"534.667 597.667 OFFCURVE",
"529.333 597 OFFCURVE",
"522 597 CURVE SMOOTH",
"102 597 LINE",
"98 567 LINE",
"139 569 LINE SMOOTH",
"147 569 OFFCURVE",
"151 564 OFFCURVE",
"151 554 CURVE SMOOTH",
"151 548 LINE",
"81 49 LINE SMOOTH",
"79 34.333 OFFCURVE",
"72.667 27 OFFCURVE",
"62 27 CURVE SMOOTH",
"22 30 LINE",
"18 0 LINE"
);
}
);
userData = {
assembly = "NPUSHB[ ]	/* 11 values pushed */
36 1 0 1 32 24 2 6 4 2 74 
MPPEM[ ]	/* MeasurePixelPerEm */
PUSHB[ ]	/* 1 value pushed */
10 
LT[ ]	/* LessThan */
IF[ ]	/* If */
NPUSHB[ ]	/* 51 values pushed */
0 0 1 3 1 0 112 0 4 5 6 5 4 6 126 0 2 0 5 4 2 5 103 9 1 1 1 10 93 0 10 10 17 75 0 3 3 20 75 8 1 6 6 7 93 0 7 7 21 7 76 
ELSE[ ]	/* Else */
MPPEM[ ]	/* MeasurePixelPerEm */
PUSHB[ ]	/* 1 value pushed */
39 
LT[ ]	/* LessThan */
IF[ ]	/* If */
NPUSHB[ ]	/* 52 values pushed */
0 0 1 3 1 0 3 126 0 4 5 6 5 4 6 126 0 2 0 5 4 2 5 103 9 1 1 1 10 93 0 10 10 17 75 0 3 3 20 75 8 1 6 6 7 93 0 7 7 21 7 76 
ELSE[ ]	/* Else */
NPUSHB[ ]	/* 54 values pushed */
0 0 1 3 1 0 3 126 0 3 2 1 3 2 124 0 4 5 6 5 4 6 126 0 2 0 5 4 2 5 103 9 1 1 1 10 93 0 10 10 17 75 8 1 6 6 7 93 0 7 7 21 7 76 
EIF[ ]	/* EndIf */
EIF[ ]	/* EndIf */
NPUSHB[ ]	/* 16 values pushed */
43 41 40 38 18 17 36 36 17 18 34 52 16 11 7 29 
CALL[ ]	/* CallFunction */";
};
width = 513;
},
{
layerId = "EC024578-EFD3-4C50-A1DE-0E38CDD8AD0F";
paths = (
{
closed = 1;
nodes = (
"270 0 LINE",
"276 38 LINE",
"223 35 LINE SMOOTH",
"213.667 35 OFFCURVE",
"208 41.333 OFFCURVE",
"208 52 CURVE SMOOTH",
"208 56 LINE",
"239 280 LINE",
"306 280 LINE SMOOTH",
"346 280 OFFCURVE",
"371 250.333 OFFCURVE",
"371 201 CURVE SMOOTH",
"370 180 LINE",
"405 180 LINE",
"438 417 LINE",
"403 417 LINE",
"393.667 354.333 OFFCURVE",
"358 315 OFFCURVE",
"310 315 CURVE SMOOTH",
"244 315 LINE",
"277 549 LINE SMOOTH",
"277.667 557.667 OFFCURVE",
"282.333 562 OFFCURVE",
"291 562 CURVE SMOOTH",
"377 562 LINE SMOOTH",
"462.333 562 OFFCURVE",
"503 534.333 OFFCURVE",
"503 473 CURVE SMOOTH",
"503 464.333 OFFCURVE",
"502 454.333 OFFCURVE",
"500 443 CURVE",
"535 443 LINE",
"557 598 LINE",
"554.333 597.333 OFFCURVE",
"549.333 597 OFFCURVE",
"542 597 CURVE SMOOTH",
"92 597 LINE",
"87 560 LINE",
"125 562 LINE SMOOTH",
"133.667 562 OFFCURVE",
"138 557 OFFCURVE",
"138 547 CURVE SMOOTH",
"138 541 LINE",
"70 57 LINE SMOOTH",
"68 42.333 OFFCURVE",
"61 35 OFFCURVE",
"49 35 CURVE SMOOTH",
"14 38 LINE",
"8 0 LINE"
);
}
);
userData = {
assembly = "NPUSHB[ ]	/* 11 values pushed */
36 1 0 1 32 24 2 6 4 2 74 
MPPEM[ ]	/* MeasurePixelPerEm */
PUSHB[ ]	/* 1 value pushed */
10 
LT[ ]	/* LessThan */
IF[ ]	/* If */
NPUSHB[ ]	/* 51 values pushed */
0 0 1 3 1 0 112 0 4 5 6 5 4 6 126 0 2 0 5 4 2 5 103 9 1 1 1 10 93 0 10 10 17 75 0 3 3 20 75 8 1 6 6 7 93 0 7 7 21 7 76 
ELSE[ ]	/* Else */
MPPEM[ ]	/* MeasurePixelPerEm */
PUSHB[ ]	/* 1 value pushed */
27 
LT[ ]	/* LessThan */
IF[ ]	/* If */
NPUSHB[ ]	/* 52 values pushed */
0 0 1 3 1 0 3 126 0 4 5 6 5 4 6 126 0 2 0 5 4 2 5 103 9 1 1 1 10 93 0 10 10 17 75 0 3 3 20 75 8 1 6 6 7 93 0 7 7 21 7 76 
ELSE[ ]	/* Else */
NPUSHB[ ]	/* 54 values pushed */
0 0 1 3 1 0 3 126 0 3 2 1 3 2 124 0 4 5 6 5 4 6 126 0 2 0 5 4 2 5 103 9 1 1 1 10 93 0 10 10 17 75 8 1 6 6 7 93 0 7 7 21 7 76 
EIF[ ]	/* EndIf */
EIF[ ]	/* EndIf */
NPUSHB[ ]	/* 16 values pushed */
43 41 40 38 18 17 36 36 17 18 34 52 16 11 7 29 
CALL[ ]	/* CallFunction */";
};
width = 525;
},
{
layerId = "6E1F4822-938D-406D-B3C9-5D869F42D31A";
paths = (
{
closed = 1;
nodes = (
"219 0 LINE",
"223 26 LINE",
"171 23 LINE SMOOTH",
"163 23 OFFCURVE",
"157 32 OFFCURVE",
"157 40 CURVE SMOOTH",
"157 44 LINE",
"193 290 LINE",
"264 290 LINE SMOOTH",
"302.667 290 OFFCURVE",
"326 261.667 OFFCURVE",
"326 215 CURVE",
"324 190 LINE",
"350 190 LINE",
"383 417 LINE",
"357 417 LINE",
"347.667 354.333 OFFCURVE",
"312 315 OFFCURVE",
"268 315 CURVE SMOOTH",
"195 315 LINE",
"229 559 LINE SMOOTH",
"229.667 567.667 OFFCURVE",
"233.333 572 OFFCURVE",
"240 572 CURVE SMOOTH",
"365 572 LINE SMOOTH",
"447.667 572 OFFCURVE",
"484 542.667 OFFCURVE",
"484 476 CURVE SMOOTH",
"484 466 OFFCURVE",
"483 455 OFFCURVE",
"481 443 CURVE",
"508 443 LINE",
"530 599 LINE",
"526.667 597.667 OFFCURVE",
"521 597 OFFCURVE",
"513 597 CURVE SMOOTH",
"106 597 LINE",
"103 570 LINE",
"145 572 LINE SMOOTH",
"153 572 OFFCURVE",
"157 567 OFFCURVE",
"157 557 CURVE SMOOTH",
"157 551 LINE",
"86 45 LINE SMOOTH",
"84 30.333 OFFCURVE",
"78 23 OFFCURVE",
"68 23 CURVE SMOOTH",
"26 26 LINE",
"22 0 LINE"
);
}
);
userData = {
assembly = "NPUSHB[ ]	/* 11 values pushed */
36 1 0 1 32 24 2 6 4 2 74 
MPPEM[ ]	/* MeasurePixelPerEm */
PUSHB[ ]	/* 1 value pushed */
10 
LT[ ]	/* LessThan */
IF[ ]	/* If */
NPUSHB[ ]	/* 51 values pushed */
0 0 1 3 1 0 112 0 4 5 6 5 4 6 126 0 2 0 5 4 2 5 103 9 1 1 1 10 93 0 10 10 17 75 0 3 3 20 75 8 1 6 6 7 93 0 7 7 21 7 76 
ELSE[ ]	/* Else */
MPPEM[ ]	/* MeasurePixelPerEm */
PUSHB[ ]	/* 1 value pushed */
39 
LT[ ]	/* LessThan */
IF[ ]	/* If */
NPUSHB[ ]	/* 52 values pushed */
0 0 1 3 1 0 3 126 0 4 5 6 5 4 6 126 0 2 0 5 4 2 5 103 9 1 1 1 10 93 0 10 10 17 75 0 3 3 20 75 8 1 6 6 7 93 0 7 7 21 7 76 
ELSE[ ]	/* Else */
NPUSHB[ ]	/* 54 values pushed */
0 0 1 3 1 0 3 126 0 3 2 1 3 2 124 0 4 5 6 5 4 6 126 0 2 0 5 4 2 5 103 9 1 1 1 10 93 0 10 10 17 75 8 1 6 6 7 93 0 7 7 21 7 76 
EIF[ ]	/* EndIf */
EIF[ ]	/* EndIf */
NPUSHB[ ]	/* 16 values pushed */
43 41 40 38 18 17 36 36 17 18 34 52 16 11 7 29 
CALL[ ]	/* CallFunction */";
};
width = 508;
}
);
note = F;
rightKerningGroup = F;
unicode = 0046;
},
{
glyphname = G;
layers = (
{
anchors = (
{
name = bottom;
position = "{279, 0}";
},
{
name = top;
position = "{370, 597}";
}
);
layerId = "9A6463FA-02C3-4660-BEDA-F7CC218AE705";
paths = (
{
closed = 1;
nodes = (
"371 -10 OFFCURVE",
"415 3 OFFCURVE",
"463 23 CURVE SMOOTH",
"485 32 OFFCURVE",
"500 36 OFFCURVE",
"509 36 CURVE SMOOTH",
"514 36 OFFCURVE",
"519 36 OFFCURVE",
"523 35 CURVE",
"550 224 LINE SMOOTH",
"551 235 OFFCURVE",
"560 245 OFFCURVE",
"569 245 CURVE SMOOTH",
"611 243 LINE",
"615 272 LINE",
"389 272 LINE",
"385 243 LINE",
"443 245 LINE SMOOTH",
"452 245 OFFCURVE",
"457 240 OFFCURVE",
"457 230 CURVE SMOOTH",
"457 223 LINE",
"434 63 LINE",
"395 28 OFFCURVE",
"363 17 OFFCURVE",
"306 17 CURVE SMOOTH",
"205 17 OFFCURVE",
"149 84 OFFCURVE",
"149 224 CURVE SMOOTH",
"149 376 OFFCURVE",
"194 486 OFFCURVE",
"264 541 CURVE SMOOTH",
"299 568 OFFCURVE",
"338 582 OFFCURVE",
"381 582 CURVE SMOOTH",
"472 582 OFFCURVE",
"530 544 OFFCURVE",
"530 467 CURVE SMOOTH",
"530 453 OFFCURVE",
"528 442 OFFCURVE",
"525 433 CURVE",
"567 433 LINE",
"570 474 OFFCURVE",
"576 518 OFFCURVE",
"585 564 CURVE",
"572 564 OFFCURVE",
"555 569 OFFCURVE",
"534 578 CURVE SMOOTH",
"494 595 OFFCURVE",
"458 607 OFFCURVE",
"389 607 CURVE SMOOTH",
"174 607 OFFCURVE",
"49 475 OFFCURVE",
"49 239 CURVE SMOOTH",
"49 76 OFFCURVE",
"139 -10 OFFCURVE",
"298 -10 CURVE SMOOTH"
);
}
);
userData = {
assembly = "NPUSHB[ ]	/* 78 values pushed */
24 1 7 4 1 74 0 0 2 1 2 0 1 126 0 1 5 2 1 5 124 0 7 4 3 4 7 3 126 0 5 6 1 4 7 5 4 104 0 2 2 9 95 10 1 9 9 25 75 0 3 3 8 95 0 8 8 26 8 76 0 0 0 49 0 48 35 22 17 17 37 37 36 19 19 11 7 29 
CALL[ ]	/* CallFunction */";
};
width = 626;
},
{
anchors = (
{
name = bottom;
position = "{283, 0}";
},
{
name = top;
position = "{374, 597}";
}
);
layerId = "EC024578-EFD3-4C50-A1DE-0E38CDD8AD0F";
paths = (
{
closed = 1;
nodes = (
"372 -10 OFFCURVE",
"418 2 OFFCURVE",
"471 22 CURVE SMOOTH",
"504 32 OFFCURVE",
"524 37 OFFCURVE",
"533 37 CURVE SMOOTH",
"538 37 OFFCURVE",
"544 36 OFFCURVE",
"552 35 CURVE",
"577 217 LINE",
"580 228 OFFCURVE",
"589 238 OFFCURVE",
"598 238 CURVE SMOOTH",
"631 236 LINE",
"636 272 LINE",
"370 272 LINE",
"365 236 LINE",
"424 238 LINE SMOOTH",
"434 238 OFFCURVE",
"439 233 OFFCURVE",
"439 222 CURVE SMOOTH",
"439 216 LINE",
"418 68 LINE",
"386 36 OFFCURVE",
"357 25 OFFCURVE",
"316 25 CURVE SMOOTH",
"231 25 OFFCURVE",
"185 87 OFFCURVE",
"185 214 CURVE SMOOTH",
"185 368 OFFCURVE",
"226 481 OFFCURVE",
"294 537 CURVE SMOOTH",
"325 562 OFFCURVE",
"362 575 OFFCURVE",
"403 575 CURVE SMOOTH",
"500 575 OFFCURVE",
"551 530 OFFCURVE",
"544 449 CURVE SMOOTH",
"544 440 OFFCURVE",
"543 432 OFFCURVE",
"540 426 CURVE",
"591 426 LINE",
"594 478 OFFCURVE",
"600 524 OFFCURVE",
"611 564 CURVE",
"600 564 OFFCURVE",
"579 569 OFFCURVE",
"548 579 CURVE SMOOTH",
"493 596 OFFCURVE",
"456 607 OFFCURVE",
"397 607 CURVE SMOOTH",
"172 607 OFFCURVE",
"38 476 OFFCURVE",
"38 244 CURVE SMOOTH",
"38 77 OFFCURVE",
"135 -10 OFFCURVE",
"303 -10 CURVE SMOOTH"
);
}
);
userData = {
assembly = "NPUSHB[ ]	/* 82 values pushed */
10 1 1 0 24 1 7 4 2 74 0 0 2 1 2 0 1 126 0 1 5 2 1 5 124 0 7 4 3 4 7 3 126 0 5 6 1 4 7 5 4 104 0 2 2 9 95 10 1 9 9 25 75 0 3 3 8 95 0 8 8 26 8 76 0 0 0 50 0 49 36 37 17 17 37 37 36 18 20 11 7 29 
CALL[ ]	/* CallFunction */";
};
width = 646;
},
{
anchors = (
{
name = bottom;
position = "{277, 0}";
},
{
name = top;
position = "{368, 597}";
}
);
layerId = "6E1F4822-938D-406D-B3C9-5D869F42D31A";
paths = (
{
closed = 1;
nodes = (
"371 -10 OFFCURVE",
"414 3 OFFCURVE",
"459 23 CURVE SMOOTH",
"476 31 OFFCURVE",
"489 35 OFFCURVE",
"498 36 CURVE SMOOTH",
"504 36 OFFCURVE",
"508 36 OFFCURVE",
"510 35 CURVE",
"538 227 LINE SMOOTH",
"539 239 OFFCURVE",
"547 248 OFFCURVE",
"556 248 CURVE SMOOTH",
"602 246 LINE",
"606 272 LINE",
"397 272 LINE",
"394 246 LINE",
"451 248 LINE SMOOTH",
"460 248 OFFCURVE",
"465 243 OFFCURVE",
"465 234 CURVE SMOOTH",
"465 226 LINE",
"441 61 LINE",
"400 25 OFFCURVE",
"366 13 OFFCURVE",
"302 13 CURVE SMOOTH",
"193 13 OFFCURVE",
"133 83 OFFCURVE",
"133 228 CURVE SMOOTH",
"133 384 OFFCURVE",
"181 493 OFFCURVE",
"253 546 CURVE SMOOTH",
"289 572 OFFCURVE",
"328 585 OFFCURVE",
"371 585 CURVE SMOOTH",
"459 585 OFFCURVE",
"521 550 OFFCURVE",
"524 475 CURVE SMOOTH",
"524 459 OFFCURVE",
"522 446 OFFCURVE",
"518 436 CURVE",
"556 436 LINE",
"559 473 OFFCURVE",
"564 515 OFFCURVE",
"573 564 CURVE",
"559 564 OFFCURVE",
"544 569 OFFCURVE",
"528 578 CURVE SMOOTH",
"495 595 OFFCURVE",
"460 607 OFFCURVE",
"385 607 CURVE SMOOTH",
"176 607 OFFCURVE",
"54 474 OFFCURVE",
"54 237 CURVE SMOOTH",
"54 76 OFFCURVE",
"141 -10 OFFCURVE",
"296 -10 CURVE SMOOTH"
);
}
);
userData = {
assembly = "NPUSHB[ ]	/* 78 values pushed */
24 1 7 4 1 74 0 0 2 1 2 0 1 126 0 1 5 2 1 5 124 0 7 4 3 4 7 3 126 0 5 6 1 4 7 5 4 104 0 2 2 9 95 10 1 9 9 25 75 0 3 3 8 95 0 8 8 26 8 76 0 0 0 49 0 48 35 22 17 17 37 37 36 19 19 11 7 29 
CALL[ ]	/* CallFunction */";
};
width = 617;
}
);
leftKerningGroup = C;
note = G;
rightKerningGroup = G;
unicode = 0047;
},
{
glyphname = H;
layers = (
{
anchors = (
{
name = bottom;
position = "{306, 0}";
},
{
name = center;
position = "{367, 438}";
},
{
name = top;
position = "{388, 597}";
}
);
layerId = "9A6463FA-02C3-4660-BEDA-F7CC218AE705";
paths = (
{
closed = 1;
nodes = (
"233 0 LINE",
"237 29 LINE",
"188 27 LINE SMOOTH",
"178 27 OFFCURVE",
"173 32.667 OFFCURVE",
"173 44 CURVE SMOOTH",
"173 49 LINE",
"207 294 LINE",
"488 294 LINE",
"454 49 LINE SMOOTH",
"452 34.333 OFFCURVE",
"445.333 27 OFFCURVE",
"434 27 CURVE SMOOTH",
"385 29 LINE",
"381 0 LINE",
"596 0 LINE",
"600 29 LINE",
"560 27 LINE SMOOTH",
"551.333 27 OFFCURVE",
"547 32 OFFCURVE",
"547 42 CURVE SMOOTH",
"547 49 LINE",
"617 548 LINE SMOOTH",
"619 562 OFFCURVE",
"625.333 569 OFFCURVE",
"636 569 CURVE SMOOTH",
"676 567 LINE",
"680 597 LINE",
"465 597 LINE",
"461 567 LINE",
"510 569 LINE SMOOTH",
"519.333 569 OFFCURVE",
"524 563.667 OFFCURVE",
"524 553 CURVE SMOOTH",
"524 548 LINE",
"492 322 LINE",
"211 322 LINE",
"243 548 LINE SMOOTH",
"245.667 561.333 OFFCURVE",
"253.333 569 OFFCURVE",
"264 569 CURVE SMOOTH",
"313 567 LINE",
"317 597 LINE",
"102 597 LINE",
"98 567 LINE",
"137 569 LINE SMOOTH",
"147 569.667 OFFCURVE",
"152 564.667 OFFCURVE",
"152 554 CURVE",
"151 548 LINE",
"81 49 LINE SMOOTH",
"79 34.333 OFFCURVE",
"72.333 27 OFFCURVE",
"61 27 CURVE SMOOTH",
"22 29 LINE",
"18 0 LINE"
);
}
);
userData = {
assembly = "NPUSHB[ ]	/* 71 values pushed */
42 28 2 11 0 17 4 2 1 4 2 74 0 11 0 4 1 11 4 101 12 10 8 3 0 0 9 93 13 1 9 9 17 75 7 5 3 3 1 1 2 93 6 1 2 2 21 2 76 48 47 46 44 41 40 36 35 34 33 36 33 17 35 18 33 17 36 32 14 7 29 
CALL[ ]	/* CallFunction */";
};
width = 674;
},
{
anchors = (
{
name = bottom;
position = "{316, 0}";
},
{
name = center;
position = "{377, 438}";
},
{
name = top;
position = "{398, 597}";
}
);
layerId = "EC024578-EFD3-4C50-A1DE-0E38CDD8AD0F";
paths = (
{
closed = 1;
nodes = (
"268 0 LINE",
"273 37 LINE",
"224 35 LINE SMOOTH",
"213.333 35 OFFCURVE",
"208 40.667 OFFCURVE",
"208 52 CURVE SMOOTH",
"208 57 LINE",
"240 287 LINE",
"471 287 LINE",
"438 57 LINE SMOOTH",
"436 42.333 OFFCURVE",
"429 35 OFFCURVE",
"417 35 CURVE SMOOTH",
"368 37 LINE",
"363 0 LINE",
"622 0 LINE",
"627 37 LINE",
"592 35 LINE SMOOTH",
"581.333 34.333 OFFCURVE",
"576 39.667 OFFCURVE",
"576 51 CURVE SMOOTH",
"576 57 LINE",
"645 541 LINE SMOOTH",
"647 555.667 OFFCURVE",
"654 562.667 OFFCURVE",
"666 562 CURVE SMOOTH",
"701 560 LINE",
"706 597 LINE",
"447 597 LINE",
"442 560 LINE",
"491 562 LINE SMOOTH",
"501.667 562 OFFCURVE",
"507 556.333 OFFCURVE",
"507 545 CURVE SMOOTH",
"507 541 LINE",
"476 322 LINE",
"245 322 LINE",
"276 541 LINE SMOOTH",
"277.333 553 OFFCURVE",
"285.667 562 OFFCURVE",
"299 562 CURVE SMOOTH",
"347 560 LINE",
"352 597 LINE",
"92 597 LINE",
"87 560 LINE",
"123 562 LINE SMOOTH",
"133.667 562.667 OFFCURVE",
"139 557.667 OFFCURVE",
"139 547 CURVE",
"138 541 LINE",
"70 57 LINE SMOOTH",
"68 42.333 OFFCURVE",
"61.333 35 OFFCURVE",
"50 35 CURVE SMOOTH",
"13 37 LINE",
"8 0 LINE"
);
}
);
userData = {
assembly = "NPUSHB[ ]	/* 70 values pushed */
45 1 11 0 18 5 2 1 4 2 74 0 11 0 4 1 11 4 101 12 10 8 3 0 0 9 93 13 1 9 9 17 75 7 5 3 3 1 1 2 93 6 1 2 2 21 2 76 51 50 49 47 44 43 40 38 37 36 22 49 17 35 18 33 17 37 32 14 7 29 
CALL[ ]	/* CallFunction */";
};
width = 691;
},
{
anchors = (
{
name = bottom;
position = "{302, 0}";
},
{
name = center;
position = "{363, 438}";
},
{
name = top;
position = "{384, 597}";
}
);
layerId = "6E1F4822-938D-406D-B3C9-5D869F42D31A";
paths = (
{
closed = 1;
nodes = (
"217 0 LINE",
"221 25 LINE",
"172 23 LINE SMOOTH",
"162 23 OFFCURVE",
"157 28.667 OFFCURVE",
"157 40 CURVE SMOOTH",
"157 45 LINE",
"192 297 LINE",
"496 297 LINE",
"461 45 LINE SMOOTH",
"459 30.333 OFFCURVE",
"452.667 23 OFFCURVE",
"442 23 CURVE SMOOTH",
"393 25 LINE",
"389 0 LINE",
"584 0 LINE",
"588 25 LINE",
"546 23 LINE",
"537.333 23.667 OFFCURVE",
"533.333 28.667 OFFCURVE",
"534 38 CURVE SMOOTH",
"534 45 LINE",
"605 551 LINE SMOOTH",
"607 565 OFFCURVE",
"613 572 OFFCURVE",
"623 572 CURVE SMOOTH",
"665 570 LINE",
"668 597 LINE",
"473 597 LINE",
"469 570 LINE",
"518 572 LINE SMOOTH",
"527.333 572 OFFCURVE",
"532 567 OFFCURVE",
"532 557 CURVE SMOOTH",
"532 551 LINE",
"499 322 LINE",
"196 322 LINE",
"228 551 LINE",
"232 565.667 OFFCURVE",
"238.667 572 OFFCURVE",
"248 572 CURVE SMOOTH",
"298 570 LINE",
"301 597 LINE",
"106 597 LINE",
"103 570 LINE",
"143 572 LINE SMOOTH",
"153 572.667 OFFCURVE",
"158 567.667 OFFCURVE",
"158 557 CURVE",
"157 551 LINE",
"86 45 LINE SMOOTH",
"84 30.333 OFFCURVE",
"77.333 23 OFFCURVE",
"66 23 CURVE SMOOTH",
"26 25 LINE",
"22 0 LINE"
);
}
);
userData = {
assembly = "NPUSHB[ ]	/* 71 values pushed */
42 28 2 11 0 17 4 2 1 4 2 74 0 11 0 4 1 11 4 101 12 10 8 3 0 0 9 93 13 1 9 9 17 75 7 5 3 3 1 1 2 93 6 1 2 2 21 2 76 48 47 46 44 41 40 36 35 34 33 36 33 17 35 18 33 17 36 32 14 7 29 
CALL[ ]	/* CallFunction */";
};
width = 666;
}
);
note = H;
unicode = 0048;
},
{
glyphname = I;
layers = (
{
anchors = (
{
name = bottom;
position = "{117, 0}";
},
{
name = ogonek;
position = "{121, 0}";
},
{
name = top;
position = "{203, 597}";
}
);
layerId = "9A6463FA-02C3-4660-BEDA-F7CC218AE705";
paths = (
{
closed = 1;
nodes = (
"223 0 LINE",
"227 29 LINE",
"188 27 LINE SMOOTH",
"178 27 OFFCURVE",
"173 32.667 OFFCURVE",
"173 44 CURVE SMOOTH",
"173 49 LINE",
"243 548 LINE SMOOTH",
"245.667 561.333 OFFCURVE",
"253.333 569 OFFCURVE",
"264 569 CURVE SMOOTH",
"303 567 LINE",
"307 597 LINE",
"102 597 LINE",
"98 567 LINE",
"137 569 LINE SMOOTH",
"146.333 569 OFFCURVE",
"151 562.333 OFFCURVE",
"151 553 CURVE SMOOTH",
"151 548 LINE",
"81 49 LINE SMOOTH",
"79 34.333 OFFCURVE",
"72.333 27 OFFCURVE",
"61 27 CURVE SMOOTH",
"22 29 LINE",
"18 0 LINE"
);
}
);
userData = {
assembly = "NPUSHB[ ]	/* 39 values pushed */
16 5 2 1 0 1 74 4 1 0 0 5 93 0 5 5 17 75 3 1 1 1 2 93 0 2 2 21 2 76 17 37 33 17 38 16 6 7 26 
CALL[ ]	/* CallFunction */";
};
width = 301;
},
{
anchors = (
{
name = bottom;
position = "{130, 0}";
},
{
name = ogonek;
position = "{132, 0}";
},
{
name = top;
position = "{219, 597}";
}
);
layerId = "EC024578-EFD3-4C50-A1DE-0E38CDD8AD0F";
paths = (
{
closed = 1;
nodes = (
"255 0 LINE",
"259 37 LINE",
"224 35 LINE SMOOTH",
"213.333 33.667 OFFCURVE",
"208 39.333 OFFCURVE",
"208 52 CURVE SMOOTH",
"208 57 LINE",
"276 541 LINE SMOOTH",
"277.333 553 OFFCURVE",
"287 562 OFFCURVE",
"299 562 CURVE SMOOTH",
"333 560 LINE",
"339 597 LINE",
"92 597 LINE",
"87 560 LINE",
"123 562 LINE SMOOTH",
"132.333 562 OFFCURVE",
"138 555.333 OFFCURVE",
"138 546 CURVE SMOOTH",
"138 541 LINE",
"70 57 LINE SMOOTH",
"68 42.333 OFFCURVE",
"61.333 35 OFFCURVE",
"50 35 CURVE SMOOTH",
"13 37 LINE",
"8 0 LINE"
);
}
);
userData = {
assembly = "NPUSHB[ ]	/* 39 values pushed */
17 5 2 1 0 1 74 4 1 0 0 5 93 0 5 5 17 75 3 1 1 1 2 93 0 2 2 21 2 76 17 37 49 17 22 32 6 7 26 
CALL[ ]	/* CallFunction */";
};
width = 323;
},
{
anchors = (
{
name = bottom;
position = "{111, 0}";
},
{
name = ogonek;
position = "{116, 0}";
},
{
name = top;
position = "{196, 597}";
}
);
layerId = "6E1F4822-938D-406D-B3C9-5D869F42D31A";
paths = (
{
closed = 1;
nodes = (
"209 0 LINE",
"213 25 LINE",
"172 23 LINE",
"162 23.667 OFFCURVE",
"157 29.333 OFFCURVE",
"157 40 CURVE SMOOTH",
"157 45 LINE",
"228 551 LINE",
"232 565.667 OFFCURVE",
"238.667 572 OFFCURVE",
"248 572 CURVE SMOOTH",
"290 570 LINE",
"293 597 LINE",
"106 597 LINE",
"103 570 LINE",
"143 572 LINE SMOOTH",
"152.333 572 OFFCURVE",
"157 565.333 OFFCURVE",
"157 556 CURVE SMOOTH",
"157 551 LINE",
"86 45 LINE SMOOTH",
"84 30.333 OFFCURVE",
"77.333 23 OFFCURVE",
"66 23 CURVE SMOOTH",
"26 25 LINE",
"22 0 LINE"
);
}
);
userData = {
assembly = "NPUSHB[ ]	/* 39 values pushed */
16 5 2 1 0 1 74 4 1 0 0 5 93 0 5 5 17 75 3 1 1 1 2 93 0 2 2 21 2 76 17 37 33 17 38 16 6 7 26 
CALL[ ]	/* CallFunction */";
};
width = 291;
}
);
note = I;
unicode = 0049;
},
{
glyphname = J;
layers = (
{
anchors = (
{
name = top;
position = "{342, 597}";
}
);
layerId = "9A6463FA-02C3-4660-BEDA-F7CC218AE705";
paths = (
{
closed = 1;
nodes = (
"252 -10 OFFCURVE",
"315 53 OFFCURVE",
"333 179 CURVE SMOOTH",
"385 549 LINE SMOOTH",
"387 562.333 OFFCURVE",
"394 569 OFFCURVE",
"406 569 CURVE SMOOTH",
"443 567 LINE",
"447 597 LINE",
"214 597 LINE",
"210 567 LINE",
"279 569 LINE SMOOTH",
"287.667 569 OFFCURVE",
"292 563.667 OFFCURVE",
"292 553 CURVE SMOOTH",
"292 548 LINE",
"240 179 LINE SMOOTH",
"222.667 60.333 OFFCURVE",
"193.333 16 OFFCURVE",
"132 16 CURVE SMOOTH",
"74.667 16 OFFCURVE",
"51 67.667 OFFCURVE",
"51 133 CURVE SMOOTH",
"51 147 OFFCURVE",
"52 160 OFFCURVE",
"54 172 CURVE",
"17 172 LINE",
"-8 -4 LINE",
"1.333 2 OFFCURVE",
"13.333 5 OFFCURVE",
"28 5 CURVE SMOOTH",
"36.667 5 OFFCURVE",
"48.667 3.333 OFFCURVE",
"64 0 CURVE SMOOTH",
"92 -6.667 OFFCURVE",
"118.667 -10 OFFCURVE",
"144 -10 CURVE SMOOTH"
);
}
);
userData = {
assembly = "NPUSHB[ ]	/* 52 values pushed */
23 1 3 0 12 1 1 2 2 74 5 1 0 0 6 93 0 6 6 17 75 0 3 3 2 95 0 2 2 21 75 0 4 4 1 95 0 1 1 26 1 76 17 37 36 18 34 35 32 7 7 27 
CALL[ ]	/* CallFunction */";
};
width = 437;
},
{
anchors = (
{
name = top;
position = "{352, 597}";
}
);
layerId = "EC024578-EFD3-4C50-A1DE-0E38CDD8AD0F";
paths = (
{
closed = 1;
nodes = (
"271.667 -10 OFFCURVE",
"345 53 OFFCURVE",
"363 179 CURVE SMOOTH",
"414 542 LINE SMOOTH",
"415.333 556 OFFCURVE",
"423 562.667 OFFCURVE",
"437 562 CURVE SMOOTH",
"470 560 LINE",
"476 597 LINE",
"197 597 LINE",
"191 560 LINE",
"261 562 LINE SMOOTH",
"271 562 OFFCURVE",
"276 556.333 OFFCURVE",
"276 545 CURVE SMOOTH",
"276 541 LINE",
"225 179 LINE SMOOTH",
"209 65.667 OFFCURVE",
"181 24 OFFCURVE",
"125 24 CURVE SMOOTH",
"78.333 24 OFFCURVE",
"59 70 OFFCURVE",
"59 130 CURVE SMOOTH",
"59 145.333 OFFCURVE",
"60 159.333 OFFCURVE",
"62 172 CURVE",
"18 172 LINE",
"-7 -2 LINE",
"-1 2.667 OFFCURVE",
"11.333 5 OFFCURVE",
"30 5 CURVE SMOOTH",
"35.333 5 OFFCURVE",
"48 3 OFFCURVE",
"68 -1 CURVE SMOOTH",
"98 -7 OFFCURVE",
"123 -10 OFFCURVE",
"143 -10 CURVE SMOOTH"
);
}
);
userData = {
assembly = "NPUSHB[ ]	/* 52 values pushed */
24 1 3 0 13 1 1 2 2 74 5 1 0 0 6 93 0 6 6 17 75 0 3 3 2 95 0 2 2 21 75 0 4 4 1 95 0 1 1 26 1 76 17 37 36 18 34 36 32 7 7 27 
CALL[ ]	/* CallFunction */";
};
width = 455;
},
{
anchors = (
{
name = top;
position = "{338, 597}";
}
);
layerId = "6E1F4822-938D-406D-B3C9-5D869F42D31A";
paths = (
{
closed = 1;
nodes = (
"243.333 -10 OFFCURVE",
"302 53 OFFCURVE",
"320 179 CURVE SMOOTH",
"372 552 LINE SMOOTH",
"374 564.667 OFFCURVE",
"380.667 571.333 OFFCURVE",
"392 572 CURVE",
"431 570 LINE",
"434 597 LINE",
"222 597 LINE",
"218 570 LINE",
"287 572 LINE SMOOTH",
"295 572 OFFCURVE",
"299 567 OFFCURVE",
"299 557 CURVE SMOOTH",
"299 551 LINE",
"247 179 LINE SMOOTH",
"228.333 56.333 OFFCURVE",
"199 12 OFFCURVE",
"135 12 CURVE SMOOTH",
"73.667 12 OFFCURVE",
"47 67.333 OFFCURVE",
"47 134 CURVE SMOOTH",
"47 147.333 OFFCURVE",
"48 160 OFFCURVE",
"50 172 CURVE",
"17 172 LINE",
"-8 -5 LINE",
"2.667 1.667 OFFCURVE",
"14.333 5 OFFCURVE",
"27 5 CURVE SMOOTH",
"37 5 OFFCURVE",
"48.667 3.333 OFFCURVE",
"62 0 CURVE SMOOTH",
"88.667 -6.667 OFFCURVE",
"116 -10 OFFCURVE",
"144 -10 CURVE SMOOTH"
);
}
);
userData = {
assembly = "NPUSHB[ ]	/* 52 values pushed */
23 1 3 0 12 1 1 2 2 74 5 1 0 0 6 93 0 6 6 17 75 0 3 3 2 95 0 2 2 21 75 0 4 4 1 95 0 1 1 26 1 76 17 37 36 18 34 35 32 7 7 27 
CALL[ ]	/* CallFunction */";
};
width = 429;
}
);
note = J;
rightKerningGroup = J;
unicode = 004A;
},
{
glyphname = K;
layers = (
{
anchors = (
{
name = bottom;
position = "{285, 0}";
}
);
layerId = "9A6463FA-02C3-4660-BEDA-F7CC218AE705";
paths = (
{
closed = 1;
nodes = (
"233 0 LINE",
"237 29 LINE",
"188 27 LINE SMOOTH",
"178 27 OFFCURVE",
"173 32.667 OFFCURVE",
"173 44 CURVE SMOOTH",
"173 49 LINE",
"199 234 LINE",
"262 298 LINE",
"401 52 LINE SMOOTH",
"403 48 OFFCURVE",
"404 44.333 OFFCURVE",
"404 41 CURVE SMOOTH",
"404 31.667 OFFCURVE",
"398.667 27 OFFCURVE",
"388 27 CURVE SMOOTH",
"334 30 LINE",
"330 0 LINE",
"562 0 LINE",
"566 30 LINE",
"544 28 OFFCURVE",
"532.667 27 OFFCURVE",
"532 27 CURVE SMOOTH",
"524 27 OFFCURVE",
"517.333 31.667 OFFCURVE",
"512 41 CURVE SMOOTH",
"328 365 LINE",
"499 540 LINE SMOOTH",
"519 560 OFFCURVE",
"537 569.667 OFFCURVE",
"553 569 CURVE SMOOTH",
"592 567 LINE",
"596 597 LINE",
"421 597 LINE",
"417 567 LINE",
"459 569 LINE SMOOTH",
"463.667 569 OFFCURVE",
"466 566.667 OFFCURVE",
"466 562 CURVE SMOOTH",
"466 558.667 OFFCURVE",
"463.667 554 OFFCURVE",
"459 548 CURVE",
"206 281 LINE",
"243 547 LINE SMOOTH",
"245 561.667 OFFCURVE",
"252 569 OFFCURVE",
"264 569 CURVE SMOOTH",
"313 567 LINE",
"317 597 LINE",
"102 597 LINE",
"98 567 LINE",
"137 569 LINE SMOOTH",
"146.333 569 OFFCURVE",
"151 563.667 OFFCURVE",
"151 553 CURVE SMOOTH",
"151 548 LINE",
"81 49 LINE SMOOTH",
"79 34.333 OFFCURVE",
"72.333 27 OFFCURVE",
"61 27 CURVE SMOOTH",
"22 29 LINE",
"18 0 LINE"
);
}
);
userData = {
assembly = "NPUSHB[ ]	/* 64 values pushed */
40 29 18 16 13 7 2 7 0 6 1 74 12 11 9 8 4 6 6 7 93 10 1 7 7 17 75 5 3 2 3 0 0 1 93 4 1 1 1 21 1 76 0 0 0 50 0 49 48 47 46 44 33 17 36 33 17 40 33 19 20 13 7 29 
CALL[ ]	/* CallFunction */";
};
width = 598;
},
{
anchors = (
{
name = bottom;
position = "{288, 0}";
}
);
layerId = "EC024578-EFD3-4C50-A1DE-0E38CDD8AD0F";
paths = (
{
closed = 1;
nodes = (
"265 0 LINE",
"269 37 LINE",
"224 35 LINE SMOOTH",
"213.333 33.667 OFFCURVE",
"208 39.333 OFFCURVE",
"208 52 CURVE SMOOTH",
"208 57 LINE",
"231 224 LINE",
"272 265 LINE",
"380 59 LINE SMOOTH",
"382 54.333 OFFCURVE",
"383 50.333 OFFCURVE",
"383 47 CURVE SMOOTH",
"383.667 37.667 OFFCURVE",
"377.667 33.333 OFFCURVE",
"365 34 CURVE SMOOTH",
"319 37 LINE",
"314 0 LINE",
"598 0 LINE",
"603 37 LINE",
"593 35 OFFCURVE",
"583 34 OFFCURVE",
"573 34 CURVE SMOOTH",
"563.667 34 OFFCURVE",
"556.333 38.667 OFFCURVE",
"551 48 CURVE SMOOTH",
"380 373 LINE",
"540 533 LINE SMOOTH",
"560.667 553.667 OFFCURVE",
"580.667 563.333 OFFCURVE",
"600 562 CURVE SMOOTH",
"635 560 LINE",
"640 597 LINE",
"462 597 LINE",
"456 560 LINE",
"493 562 LINE SMOOTH",
"498.333 562 OFFCURVE",
"501 559.667 OFFCURVE",
"501 555 CURVE SMOOTH",
"501 550.333 OFFCURVE",
"495.333 541.667 OFFCURVE",
"484 529 CURVE SMOOTH",
"239 279 LINE",
"275 540 LINE SMOOTH",
"277.667 554.667 OFFCURVE",
"285.667 562 OFFCURVE",
"299 562 CURVE SMOOTH",
"347 560 LINE",
"352 597 LINE",
"92 597 LINE",
"87 560 LINE",
"123 562 LINE SMOOTH",
"133 562 OFFCURVE",
"138 556.667 OFFCURVE",
"138 546 CURVE SMOOTH",
"138 541 LINE",
"70 57 LINE SMOOTH",
"68 42.333 OFFCURVE",
"61.333 35 OFFCURVE",
"50 35 CURVE SMOOTH",
"13 37 LINE",
"8 0 LINE"
);
}
);
userData = {
assembly = "NPUSHB[ ]	/* 63 values pushed */
45 33 21 19 8 3 6 0 6 1 74 12 11 9 8 4 6 6 7 93 10 1 7 7 17 75 5 3 2 3 0 0 1 93 4 1 1 1 21 1 76 0 0 0 55 0 54 53 52 51 49 33 17 37 49 17 26 49 18 37 13 7 29 
CALL[ ]	/* CallFunction */";
};
width = 634;
},
{
anchors = (
{
name = bottom;
position = "{284, 0}";
}
);
layerId = "6E1F4822-938D-406D-B3C9-5D869F42D31A";
paths = (
{
closed = 1;
nodes = (
"219 0 LINE",
"223 25 LINE",
"172 23 LINE",
"162 23.667 OFFCURVE",
"157 29.333 OFFCURVE",
"157 40 CURVE SMOOTH",
"157 45 LINE",
"185 238 LINE",
"258 313 LINE",
"410 49 LINE SMOOTH",
"412 45 OFFCURVE",
"413 41.333 OFFCURVE",
"413 38 CURVE SMOOTH",
"413 29.333 OFFCURVE",
"408 24.667 OFFCURVE",
"398 24 CURVE",
"341 27 LINE",
"337 0 LINE",
"546 0 LINE",
"550 27 LINE",
"522.667 25 OFFCURVE",
"510.667 24 OFFCURVE",
"514 24 CURVE SMOOTH",
"506.667 24 OFFCURVE",
"500.333 28.667 OFFCURVE",
"495 38 CURVE SMOOTH",
"305 361 LINE",
"481 543 LINE SMOOTH",
"501 563 OFFCURVE",
"518 572.667 OFFCURVE",
"532 572 CURVE SMOOTH",
"573 570 LINE",
"576 597 LINE",
"403 597 LINE",
"400 570 LINE",
"444 572 LINE SMOOTH",
"448 572 OFFCURVE",
"450 569.667 OFFCURVE",
"450 565 CURVE SMOOTH",
"450 562.333 OFFCURVE",
"449.333 559.333 OFFCURVE",
"448 556 CURVE",
"191 282 LINE",
"229 550 LINE SMOOTH",
"230.333 564 OFFCURVE",
"236.667 571.333 OFFCURVE",
"248 572 CURVE",
"298 570 LINE",
"301 597 LINE",
"106 597 LINE",
"103 570 LINE",
"143 572 LINE SMOOTH",
"152.333 572 OFFCURVE",
"157 566.667 OFFCURVE",
"157 556 CURVE SMOOTH",
"157 551 LINE",
"86 45 LINE SMOOTH",
"84 30.333 OFFCURVE",
"77.333 23 OFFCURVE",
"66 23 CURVE SMOOTH",
"26 25 LINE",
"22 0 LINE"
);
}
);
userData = {
assembly = "NPUSHB[ ]	/* 64 values pushed */
40 29 18 16 13 7 2 7 0 6 1 74 12 11 9 8 4 6 6 7 93 10 1 7 7 17 75 5 3 2 3 0 0 1 93 4 1 1 1 21 1 76 0 0 0 50 0 49 48 47 46 44 33 17 36 33 17 40 33 19 20 13 7 29 
CALL[ ]	/* CallFunction */";
};
width = 582;
}
);
note = K;
unicode = 004B;
},
{
glyphname = L;
layers = (
{
anchors = (
{
name = bottom;
position = "{233, 0}";
},
{
name = center;
position = "{160, 267}";
},
{
name = top;
position = "{204, 597}";
},
{
name = topright;
position = "{329, 424}";
}
);
layerId = "9A6463FA-02C3-4660-BEDA-F7CC218AE705";
paths = (
{
closed = 1;
nodes = (
"471 171 LINE",
"443 171 LINE",
"429.667 77.667 OFFCURVE",
"377 28 OFFCURVE",
"289 28 CURVE SMOOTH",
"180 28 LINE SMOOTH",
"174.667 28 OFFCURVE",
"172 31.333 OFFCURVE",
"172 38 CURVE SMOOTH",
"172 41 LINE",
"243 548 LINE SMOOTH",
"245.667 561.333 OFFCURVE",
"253.333 569 OFFCURVE",
"264 569 CURVE SMOOTH",
"313 567 LINE",
"317 597 LINE",
"102 597 LINE",
"98 567 LINE",
"137 569 LINE SMOOTH",
"146.333 569 OFFCURVE",
"151 562.667 OFFCURVE",
"151 552 CURVE SMOOTH",
"151 548 LINE",
"81 49 LINE SMOOTH",
"78.333 34.333 OFFCURVE",
"73 27 OFFCURVE",
"65 27 CURVE SMOOTH",
"22 30 LINE",
"18 0 LINE",
"326 0 LINE SMOOTH",
"394 0 OFFCURVE",
"434.333 -1 OFFCURVE",
"447 -3 CURVE"
);
}
);
userData = {
assembly = "NPUSHB[ ]	/* 51 values pushed */
22 1 2 0 5 1 1 2 2 74 0 2 0 1 0 2 1 126 5 1 0 0 6 93 0 6 6 17 75 4 1 1 1 3 93 0 3 3 21 3 76 17 37 33 34 18 54 16 7 7 27 
CALL[ ]	/* CallFunction */";
};
width = 498;
},
{
anchors = (
{
name = bottom;
position = "{239, 0}";
},
{
name = center;
position = "{166, 267}";
},
{
name = top;
position = "{210, 597}";
},
{
name = topright;
position = "{331, 418}";
}
);
layerId = "EC024578-EFD3-4C50-A1DE-0E38CDD8AD0F";
paths = (
{
closed = 1;
nodes = (
"482 171 LINE",
"448 171 LINE",
"436 83 OFFCURVE",
"383.333 36 OFFCURVE",
"298 36 CURVE SMOOTH",
"216 36 LINE SMOOTH",
"210 36 OFFCURVE",
"207 39.333 OFFCURVE",
"207 46 CURVE SMOOTH",
"207 49 LINE",
"276 541 LINE SMOOTH",
"277.333 553 OFFCURVE",
"287 562 OFFCURVE",
"299 562 CURVE SMOOTH",
"347 560 LINE",
"352 597 LINE",
"92 597 LINE",
"87 560 LINE",
"123 562 LINE SMOOTH",
"132.333 562 OFFCURVE",
"138 554.333 OFFCURVE",
"138 545 CURVE SMOOTH",
"138 541 LINE",
"70 57 LINE",
"69.333 41 OFFCURVE",
"63.333 33.667 OFFCURVE",
"52 35 CURVE SMOOTH",
"14 38 LINE",
"8 0 LINE",
"335 0 LINE SMOOTH",
"405 0 OFFCURVE",
"446 -1 OFFCURVE",
"458 -3 CURVE"
);
}
);
userData = {
assembly = "NPUSHB[ ]	/* 50 values pushed */
23 1 2 0 18 5 2 1 2 2 74 0 2 0 1 0 2 1 126 4 1 0 0 5 93 0 5 5 17 75 0 1 1 3 93 0 3 3 21 3 76 17 41 34 18 53 32 6 7 26 
CALL[ ]	/* CallFunction */";
};
width = 510;
},
{
anchors = (
{
name = bottom;
position = "{230, 0}";
},
{
name = center;
position = "{157, 267}";
},
{
name = top;
position = "{201, 597}";
},
{
name = topright;
position = "{328, 427}";
}
);
layerId = "6E1F4822-938D-406D-B3C9-5D869F42D31A";
paths = (
{
closed = 1;
nodes = (
"466 171 LINE",
"441 171 LINE",
"426.333 73.667 OFFCURVE",
"374.333 24 OFFCURVE",
"285 24 CURVE SMOOTH",
"164 24 LINE SMOOTH",
"158.667 24 OFFCURVE",
"156 27.333 OFFCURVE",
"156 34 CURVE SMOOTH",
"156 37 LINE",
"228 551 LINE",
"232 565.667 OFFCURVE",
"238.667 572 OFFCURVE",
"248 572 CURVE SMOOTH",
"298 570 LINE",
"301 597 LINE",
"106 597 LINE",
"103 570 LINE",
"143 572 LINE SMOOTH",
"152.333 572 OFFCURVE",
"157 567 OFFCURVE",
"157 555 CURVE SMOOTH",
"157 551 LINE",
"86 45 LINE",
"82.667 31.667 OFFCURVE",
"77.667 24.333 OFFCURVE",
"71 23 CURVE",
"26 26 LINE",
"22 0 LINE",
"322 0 LINE SMOOTH",
"389.333 0 OFFCURVE",
"429.333 -1 OFFCURVE",
"442 -3 CURVE"
);
}
);
userData = {
assembly = "NPUSHB[ ]	/* 51 values pushed */
22 1 2 0 5 1 1 2 2 74 0 2 0 1 0 2 1 126 5 1 0 0 6 93 0 6 6 17 75 4 1 1 1 3 93 0 3 3 21 3 76 17 37 33 34 18 54 16 7 7 27 
CALL[ ]	/* CallFunction */";
};
width = 493;
}
);
note = L;
rightKerningGroup = L;
unicode = 004C;
},
{
glyphname = M;
layers = (
{
layerId = "9A6463FA-02C3-4660-BEDA-F7CC218AE705";
paths = (
{
closed = 1;
nodes = (
"376 -10 LINE",
"675 513 LINE",
"610 49 LINE SMOOTH",
"608 34.333 OFFCURVE",
"601.333 27 OFFCURVE",
"590 27 CURVE SMOOTH",
"541 29 LINE",
"537 0 LINE",
"752 0 LINE",
"756 29 LINE",
"717 27 LINE SMOOTH",
"707 27 OFFCURVE",
"702 32.333 OFFCURVE",
"702 43 CURVE SMOOTH",
"702 49 LINE",
"772 549 LINE",
"774.667 561 OFFCURVE",
"782.333 569 OFFCURVE",
"793 569 CURVE SMOOTH",
"827 567 LINE",
"831 597 LINE",
"687 597 LINE",
"410 115 LINE",
"255 597 LINE",
"104 597 LINE",
"100 567 LINE",
"145 569 LINE SMOOTH",
"149 569 OFFCURVE",
"150.333 567 OFFCURVE",
"149 563 CURVE",
"77 49 LINE SMOOTH",
"75 34.333 OFFCURVE",
"68 27 OFFCURVE",
"56 27 CURVE SMOOTH",
"17 29 LINE",
"13 0 LINE",
"171 0 LINE",
"175 29 LINE",
"126 27 LINE SMOOTH",
"117.333 27 OFFCURVE",
"113 32 OFFCURVE",
"113 42 CURVE SMOOTH",
"113 49 LINE",
"179 520 LINE",
"350 -10 LINE"
);
}
);
userData = {
assembly = "NPUSHB[ ]	/* 58 values pushed */
37 20 19 16 5 5 1 0 1 74 8 1 0 0 9 93 10 1 9 9 17 75 7 5 3 3 1 1 2 93 6 1 2 2 21 75 0 4 4 18 4 76 39 38 36 35 20 33 17 36 19 33 17 38 16 11 7 29 
CALL[ ]	/* CallFunction */";
};
width = 830;
},
{
layerId = "EC024578-EFD3-4C50-A1DE-0E38CDD8AD0F";
paths = (
{
closed = 1;
nodes = (
"389 -10 LINE",
"688 502 LINE",
"625 57 LINE SMOOTH",
"623 42.333 OFFCURVE",
"615.667 35 OFFCURVE",
"603 35 CURVE SMOOTH",
"554 37 LINE",
"549 0 LINE",
"809 0 LINE",
"814 37 LINE",
"779 35 LINE SMOOTH",
"767.667 33.667 OFFCURVE",
"762 39.333 OFFCURVE",
"762 52 CURVE SMOOTH",
"762 57 LINE",
"831 542 LINE SMOOTH",
"832.333 552.667 OFFCURVE",
"841 562 OFFCURVE",
"853 562 CURVE SMOOTH",
"883 560 LINE",
"888 597 LINE",
"702 597 LINE",
"445 160 LINE",
"300 597 LINE",
"94 597 LINE",
"89 560 LINE",
"132 562 LINE SMOOTH",
"137.333 562 OFFCURVE",
"140 560 OFFCURVE",
"140 556 CURVE",
"70 57 LINE SMOOTH",
"68 42.333 OFFCURVE",
"60.333 35 OFFCURVE",
"47 35 CURVE SMOOTH",
"8 37 LINE",
"3 0 LINE",
"171 0 LINE",
"176 37 LINE",
"127 35 LINE SMOOTH",
"117 35 OFFCURVE",
"112 40 OFFCURVE",
"112 50 CURVE SMOOTH",
"112 57 LINE",
"177 525 LINE",
"357 -10 LINE"
);
}
);
userData = {
assembly = "NPUSHB[ ]	/* 58 values pushed */
37 20 19 16 5 5 1 0 1 74 8 1 0 0 9 93 10 1 9 9 17 75 7 5 3 3 1 1 2 93 6 1 2 2 21 75 0 4 4 18 4 76 39 38 36 35 20 33 17 36 19 33 17 22 32 11 7 29 
CALL[ ]	/* CallFunction */";
};
width = 877;
},
{
layerId = "6E1F4822-938D-406D-B3C9-5D869F42D31A";
paths = (
{
closed = 1;
nodes = (
"370 -10 LINE",
"669 518 LINE",
"603 45 LINE SMOOTH",
"601 30.333 OFFCURVE",
"594.667 23 OFFCURVE",
"584 23 CURVE SMOOTH",
"535 25 LINE",
"532 0 LINE",
"727 0 LINE",
"730 25 LINE",
"689 23 LINE",
"679.667 23.667 OFFCURVE",
"675 29 OFFCURVE",
"675 39 CURVE SMOOTH",
"675 45 LINE",
"746 552 LINE",
"748.667 564 OFFCURVE",
"756.667 572 OFFCURVE",
"766 572 CURVE SMOOTH",
"802 570 LINE",
"806 597 LINE",
"680 597 LINE",
"394 95 LINE",
"235 597 LINE",
"108 597 LINE",
"105 570 LINE",
"151 572 LINE SMOOTH",
"154.333 572 OFFCURVE",
"155 570 OFFCURVE",
"153 566 CURVE",
"80 45 LINE SMOOTH",
"78 30.333 OFFCURVE",
"71.333 23 OFFCURVE",
"60 23 CURVE SMOOTH",
"21 25 LINE",
"17 0 LINE",
"171 0 LINE",
"175 25 LINE",
"126 23 LINE SMOOTH",
"117.333 23 OFFCURVE",
"113 28 OFFCURVE",
"113 38 CURVE SMOOTH",
"113 45 LINE",
"180 518 LINE",
"347 -10 LINE"
);
}
);
userData = {
assembly = "NPUSHB[ ]	/* 58 values pushed */
37 20 19 16 5 5 1 0 1 74 8 1 0 0 9 93 10 1 9 9 17 75 7 5 3 3 1 1 2 93 6 1 2 2 21 75 0 4 4 18 4 76 39 38 36 35 20 33 17 36 19 33 17 38 16 11 7 29 
CALL[ ]	/* CallFunction */";
};
width = 809;
}
);
note = M;
unicode = 004D;
},
{
glyphname = N;
layers = (
{
anchors = (
{
name = bottom;
position = "{293, 0}";
},
{
name = top;
position = "{376, 597}";
}
);
layerId = "9A6463FA-02C3-4660-BEDA-F7CC218AE705";
paths = (
{
closed = 1;
nodes = (
"511 -6 LINE",
"589 548 LINE SMOOTH",
"591 562 OFFCURVE",
"597 569 OFFCURVE",
"607 569 CURVE SMOOTH",
"648 567 LINE",
"652 597 LINE",
"493 597 LINE",
"489 567 LINE",
"541 569 LINE SMOOTH",
"548.333 569 OFFCURVE",
"552.667 564.333 OFFCURVE",
"554 555 CURVE",
"553 549 LINE",
"498 158 LINE",
"249 597 LINE",
"97 597 LINE",
"93 567 LINE",
"132 569 LINE SMOOTH",
"141.333 569 OFFCURVE",
"147 562.333 OFFCURVE",
"147 553 CURVE",
"77 49 LINE SMOOTH",
"75 34.333 OFFCURVE",
"68 27 OFFCURVE",
"56 27 CURVE SMOOTH",
"17 29 LINE",
"13 0 LINE",
"171 0 LINE",
"175 29 LINE",
"126 27 LINE SMOOTH",
"117.333 27 OFFCURVE",
"113 32 OFFCURVE",
"113 42 CURVE SMOOTH",
"113 49 LINE",
"179 521 LINE",
"479 -6 LINE"
);
}
);
userData = {
assembly = "NPUSHB[ ]	/* 10 values pushed */
27 26 18 7 6 5 2 0 1 74 
MPPEM[ ]	/* MeasurePixelPerEm */
PUSHB[ ]	/* 1 value pushed */
10 
LT[ ]	/* LessThan */
IF[ ]	/* If */
NPUSHB[ ]	/* 26 values pushed */
7 5 2 0 0 6 93 8 1 6 6 17 75 4 1 2 2 1 93 3 1 1 1 18 1 76 
ELSE[ ]	/* Else */
NPUSHB[ ]	/* 30 values pushed */
7 5 2 0 0 6 93 8 1 6 6 17 75 4 1 2 2 3 93 0 3 3 21 75 0 1 1 18 1 76 
EIF[ ]	/* EndIf */
NPUSHB[ ]	/* 12 values pushed */
17 36 17 37 33 17 36 18 32 9 7 29 
CALL[ ]	/* CallFunction */";
};
width = 641;
},
{
anchors = (
{
name = bottom;
position = "{314, 0}";
},
{
name = top;
position = "{397, 597}";
}
);
layerId = "EC024578-EFD3-4C50-A1DE-0E38CDD8AD0F";
paths = (
{
closed = 1;
nodes = (
"550 -6 LINE",
"628 548 LINE SMOOTH",
"630 562 OFFCURVE",
"636.667 569 OFFCURVE",
"648 569 CURVE SMOOTH",
"689 567 LINE",
"693 597 LINE",
"525 597 LINE",
"521 567 LINE",
"573 569 LINE SMOOTH",
"581.667 569 OFFCURVE",
"586 564 OFFCURVE",
"586 554 CURVE SMOOTH",
"586 549 LINE",
"535 184 LINE",
"293 597 LINE",
"87 597 LINE",
"83 567 LINE",
"122 569 LINE SMOOTH",
"132.667 570.333 OFFCURVE",
"139 562.333 OFFCURVE",
"139 553 CURVE",
"69 49 LINE SMOOTH",
"67 34.333 OFFCURVE",
"59.333 27 OFFCURVE",
"46 27 CURVE SMOOTH",
"7 29 LINE",
"3 0 LINE",
"171 0 LINE",
"175 29 LINE",
"126 27 LINE SMOOTH",
"116 27 OFFCURVE",
"111 32.333 OFFCURVE",
"111 43 CURVE SMOOTH",
"111 49 LINE",
"177 524 LINE",
"490 -6 LINE"
);
}
);
userData = {
assembly = "NPUSHB[ ]	/* 9 values pushed */
26 25 7 6 4 2 0 1 74 
MPPEM[ ]	/* MeasurePixelPerEm */
PUSHB[ ]	/* 1 value pushed */
38 
LT[ ]	/* LessThan */
IF[ ]	/* If */
NPUSHB[ ]	/* 26 values pushed */
7 5 2 0 0 6 93 8 1 6 6 17 75 4 1 2 2 1 93 3 1 1 1 18 1 76 
ELSE[ ]	/* Else */
NPUSHB[ ]	/* 30 values pushed */
7 5 2 0 0 6 93 8 1 6 6 17 75 4 1 2 2 3 93 0 3 3 21 75 0 1 1 18 1 76 
EIF[ ]	/* EndIf */
NPUSHB[ ]	/* 12 values pushed */
17 36 17 21 33 17 36 18 32 9 7 29 
CALL[ ]	/* CallFunction */";
};
width = 672;
},
{
anchors = (
{
name = bottom;
position = "{284, 0}";
},
{
name = top;
position = "{367, 597}";
}
);
layerId = "6E1F4822-938D-406D-B3C9-5D869F42D31A";
paths = (
{
closed = 1;
nodes = (
"494 -6 LINE",
"572 548 LINE SMOOTH",
"574 562 OFFCURVE",
"579.667 569 OFFCURVE",
"589 569 CURVE SMOOTH",
"630 567 LINE",
"634 597 LINE",
"479 597 LINE",
"475 567 LINE",
"527 569 LINE SMOOTH",
"533.667 569 OFFCURVE",
"538 564.333 OFFCURVE",
"540 555 CURVE",
"538 549 LINE",
"482 146 LINE",
"229 597 LINE",
"101 597 LINE",
"97 567 LINE",
"136 569 LINE SMOOTH",
"144 569 OFFCURVE",
"151 562.333 OFFCURVE",
"151 553 CURVE",
"81 49 LINE SMOOTH",
"79 34.333 OFFCURVE",
"72 27 OFFCURVE",
"60 27 CURVE SMOOTH",
"21 29 LINE",
"17 0 LINE",
"171 0 LINE",
"175 29 LINE",
"126 27 LINE SMOOTH",
"118 27 OFFCURVE",
"114 32 OFFCURVE",
"114 42 CURVE SMOOTH",
"114 49 LINE",
"180 520 LINE",
"474 -6 LINE"
);
}
);
userData = {
assembly = "NPUSHB[ ]	/* 10 values pushed */
27 26 18 7 6 5 2 0 1 74 
MPPEM[ ]	/* MeasurePixelPerEm */
PUSHB[ ]	/* 1 value pushed */
10 
LT[ ]	/* LessThan */
IF[ ]	/* If */
NPUSHB[ ]	/* 26 values pushed */
7 5 2 0 0 6 93 8 1 6 6 17 75 4 1 2 2 1 93 3 1 1 1 18 1 76 
ELSE[ ]	/* Else */
NPUSHB[ ]	/* 30 values pushed */
7 5 2 0 0 6 93 8 1 6 6 17 75 4 1 2 2 3 93 0 3 3 21 75 0 1 1 18 1 76 
EIF[ ]	/* EndIf */
NPUSHB[ ]	/* 12 values pushed */
17 36 17 37 33 17 36 18 32 9 7 29 
CALL[ ]	/* CallFunction */";
};
width = 627;
}
);
note = N;
unicode = 004E;
},
{
color = 3;
glyphname = Eng;
layers = (
{
layerId = "9A6463FA-02C3-4660-BEDA-F7CC218AE705";
paths = (
{
closed = 1;
nodes = (
"511 -6 LINE",
"589 548 LINE SMOOTH",
"591 562 OFFCURVE",
"597 569 OFFCURVE",
"607 569 CURVE SMOOTH",
"648 567 LINE",
"652 597 LINE",
"493 597 LINE",
"489 567 LINE",
"541 569 LINE SMOOTH",
"548.333 569 OFFCURVE",
"552.667 564.333 OFFCURVE",
"554 555 CURVE",
"553 549 LINE",
"498 158 LINE",
"249 597 LINE",
"97 597 LINE",
"93 567 LINE",
"132 569 LINE SMOOTH",
"141.333 569 OFFCURVE",
"147 562.333 OFFCURVE",
"147 553 CURVE",
"77 49 LINE SMOOTH",
"75 34.333 OFFCURVE",
"68 27 OFFCURVE",
"56 27 CURVE SMOOTH",
"17 29 LINE",
"13 0 LINE",
"171 0 LINE",
"175 29 LINE",
"126 27 LINE SMOOTH",
"117.333 27 OFFCURVE",
"113 32 OFFCURVE",
"113 42 CURVE SMOOTH",
"113 49 LINE",
"179 521 LINE",
"479 -6 LINE"
);
},
{
closed = 1;
nodes = (
"429.667 -243 OFFCURVE",
"488.333 -163.333 OFFCURVE",
"511 -4 CURVE SMOOTH",
"526 100 LINE",
"440 100 LINE",
"418 -59 LINE SMOOTH",
"415.333 -79.667 OFFCURVE",
"412.333 -104.333 OFFCURVE",
"409 -133 CURVE SMOOTH",
"402.333 -188.333 OFFCURVE",
"381 -216 OFFCURVE",
"345 -216 CURVE SMOOTH",
"326.333 -216 OFFCURVE",
"317 -207.667 OFFCURVE",
"317 -191 CURVE SMOOTH",
"317 -188.333 OFFCURVE",
"318.667 -183.333 OFFCURVE",
"322 -176 CURVE SMOOTH",
"325.333 -168.667 OFFCURVE",
"327.333 -163.333 OFFCURVE",
"328 -160 CURVE SMOOTH",
"332 -138.667 OFFCURVE",
"312 -132 OFFCURVE",
"296 -132 CURVE SMOOTH",
"268 -132 OFFCURVE",
"247 -149.333 OFFCURVE",
"243 -176 CURVE SMOOTH",
"237.667 -213.333 OFFCURVE",
"273.667 -243 OFFCURVE",
"335 -243 CURVE SMOOTH"
);
}
);
width = 641;
},
{
layerId = "EC024578-EFD3-4C50-A1DE-0E38CDD8AD0F";
paths = (
{
closed = 1;
nodes = (
"550 -6 LINE",
"628 548 LINE SMOOTH",
"630 562 OFFCURVE",
"636.667 569 OFFCURVE",
"648 569 CURVE SMOOTH",
"689 567 LINE",
"693 597 LINE",
"525 597 LINE",
"521 567 LINE",
"573 569 LINE SMOOTH",
"581.667 569 OFFCURVE",
"586 564 OFFCURVE",
"586 554 CURVE SMOOTH",
"586 549 LINE",
"535 184 LINE",
"293 597 LINE",
"87 597 LINE",
"83 567 LINE",
"122 569 LINE SMOOTH",
"132.667 570.333 OFFCURVE",
"139 562.333 OFFCURVE",
"139 553 CURVE",
"69 49 LINE SMOOTH",
"67 34.333 OFFCURVE",
"59.333 27 OFFCURVE",
"46 27 CURVE SMOOTH",
"7 29 LINE",
"3 0 LINE",
"171 0 LINE",
"175 29 LINE",
"126 27 LINE SMOOTH",
"116 27 OFFCURVE",
"111 32.333 OFFCURVE",
"111 43 CURVE SMOOTH",
"111 49 LINE",
"177 524 LINE",
"490 -6 LINE"
);
},
{
closed = 1;
nodes = (
"464.333 -243 OFFCURVE",
"527.667 -166 OFFCURVE",
"549 -12 CURVE SMOOTH",
"569 132 LINE",
"438 132 LINE",
"415 -37 LINE SMOOTH",
"409 -79 OFFCURVE",
"406.667 -118.667 OFFCURVE",
"408 -156 CURVE SMOOTH",
"409.333 -190 OFFCURVE",
"396 -207.667 OFFCURVE",
"368 -209 CURVE SMOOTH",
"352 -209.667 OFFCURVE",
"346 -201.333 OFFCURVE",
"350 -184 CURVE SMOOTH",
"350.667 -181.333 OFFCURVE",
"352.5 -176.333 OFFCURVE",
"355.5 -169 CURVE SMOOTH",
"358.5 -161.667 OFFCURVE",
"360 -156.333 OFFCURVE",
"360 -153 CURVE SMOOTH",
"360 -119.667 OFFCURVE",
"336 -108 OFFCURVE",
"312 -108 CURVE SMOOTH",
"273.333 -108 OFFCURVE",
"245.333 -131.333 OFFCURVE",
"240 -166 CURVE SMOOTH",
"233.333 -212.667 OFFCURVE",
"277.667 -243 OFFCURVE",
"359 -243 CURVE SMOOTH"
);
}
);
width = 672;
},
{
layerId = "6E1F4822-938D-406D-B3C9-5D869F42D31A";
paths = (
{
closed = 1;
nodes = (
"494 -6 LINE",
"572 548 LINE SMOOTH",
"574 562 OFFCURVE",
"579.667 569 OFFCURVE",
"589 569 CURVE SMOOTH",
"630 567 LINE",
"634 597 LINE",
"479 597 LINE",
"475 567 LINE",
"527 569 LINE SMOOTH",
"533.667 569 OFFCURVE",
"538 564.333 OFFCURVE",
"540 555 CURVE",
"538 549 LINE",
"482 146 LINE",
"229 597 LINE",
"101 597 LINE",
"97 567 LINE",
"136 569 LINE SMOOTH",
"144 569 OFFCURVE",
"151 562.333 OFFCURVE",
"151 553 CURVE",
"81 49 LINE SMOOTH",
"79 34.333 OFFCURVE",
"72 27 OFFCURVE",
"60 27 CURVE SMOOTH",
"21 29 LINE",
"17 0 LINE",
"171 0 LINE",
"175 29 LINE",
"126 27 LINE SMOOTH",
"118 27 OFFCURVE",
"114 32 OFFCURVE",
"114 42 CURVE SMOOTH",
"114 49 LINE",
"180 520 LINE",
"474 -6 LINE"
);
},
{
closed = 1;
nodes = (
"414 -243 OFFCURVE",
"470.667 -162 OFFCURVE",
"494 0 CURVE SMOOTH",
"507 86 LINE",
"441 86 LINE",
"419 -69 LINE SMOOTH",
"417.667 -80.333 OFFCURVE",
"414.333 -98.333 OFFCURVE",
"409 -123 CURVE SMOOTH",
"399 -187 OFFCURVE",
"374.333 -219 OFFCURVE",
"335 -219 CURVE SMOOTH",
"315.667 -219 OFFCURVE",
"304.667 -210.667 OFFCURVE",
"302 -194 CURVE SMOOTH",
"302 -192 OFFCURVE",
"303.833 -187 OFFCURVE",
"307.5 -179 CURVE SMOOTH",
"311.167 -171 OFFCURVE",
"313.333 -165.667 OFFCURVE",
"314 -163 CURVE SMOOTH",
"319.333 -148.333 OFFCURVE",
"301 -143 OFFCURVE",
"289 -143 CURVE SMOOTH",
"265 -143 OFFCURVE",
"248 -156 OFFCURVE",
"244 -180 CURVE SMOOTH",
"240 -213.333 OFFCURVE",
"272 -243 OFFCURVE",
"324 -243 CURVE SMOOTH"
);
}
);
width = 627;
}
);
unicode = 014A;
},
{
color = 3;
glyphname = Nhookleft;
layers = (
{
layerId = "9A6463FA-02C3-4660-BEDA-F7CC218AE705";
paths = (
{
closed = 1;
nodes = (
"511 -6 LINE",
"589 548 LINE SMOOTH",
"591 562 OFFCURVE",
"597 569 OFFCURVE",
"607 569 CURVE SMOOTH",
"648 567 LINE",
"652 597 LINE",
"493 597 LINE",
"489 567 LINE",
"541 569 LINE SMOOTH",
"548.333 569 OFFCURVE",
"552.667 564.333 OFFCURVE",
"554 555 CURVE",
"553 549 LINE",
"498 158 LINE",
"249 597 LINE",
"97 597 LINE",
"93 567 LINE",
"132 569 LINE SMOOTH",
"141.333 569 OFFCURVE",
"147 562.333 OFFCURVE",
"147 553 CURVE",
"176 523 LINE",
"479 -6 LINE"
);
},
{
closed = 1;
nodes = (
"35.333 -243 OFFCURVE",
"75.333 -198.333 OFFCURVE",
"88 -109 CURVE SMOOTH",
"187 597 LINE",
"153 597 LINE",
"63 -46 LINE SMOOTH",
"60.333 -66.667 OFFCURVE",
"57.333 -91.333 OFFCURVE",
"54 -120 CURVE SMOOTH",
"46.667 -184 OFFCURVE",
"24.667 -216 OFFCURVE",
"-12 -216 CURVE SMOOTH",
"-30.667 -216 OFFCURVE",
"-40 -207.667 OFFCURVE",
"-40 -191 CURVE SMOOTH",
"-40 -188.333 OFFCURVE",
"-38.333 -183.333 OFFCURVE",
"-35 -176 CURVE SMOOTH",
"-31.667 -168.667 OFFCURVE",
"-29.667 -163.333 OFFCURVE",
"-29 -160 CURVE SMOOTH",
"-25 -138.667 OFFCURVE",
"-44 -132 OFFCURVE",
"-60 -132 CURVE SMOOTH",
"-88 -132 OFFCURVE",
"-110 -149.333 OFFCURVE",
"-114 -176 CURVE SMOOTH",
"-119.333 -213.333 OFFCURVE",
"-93.333 -243 OFFCURVE",
"-32 -243 CURVE SMOOTH"
);
}
);
width = 641;
},
{
layerId = "EC024578-EFD3-4C50-A1DE-0E38CDD8AD0F";
paths = (
{
closed = 1;
nodes = (
"550 -6 LINE",
"628 548 LINE SMOOTH",
"630 562 OFFCURVE",
"636.667 569 OFFCURVE",
"648 569 CURVE SMOOTH",
"689 567 LINE",
"693 597 LINE",
"525 597 LINE",
"521 567 LINE",
"573 569 LINE SMOOTH",
"581.667 569 OFFCURVE",
"586 564 OFFCURVE",
"586 554 CURVE SMOOTH",
"586 549 LINE",
"535 184 LINE",
"293 597 LINE",
"87 597 LINE",
"83 567 LINE",
"122 569 LINE SMOOTH",
"132.667 570.333 OFFCURVE",
"139 562.333 OFFCURVE",
"139 553 CURVE",
"176 525 LINE",
"490 -6 LINE"
);
},
{
closed = 1;
nodes = (
"35.333 -243 OFFCURVE",
"73.333 -206 OFFCURVE",
"84 -132 CURVE SMOOTH",
"186 597 LINE",
"145 597 LINE",
"62 3 LINE SMOOTH",
"56 -39 OFFCURVE",
"53.667 -78.667 OFFCURVE",
"55 -116 CURVE SMOOTH",
"57 -178 OFFCURVE",
"42 -209 OFFCURVE",
"10 -209 CURVE SMOOTH",
"-2.667 -209 OFFCURVE",
"-9 -200.667 OFFCURVE",
"-9 -184 CURVE SMOOTH",
"-9 -181.333 OFFCURVE",
"-7.333 -176.333 OFFCURVE",
"-4 -169 CURVE SMOOTH",
"-0.667 -161.667 OFFCURVE",
"1.333 -156.333 OFFCURVE",
"2 -153 CURVE SMOOTH",
"8.667 -119.667 OFFCURVE",
"-23 -108 OFFCURVE",
"-47 -108 CURVE SMOOTH",
"-85.667 -108 OFFCURVE",
"-114 -131.333 OFFCURVE",
"-118 -166 CURVE SMOOTH",
"-122 -206 OFFCURVE",
"-96.667 -243 OFFCURVE",
"-30 -243 CURVE SMOOTH"
);
}
);
width = 672;
},
{
layerId = "6E1F4822-938D-406D-B3C9-5D869F42D31A";
paths = (
{
closed = 1;
nodes = (
"494 -6 LINE",
"572 548 LINE SMOOTH",
"574 562 OFFCURVE",
"579.667 569 OFFCURVE",
"589 569 CURVE SMOOTH",
"630 567 LINE",
"634 597 LINE",
"479 597 LINE",
"475 567 LINE",
"527 569 LINE SMOOTH",
"533.667 569 OFFCURVE",
"538 564.333 OFFCURVE",
"540 555 CURVE",
"538 549 LINE",
"482 146 LINE",
"229 597 LINE",
"101 597 LINE",
"97 567 LINE",
"136 569 LINE SMOOTH",
"144 569 OFFCURVE",
"151 562.333 OFFCURVE",
"151 553 CURVE",
"176 522 LINE",
"474 -6 LINE"
);
},
{
closed = 1;
nodes = (
"35 -243 OFFCURVE",
"76 -195 OFFCURVE",
"90 -99 CURVE SMOOTH",
"187 597 LINE",
"157 597 LINE",
"63 -68 LINE",
"62.333 -78.667 OFFCURVE",
"59.333 -96.667 OFFCURVE",
"54 -122 CURVE SMOOTH",
"42 -187.333 OFFCURVE",
"16.667 -219.667 OFFCURVE",
"-22 -219 CURVE SMOOTH",
"-43.333 -219 OFFCURVE",
"-54 -210.667 OFFCURVE",
"-54 -194 CURVE SMOOTH",
"-54 -191.333 OFFCURVE",
"-52.333 -186.333 OFFCURVE",
"-49 -179 CURVE SMOOTH",
"-45.667 -171.667 OFFCURVE",
"-43.667 -166.333 OFFCURVE",
"-43 -163 CURVE SMOOTH",
"-40.333 -148.333 OFFCURVE",
"-52.667 -143 OFFCURVE",
"-66 -143 CURVE SMOOTH",
"-88.667 -143 OFFCURVE",
"-108 -157.333 OFFCURVE",
"-112 -180 CURVE SMOOTH",
"-118.667 -217.333 OFFCURVE",
"-91.667 -243 OFFCURVE",
"-33 -243 CURVE SMOOTH"
);
}
);
width = 627;
}
);
unicode = 019D;
},
{
glyphname = O;
layers = (
{
anchors = (
{
name = bottom;
position = "{293, 0}";
},
{
name = center;
position = "{335, 299}";
},
{
name = ogonek;
position = "{389, 0}";
},
{
name = top;
position = "{377, 597}";
},
{
name = topright;
position = "{397, 597}";
}
);
background = {
paths = (
{
closed = 1;
nodes = (
"50 98 OFFCURVE",
"200 -10 OFFCURVE",
"293 -10 QCURVE SMOOTH",
"364 -10 OFFCURVE",
"512 47 OFFCURVE",
"623 209 OFFCURVE",
"623 356 QCURVE SMOOTH",
"623 501 OFFCURVE",
"472 607 OFFCURVE",
"379 607 QCURVE SMOOTH",
"308 607 OFFCURVE",
"160 551 OFFCURVE",
"50 389 OFFCURVE",
"50 242 QCURVE SMOOTH"
);
},
{
closed = 1;
nodes = (
"148 335 OFFCURVE",
"189 443 QCURVE SMOOTH",
"240 580 OFFCURVE",
"366 580 QCURVE SMOOTH",
"423 580 OFFCURVE",
"491 543 OFFCURVE",
"524 457 OFFCURVE",
"524 383 QCURVE SMOOTH",
"524 247 OFFCURVE",
"478 139 QCURVE SMOOTH",
"425 17 OFFCURVE",
"306 17 QCURVE SMOOTH",
"250 17 OFFCURVE",
"181 54 OFFCURVE",
"148 140 OFFCURVE",
"148 215 QCURVE SMOOTH"
);
}
);
};
layerId = "9A6463FA-02C3-4660-BEDA-F7CC218AE705";
paths = (
{
closed = 1;
nodes = (
"474 -10 OFFCURVE",
"623 98 OFFCURVE",
"623 356 CURVE SMOOTH",
"623 543 OFFCURVE",
"507 607 OFFCURVE",
"379 607 CURVE SMOOTH",
"168 607 OFFCURVE",
"50 456 OFFCURVE",
"50 242 CURVE SMOOTH",
"50 57 OFFCURVE",
"176 -10 OFFCURVE",
"293 -10 CURVE SMOOTH"
);
},
{
closed = 1;
nodes = (
"187 17 OFFCURVE",
"148 75 OFFCURVE",
"148 215 CURVE SMOOTH",
"148 365 OFFCURVE",
"194 580 OFFCURVE",
"366 580 CURVE SMOOTH",
"482 580 OFFCURVE",
"524 526 OFFCURVE",
"524 383 CURVE SMOOTH",
"524 223 OFFCURVE",
"478 17 OFFCURVE",
"306 17 CURVE SMOOTH"
);
}
);
userData = {
assembly = "NPUSHB[ ]	/* 28 values pushed */
0 3 3 0 95 0 0 0 25 75 0 2 2 1 95 0 1 1 26 1 76 38 37 37 34 4 7 24 
CALL[ ]	/* CallFunction */";
};
width = 649;
},
{
anchors = (
{
name = bottom;
position = "{303, 0}";
},
{
name = center;
position = "{345, 299}";
},
{
name = ogonek;
position = "{408, 0}";
},
{
name = top;
position = "{387, 597}";
},
{
name = topright;
position = "{429, 597}";
}
);
background = {
paths = (
{
closed = 1;
nodes = (
"39 119 OFFCURVE",
"184 -10 OFFCURVE",
"308 -10 QCURVE SMOOTH",
"407 -10 OFFCURVE",
"568 73 OFFCURVE",
"662 234 OFFCURVE",
"662 345 QCURVE SMOOTH",
"662 479 OFFCURVE",
"518 607 OFFCURVE",
"393 607 QCURVE SMOOTH",
"294 607 OFFCURVE",
"133 526 OFFCURVE",
"39 366 OFFCURVE",
"39 254 QCURVE SMOOTH"
);
},
{
closed = 1;
nodes = (
"185 244 OFFCURVE",
"203 371 OFFCURVE",
"220 425 QCURVE SMOOTH",
"242 496 OFFCURVE",
"319 573 OFFCURVE",
"386 573 QCURVE SMOOTH",
"459 573 OFFCURVE",
"516 481 OFFCURVE",
"516 401 QCURVE SMOOTH",
"516 346 OFFCURVE",
"495 215 OFFCURVE",
"477 161 QCURVE SMOOTH",
"455 95 OFFCURVE",
"381 25 OFFCURVE",
"317 25 QCURVE SMOOTH",
"244 25 OFFCURVE",
"186 109 OFFCURVE",
"185 188 QCURVE"
);
}
);
};
layerId = "EC024578-EFD3-4C50-A1DE-0E38CDD8AD0F";
paths = (
{
closed = 1;
nodes = (
"516 -10 OFFCURVE",
"662 127 OFFCURVE",
"662 345 CURVE SMOOTH",
"662 524 OFFCURVE",
"560 607 OFFCURVE",
"393 607 CURVE SMOOTH",
"192 607 OFFCURVE",
"39 481 OFFCURVE",
"39 254 CURVE SMOOTH",
"39 74 OFFCURVE",
"143 -10 OFFCURVE",
"308 -10 CURVE SMOOTH"
);
},
{
closed = 1;
nodes = (
"220 25 OFFCURVE",
"185 83 OFFCURVE",
"185 188 CURVE SMOOTH",
"185 324 OFFCURVE",
"213 573 OFFCURVE",
"386 573 CURVE SMOOTH",
"483 573 OFFCURVE",
"516 508 OFFCURVE",
"516 401 CURVE SMOOTH",
"516 268 OFFCURVE",
"486 25 OFFCURVE",
"317 25 CURVE SMOOTH"
);
}
);
userData = {
assembly = "NPUSHB[ ]	/* 28 values pushed */
0 3 3 0 95 0 0 0 25 75 0 2 2 1 95 0 1 1 26 1 76 39 36 37 34 4 7 24 
CALL[ ]	/* CallFunction */";
};
width = 677;
},
{
anchors = (
{
name = bottom;
position = "{289, 0}";
},
{
name = center;
position = "{331, 299}";
},
{
name = ogonek;
position = "{381, 0}";
},
{
name = top;
position = "{373, 597}";
},
{
name = topright;
position = "{383, 597}";
}
);
layerId = "6E1F4822-938D-406D-B3C9-5D869F42D31A";
paths = (
{
closed = 1;
nodes = (
"436 -10 OFFCURVE",
"606 64 OFFCURVE",
"606 361 CURVE SMOOTH",
"606 552 OFFCURVE",
"484 607 OFFCURVE",
"373 607 CURVE SMOOTH",
"154 607 OFFCURVE",
"55 440 OFFCURVE",
"55 237 CURVE SMOOTH",
"55 49 OFFCURVE",
"190 -10 OFFCURVE",
"286 -10 CURVE SMOOTH"
);
},
{
closed = 1;
nodes = (
"173 13 OFFCURVE",
"132 71 OFFCURVE",
"132 227 CURVE SMOOTH",
"132 382 OFFCURVE",
"185 583 OFFCURVE",
"357 583 CURVE SMOOTH",
"481 583 OFFCURVE",
"528 534 OFFCURVE",
"528 375 CURVE SMOOTH",
"528 211 OFFCURVE",
"476 13 OFFCURVE",
"301 13 CURVE SMOOTH"
);
}
);
userData = {
assembly = "NPUSHB[ ]	/* 28 values pushed */
0 3 3 0 95 0 0 0 25 75 0 2 2 1 95 0 1 1 26 1 76 38 37 37 34 4 7 24 
CALL[ ]	/* CallFunction */";
};
width = 637;
}
);
leftKerningGroup = C;
note = O;
rightKerningGroup = D;
unicode = 004F;
},
{
glyphname = OE;
layers = (
{
layerId = "9A6463FA-02C3-4660-BEDA-F7CC218AE705";
paths = (
{
closed = 1;
nodes = (
"332 -10 OFFCURVE",
"377.333 -6.667 OFFCURVE",
"434 0 CURVE",
"675 0 LINE SMOOTH",
"716.333 0 OFFCURVE",
"745.333 -1 OFFCURVE",
"762 -3 CURVE",
"787 179 LINE",
"758 179 LINE",
"744.667 81.667 OFFCURVE",
"691 27 OFFCURVE",
"603 27 CURVE SMOOTH",
"492 27 LINE SMOOTH",
"486 27 OFFCURVE",
"483 30.333 OFFCURVE",
"483 37 CURVE",
"519 297 LINE",
"591 297 LINE SMOOTH",
"625.667 297 OFFCURVE",
"651 265 OFFCURVE",
"651 217 CURVE SMOOTH",
"651 213 OFFCURVE",
"650.333 205.667 OFFCURVE",
"649 195 CURVE",
"678 195 LINE",
"711 426 LINE",
"682 426 LINE",
"672.667 363.333 OFFCURVE",
"637.667 324 OFFCURVE",
"595 324 CURVE SMOOTH",
"523 324 LINE",
"555 555 LINE SMOOTH",
"556.333 564.333 OFFCURVE",
"560.667 569 OFFCURVE",
"568 569 CURVE SMOOTH",
"659 569 LINE SMOOTH",
"741.667 569 OFFCURVE",
"779 542.667 OFFCURVE",
"779 476 CURVE SMOOTH",
"779 466 OFFCURVE",
"778 455 OFFCURVE",
"776 443 CURVE",
"805 443 LINE",
"827 597 LINE",
"510 597 LINE SMOOTH",
"492 597 OFFCURVE",
"473 598.667 OFFCURVE",
"453 602 CURVE SMOOTH",
"422.333 605.333 OFFCURVE",
"400.333 607 OFFCURVE",
"387 607 CURVE SMOOTH",
"159 607 OFFCURVE",
"50 467.667 OFFCURVE",
"50 237 CURVE SMOOTH",
"50 78.333 OFFCURVE",
"138 -10 OFFCURVE",
"298 -10 CURVE SMOOTH"
);
},
{
closed = 1;
nodes = (
"192.667 18 OFFCURVE",
"144 77.333 OFFCURVE",
"144 212 CURVE SMOOTH",
"144 302 OFFCURVE",
"153.333 372 OFFCURVE",
"172 422 CURVE",
"204.667 528 OFFCURVE",
"273 581 OFFCURVE",
"377 581 CURVE SMOOTH",
"429 581 OFFCURVE",
"467 556.667 OFFCURVE",
"463 526 CURVE SMOOTH",
"402 90 LINE SMOOTH",
"395.333 42 OFFCURVE",
"360.667 18 OFFCURVE",
"298 18 CURVE SMOOTH"
);
}
);
userData = {
assembly = "PUSHB[ ]	/* 6 values pushed */
30 1 7 8 1 74 
MPPEM[ ]	/* MeasurePixelPerEm */
PUSHB[ ]	/* 1 value pushed */
10 
LT[ ]	/* LessThan */
IF[ ]	/* If */
NPUSHB[ ]	/* 78 values pushed */
0 1 2 4 2 1 112 0 5 6 8 6 5 8 126 0 8 7 6 8 7 124 0 3 0 6 5 3 6 101 15 1 13 13 11 95 14 1 11 11 25 75 0 2 2 0 93 0 0 0 17 75 0 4 4 20 75 0 7 7 9 93 0 9 9 21 75 0 12 12 10 95 0 10 10 26 10 76 
ELSE[ ]	/* Else */
NPUSHB[ ]	/* 79 values pushed */
0 1 2 4 2 1 4 126 0 5 6 8 6 5 8 126 0 8 7 6 8 7 124 0 3 0 6 5 3 6 101 15 1 13 13 11 95 14 1 11 11 25 75 0 2 2 0 93 0 0 0 17 75 0 4 4 20 75 0 7 7 9 93 0 9 9 21 75 0 12 12 10 95 0 10 10 26 10 76 
EIF[ ]	/* EndIf */
NPUSHB[ ]	/* 30 values pushed */
52 52 0 0 52 65 52 64 59 57 0 51 0 50 46 44 43 40 18 51 36 17 18 34 52 17 35 16 7 29 
CALL[ ]	/* CallFunction */";
};
width = 834;
},
{
background = {
paths = (
{
closed = 1;
nodes = (
"284 607 OFFCURVE",
"123 517 OFFCURVE",
"39 357 OFFCURVE",
"39 253 QCURVE SMOOTH",
"39 123 OFFCURVE",
"178 -10 OFFCURVE",
"309 -10 QCURVE SMOOTH",
"335 -10 OFFCURVE",
"415 0 QCURVE",
"718 0 LINE SMOOTH",
"791 0 OFFCURVE",
"813 -3 QCURVE",
"838 179 LINE",
"803 179 LINE",
"793 110 OFFCURVE",
"712 35 OFFCURVE",
"645 35 QCURVE SMOOTH",
"542 35 LINE SMOOTH",
"533 35 OFFCURVE",
"533 45 QCURVE SMOOTH",
"533 48 LINE",
"566 290 LINE",
"632 290 LINE SMOOTH",
"659 290 OFFCURVE",
"695 245 OFFCURVE",
"695 210 QCURVE SMOOTH",
"695 197 OFFCURVE",
"694 191 QCURVE",
"729 191 LINE",
"762 426 LINE",
"727 426 LINE",
"720 379 OFFCURVE",
"671 325 OFFCURVE",
"638 325 QCURVE SMOOTH",
"572 325 LINE",
"603 548 LINE SMOOTH",
"605 562 OFFCURVE",
"617 562 QCURVE SMOOTH",
"690 562 LINE SMOOTH",
"755 562 OFFCURVE",
"815 519 OFFCURVE",
"815 471 QCURVE SMOOTH",
"815 463 OFFCURVE",
"813 443 QCURVE",
"848 443 LINE",
"870 598 LINE",
"502 598 LINE SMOOTH",
"487 598 OFFCURVE",
"453 602 QCURVE",
"423 607 OFFCURVE",
"395 607 QCURVE SMOOTH"
);
},
{
closed = 1;
nodes = (
"428 573 OFFCURVE",
"463 548 OFFCURVE",
"464 529 QCURVE",
"400 78 LINE",
"379 25 OFFCURVE",
"315 25 QCURVE SMOOTH",
"243 25 OFFCURVE",
"185 110 OFFCURVE",
"184 187 QCURVE",
"184 244 OFFCURVE",
"199 367 OFFCURVE",
"216 420 QCURVE SMOOTH",
"238 493 OFFCURVE",
"317 573 OFFCURVE",
"388 573 QCURVE SMOOTH"
);
}
);
};
layerId = "EC024578-EFD3-4C50-A1DE-0E38CDD8AD0F";
paths = (
{
closed = 1;
nodes = (
"326.333 -10 OFFCURVE",
"361.667 -6.667 OFFCURVE",
"415 0 CURVE",
"718 0 LINE SMOOTH",
"766.667 0 OFFCURVE",
"798.333 -1 OFFCURVE",
"813 -3 CURVE",
"838 179 LINE",
"803 179 LINE",
"789.667 87 OFFCURVE",
"734.333 35 OFFCURVE",
"645 35 CURVE SMOOTH",
"542 35 LINE SMOOTH",
"536 35 OFFCURVE",
"533 38.333 OFFCURVE",
"533 45 CURVE",
"566 290 LINE",
"632 290 LINE SMOOTH",
"668 290 OFFCURVE",
"695 256.667 OFFCURVE",
"695 210 CURVE SMOOTH",
"695 201.333 OFFCURVE",
"694.667 195 OFFCURVE",
"694 191 CURVE",
"729 191 LINE",
"762 426 LINE",
"727 426 LINE",
"717.667 363.333 OFFCURVE",
"682 325 OFFCURVE",
"638 325 CURVE SMOOTH",
"572 325 LINE",
"603 548 LINE SMOOTH",
"604.333 557.333 OFFCURVE",
"609 562 OFFCURVE",
"617 562 CURVE SMOOTH",
"690 562 LINE SMOOTH",
"776.667 562 OFFCURVE",
"815 535 OFFCURVE",
"815 471 CURVE SMOOTH",
"815 465.667 OFFCURVE",
"814.333 456.333 OFFCURVE",
"813 443 CURVE",
"848 443 LINE",
"870 598 LINE",
"502 598 LINE SMOOTH",
"492 598 OFFCURVE",
"475.667 599.333 OFFCURVE",
"453 602 CURVE SMOOTH",
"433 605.333 OFFCURVE",
"413.667 607 OFFCURVE",
"395 607 CURVE SMOOTH",
"180.333 607 OFFCURVE",
"39 470.333 OFFCURVE",
"39 253 CURVE SMOOTH",
"39 79.667 OFFCURVE",
"134.333 -10 OFFCURVE",
"309 -10 CURVE SMOOTH"
);
},
{
closed = 1;
nodes = (
"219 25 OFFCURVE",
"185.333 84.333 OFFCURVE",
"184 187 CURVE SMOOTH",
"185.333 273.667 OFFCURVE",
"196 351.333 OFFCURVE",
"216 420 CURVE SMOOTH",
"245.333 521.333 OFFCURVE",
"302.667 572.333 OFFCURVE",
"388 573 CURVE SMOOTH",
"441.333 573 OFFCURVE",
"462.667 554.333 OFFCURVE",
"464 529 CURVE",
"400 78 LINE",
"386 42.667 OFFCURVE",
"357.667 25 OFFCURVE",
"315 25 CURVE SMOOTH"
);
}
);
userData = {
assembly = "NPUSHB[ ]	/* 10 values pushed */
62 1 1 2 29 1 7 8 2 74 
MPPEM[ ]	/* MeasurePixelPerEm */
PUSHB[ ]	/* 1 value pushed */
10 
LT[ ]	/* LessThan */
IF[ ]	/* If */
NPUSHB[ ]	/* 78 values pushed */
0 1 2 4 2 1 112 0 5 6 8 6 5 8 126 0 8 7 6 8 7 124 0 3 0 6 5 3 6 103 15 1 13 13 11 95 14 1 11 11 25 75 0 2 2 0 93 0 0 0 17 75 0 4 4 20 75 0 7 7 9 94 0 9 9 21 75 0 12 12 10 95 0 10 10 26 10 76 
ELSE[ ]	/* Else */
NPUSHB[ ]	/* 79 values pushed */
0 1 2 4 2 1 4 126 0 5 6 8 6 5 8 126 0 8 7 6 8 7 124 0 3 0 6 5 3 6 103 15 1 13 13 11 95 14 1 11 11 25 75 0 2 2 0 93 0 0 0 17 75 0 4 4 20 75 0 7 7 9 94 0 9 9 21 75 0 12 12 10 95 0 10 10 26 10 76 
EIF[ ]	/* EndIf */
NPUSHB[ ]	/* 30 values pushed */
51 51 0 0 51 65 51 64 60 58 0 50 0 49 44 42 41 39 18 51 36 17 18 34 52 17 34 16 7 29 
CALL[ ]	/* CallFunction */";
};
width = 887;
},
{
layerId = "6E1F4822-938D-406D-B3C9-5D869F42D31A";
paths = (
{
closed = 1;
nodes = (
"334.333 -10 OFFCURVE",
"384 -6.667 OFFCURVE",
"442 0 CURVE",
"656 0 LINE SMOOTH",
"694 0 OFFCURVE",
"721.667 -1 OFFCURVE",
"739 -3 CURVE",
"764 179 LINE",
"738 179 LINE",
"724.667 79 OFFCURVE",
"672 23 OFFCURVE",
"584 23 CURVE SMOOTH",
"470 23 LINE SMOOTH",
"464 23 OFFCURVE",
"461 26.333 OFFCURVE",
"461 33 CURVE",
"498 300 LINE",
"573 300 LINE SMOOTH",
"606.333 300 OFFCURVE",
"631 269.333 OFFCURVE",
"631 220 CURVE SMOOTH",
"631 218 OFFCURVE",
"630.333 210.333 OFFCURVE",
"629 197 CURVE",
"655 197 LINE",
"688 426 LINE",
"662 426 LINE",
"652.667 363.333 OFFCURVE",
"617.333 324 OFFCURVE",
"576 324 CURVE SMOOTH",
"501 324 LINE",
"534 558 LINE SMOOTH",
"535.333 567.333 OFFCURVE",
"539.333 572 OFFCURVE",
"546 572 CURVE SMOOTH",
"645 572 LINE SMOOTH",
"726.333 572 OFFCURVE",
"763 546 OFFCURVE",
"763 478 CURVE SMOOTH",
"763 466 OFFCURVE",
"762 454.333 OFFCURVE",
"760 443 CURVE",
"786 443 LINE",
"808 597 LINE",
"514 597 LINE SMOOTH",
"492 597 OFFCURVE",
"471.667 598.667 OFFCURVE",
"453 602 CURVE SMOOTH",
"417.667 605.333 OFFCURVE",
"394.333 607 OFFCURVE",
"383 607 CURVE SMOOTH",
"149.667 607 OFFCURVE",
"55 466 OFFCURVE",
"55 230 CURVE SMOOTH",
"55 78 OFFCURVE",
"139.667 -10 OFFCURVE",
"293 -10 CURVE SMOOTH"
);
},
{
closed = 1;
nodes = (
"180.667 15 OFFCURVE",
"126 75 OFFCURVE",
"126 223 CURVE SMOOTH",
"125.333 315 OFFCURVE",
"134 381.667 OFFCURVE",
"152 423 CURVE",
"186 530.333 OFFCURVE",
"259.333 584.333 OFFCURVE",
"372 585 CURVE SMOOTH",
"424 585 OFFCURVE",
"468.333 557 OFFCURVE",
"463 525 CURVE SMOOTH",
"403 95 LINE",
"399.667 42.333 OFFCURVE",
"362 15.667 OFFCURVE",
"290 15 CURVE SMOOTH"
);
}
);
userData = {
assembly = "PUSHB[ ]	/* 6 values pushed */
30 1 7 8 1 74 
MPPEM[ ]	/* MeasurePixelPerEm */
PUSHB[ ]	/* 1 value pushed */
10 
LT[ ]	/* LessThan */
IF[ ]	/* If */
NPUSHB[ ]	/* 78 values pushed */
0 1 2 4 2 1 112 0 5 6 8 6 5 8 126 0 8 7 6 8 7 124 0 3 0 6 5 3 6 101 15 1 13 13 11 95 14 1 11 11 25 75 0 2 2 0 93 0 0 0 17 75 0 4 4 20 75 0 7 7 9 93 0 9 9 21 75 0 12 12 10 95 0 10 10 26 10 76 
ELSE[ ]	/* Else */
NPUSHB[ ]	/* 79 values pushed */
0 1 2 4 2 1 4 126 0 5 6 8 6 5 8 126 0 8 7 6 8 7 124 0 3 0 6 5 3 6 101 15 1 13 13 11 95 14 1 11 11 25 75 0 2 2 0 93 0 0 0 17 75 0 4 4 20 75 0 7 7 9 93 0 9 9 21 75 0 12 12 10 95 0 10 10 26 10 76 
EIF[ ]	/* EndIf */
NPUSHB[ ]	/* 30 values pushed */
52 52 0 0 52 65 52 64 59 57 0 51 0 50 46 44 43 40 18 51 36 17 18 34 52 17 35 16 7 29 
CALL[ ]	/* CallFunction */";
};
width = 810;
}
);
leftKerningGroup = C;
note = OE;
unicode = 0152;
},
{
glyphname = P;
layers = (
{
layerId = "9A6463FA-02C3-4660-BEDA-F7CC218AE705";
paths = (
{
closed = 1;
nodes = (
"233 0 LINE",
"237 29 LINE",
"188 27 LINE SMOOTH",
"178 27 OFFCURVE",
"173 32.667 OFFCURVE",
"173 44 CURVE SMOOTH",
"173 49 LINE",
"203 263 LINE",
"303 263 LINE SMOOTH",
"425.146 263 OFFCURVE",
"507 344.4 OFFCURVE",
"507 463 CURVE SMOOTH",
"507 552.333 OFFCURVE",
"450 597 OFFCURVE",
"330 597 CURVE SMOOTH",
"102 597 LINE",
"98 567 LINE",
"136 569 LINE SMOOTH",
"146.667 569 OFFCURVE",
"152 564 OFFCURVE",
"152 554 CURVE SMOOTH",
"151 547 LINE",
"81 49 LINE SMOOTH",
"79 34.333 OFFCURVE",
"72.333 27 OFFCURVE",
"61 27 CURVE SMOOTH",
"22 29 LINE",
"18 0 LINE"
);
},
{
closed = 1;
nodes = (
"244 557 LINE SMOOTH",
"245.333 563.667 OFFCURVE",
"252 569 OFFCURVE",
"256 569 CURVE SMOOTH",
"310 569 LINE SMOOTH",
"372.667 569 OFFCURVE",
"411 524.667 OFFCURVE",
"411 458 CURVE SMOOTH",
"411 362.588 OFFCURVE",
"351.762 291 OFFCURVE",
"287 291 CURVE SMOOTH",
"207 291 LINE"
);
}
);
userData = {
assembly = "NPUSHB[ ]	/* 61 values pushed */
8 1 1 0 1 74 0 6 0 0 1 6 0 101 9 7 2 4 4 5 93 8 1 5 5 17 75 3 1 1 1 2 93 0 2 2 21 2 76 27 27 0 0 27 39 27 38 33 31 0 26 0 25 22 33 17 35 37 10 7 25 
CALL[ ]	/* CallFunction */";
};
width = 507;
},
{
layerId = "EC024578-EFD3-4C50-A1DE-0E38CDD8AD0F";
paths = (
{
closed = 1;
nodes = (
"268 0 LINE",
"273 37 LINE",
"224 35 LINE SMOOTH",
"213.333 35 OFFCURVE",
"208 40.667 OFFCURVE",
"208 52 CURVE SMOOTH",
"208 57 LINE",
"235 248 LINE",
"331 248 LINE SMOOTH",
"463.68 248 OFFCURVE",
"552 331.616 OFFCURVE",
"552 456 CURVE SMOOTH",
"552 550.667 OFFCURVE",
"487.667 597 OFFCURVE",
"353 597 CURVE SMOOTH",
"92 597 LINE",
"87 560 LINE",
"120 562 LINE SMOOTH",
"132.667 562.667 OFFCURVE",
"139 557.667 OFFCURVE",
"139 547 CURVE SMOOTH",
"138 540 LINE",
"70 57 LINE SMOOTH",
"68 42.333 OFFCURVE",
"61.333 35 OFFCURVE",
"50 35 CURVE SMOOTH",
"13 37 LINE",
"8 0 LINE"
);
},
{
closed = 1;
nodes = (
"277 550 LINE SMOOTH",
"278.333 556.667 OFFCURVE",
"285.667 562 OFFCURVE",
"291 562 CURVE SMOOTH",
"330 562 LINE SMOOTH",
"378 562 OFFCURVE",
"407 520.333 OFFCURVE",
"407 455 CURVE SMOOTH",
"407 363.418 OFFCURVE",
"355.026 284 OFFCURVE",
"293 284 CURVE SMOOTH",
"239 284 LINE"
);
}
);
userData = {
assembly = "NPUSHB[ ]	/* 65 values pushed */
20 1 6 4 8 1 1 0 2 74 0 6 0 0 1 6 0 101 9 7 2 4 4 5 93 8 1 5 5 17 75 3 1 1 1 2 93 0 2 2 21 2 76 27 27 0 0 27 39 27 38 33 31 0 26 0 25 36 49 17 35 37 10 7 25 
CALL[ ]	/* CallFunction */";
};
width = 544;
},
{
layerId = "6E1F4822-938D-406D-B3C9-5D869F42D31A";
paths = (
{
closed = 1;
nodes = (
"217 0 LINE",
"221 25 LINE",
"172 23 LINE SMOOTH",
"162 23 OFFCURVE",
"157 28.667 OFFCURVE",
"157 40 CURVE SMOOTH",
"157 45 LINE",
"189 270 LINE",
"291 270 LINE SMOOTH",
"408.291 270 OFFCURVE",
"487 350.089 OFFCURVE",
"487 466 CURVE SMOOTH",
"487 552.667 OFFCURVE",
"433.333 597 OFFCURVE",
"320 597 CURVE SMOOTH",
"106 597 LINE",
"103 570 LINE",
"143 572 LINE SMOOTH",
"152.333 572 OFFCURVE",
"157.333 567 OFFCURVE",
"158 557 CURVE",
"157 550 LINE",
"86 45 LINE SMOOTH",
"84 30.333 OFFCURVE",
"77.333 23 OFFCURVE",
"66 23 CURVE SMOOTH",
"26 25 LINE",
"22 0 LINE"
);
},
{
closed = 1;
nodes = (
"229 560 LINE SMOOTH",
"230.333 566.667 OFFCURVE",
"237.333 572 OFFCURVE",
"240 572 CURVE SMOOTH",
"301 572 LINE SMOOTH",
"370.333 572 OFFCURVE",
"413 527 OFFCURVE",
"413 459 CURVE SMOOTH",
"413 369.697 OFFCURVE",
"355.544 294 OFFCURVE",
"284 294 CURVE SMOOTH",
"193 294 LINE"
);
}
);
userData = {
assembly = "NPUSHB[ ]	/* 61 values pushed */
8 1 1 0 1 74 0 6 0 0 1 6 0 101 9 7 2 4 4 5 93 8 1 5 5 17 75 3 1 1 1 2 93 0 2 2 21 2 76 27 27 0 0 27 39 27 38 33 31 0 26 0 25 22 33 17 35 37 10 7 25 
CALL[ ]	/* CallFunction */";
};
width = 491;
}
);
note = P;
rightKerningGroup = P;
unicode = 0050;
},
{
glyphname = Thorn;
layers = (
{
layerId = "9A6463FA-02C3-4660-BEDA-F7CC218AE705";
paths = (
{
closed = 1;
nodes = (
"233 0 LINE",
"237 29 LINE",
"188 27 LINE SMOOTH",
"178 26.333 OFFCURVE",
"173 31.333 OFFCURVE",
"173 42 CURVE SMOOTH",
"174 49 LINE",
"190 162 LINE",
"288 162 LINE SMOOTH",
"413.333 162 OFFCURVE",
"494 242 OFFCURVE",
"494 362 CURVE SMOOTH",
"494 454 OFFCURVE",
"436.667 496 OFFCURVE",
"314 496 CURVE SMOOTH",
"237 496 LINE",
"244 548 LINE SMOOTH",
"246.667 560 OFFCURVE",
"254.667 569 OFFCURVE",
"264 569 CURVE SMOOTH",
"313 567 LINE",
"317 597 LINE",
"102 597 LINE",
"98 567 LINE",
"137 569 LINE SMOOTH",
"146.333 569 OFFCURVE",
"151 563.667 OFFCURVE",
"151 553 CURVE SMOOTH",
"151 548 LINE",
"81 49 LINE SMOOTH",
"79 34.333 OFFCURVE",
"72.333 27 OFFCURVE",
"61 27 CURVE SMOOTH",
"22 29 LINE",
"18 0 LINE"
);
},
{
closed = 1;
nodes = (
"198.667 188 OFFCURVE",
"195 192.333 OFFCURVE",
"195 199 CURVE SMOOTH",
"195 201 LINE",
"233 471 LINE",
"295 471 LINE SMOOTH",
"360.333 471 OFFCURVE",
"398 426.333 OFFCURVE",
"398 357 CURVE SMOOTH",
"398 259.777 OFFCURVE",
"330.143 188 OFFCURVE",
"270 188 CURVE SMOOTH",
"204 188 LINE SMOOTH"
);
}
);
userData = {
assembly = "NPUSHB[ ]	/* 68 values pushed */
25 1 1 0 14 1 3 2 2 74 0 1 10 1 9 8 1 9 103 0 8 0 2 3 8 2 101 6 1 0 0 7 93 0 7 7 17 75 5 1 3 3 4 93 0 4 4 21 4 76 32 32 32 45 32 44 53 17 36 33 17 35 36 36 16 11 7 29 
CALL[ ]	/* CallFunction */";
};
width = 508;
},
{
layerId = "EC024578-EFD3-4C50-A1DE-0E38CDD8AD0F";
paths = (
{
closed = 1;
nodes = (
"268 0 LINE",
"272 29 LINE",
"223 27 LINE SMOOTH",
"212.333 26.333 OFFCURVE",
"207 31.667 OFFCURVE",
"207 43 CURVE SMOOTH",
"207 49 LINE",
"223 162 LINE",
"317 162 LINE SMOOTH",
"453 162 OFFCURVE",
"535 234.667 OFFCURVE",
"535 364 CURVE SMOOTH",
"535 458.667 OFFCURVE",
"475 496 OFFCURVE",
"343 496 CURVE SMOOTH",
"270 496 LINE",
"277 548 LINE SMOOTH",
"279.667 560 OFFCURVE",
"288.333 569 OFFCURVE",
"299 569 CURVE SMOOTH",
"348 567 LINE",
"352 597 LINE",
"92 597 LINE",
"88 567 LINE",
"124 569 LINE",
"134 568.333 OFFCURVE",
"139 563 OFFCURVE",
"139 553 CURVE SMOOTH",
"139 548 LINE",
"69 49 LINE SMOOTH",
"66.333 34.333 OFFCURVE",
"60 27 OFFCURVE",
"50 27 CURVE SMOOTH",
"12 29 LINE",
"8 0 LINE"
);
},
{
closed = 1;
nodes = (
"233.667 188 OFFCURVE",
"228 193.667 OFFCURVE",
"228 199 CURVE SMOOTH",
"228 201 LINE",
"266 471 LINE",
"309 471 LINE SMOOTH",
"363.667 471 OFFCURVE",
"394 433.333 OFFCURVE",
"394 364 CURVE SMOOTH",
"394 258.6 OFFCURVE",
"338.843 188 OFFCURVE",
"284 188 CURVE SMOOTH",
"239 188 LINE SMOOTH"
);
}
);
userData = {
assembly = "NPUSHB[ ]	/* 68 values pushed */
26 1 1 0 14 1 3 2 2 74 0 1 10 1 9 8 1 9 103 0 8 0 2 3 8 2 101 6 1 0 0 7 93 0 7 7 17 75 5 1 3 3 4 93 0 4 4 21 4 76 34 34 34 47 34 46 53 17 37 49 17 35 36 36 16 11 7 29 
CALL[ ]	/* CallFunction */";
};
width = 540;
},
{
layerId = "6E1F4822-938D-406D-B3C9-5D869F42D31A";
paths = (
{
closed = 1;
nodes = (
"217 0 LINE",
"221 29 LINE",
"172 27 LINE SMOOTH",
"162 26.333 OFFCURVE",
"157.333 31.333 OFFCURVE",
"158 42 CURVE SMOOTH",
"159 49 LINE",
"175 162 LINE",
"275 162 LINE SMOOTH",
"396.333 162 OFFCURVE",
"476 245 OFFCURVE",
"476 361 CURVE SMOOTH",
"476 451.667 OFFCURVE",
"419.667 496 OFFCURVE",
"301 496 CURVE SMOOTH",
"222 496 LINE",
"229 548 LINE SMOOTH",
"231.667 560 OFFCURVE",
"240 569 OFFCURVE",
"248 569 CURVE SMOOTH",
"297 567 LINE",
"301 597 LINE",
"106 597 LINE",
"102 567 LINE",
"143 569 LINE SMOOTH",
"151.667 569 OFFCURVE",
"156 563.667 OFFCURVE",
"156 553 CURVE SMOOTH",
"156 548 LINE",
"86 49 LINE SMOOTH",
"84.667 35 OFFCURVE",
"78 27.667 OFFCURVE",
"66 27 CURVE",
"26 29 LINE",
"22 0 LINE"
);
},
{
closed = 1;
nodes = (
"182.667 188 OFFCURVE",
"180 192.333 OFFCURVE",
"180 199 CURVE SMOOTH",
"180 201 LINE",
"218 471 LINE",
"289 471 LINE SMOOTH",
"358.333 471 OFFCURVE",
"400 423.333 OFFCURVE",
"400 354 CURVE SMOOTH",
"400 260.548 OFFCURVE",
"325.739 188 OFFCURVE",
"264 188 CURVE SMOOTH",
"188 188 LINE SMOOTH"
);
}
);
userData = {
assembly = "NPUSHB[ ]	/* 68 values pushed */
25 1 1 0 14 1 3 2 2 74 0 1 10 1 9 8 1 9 103 0 8 0 2 3 8 2 101 6 1 0 0 7 93 0 7 7 17 75 5 1 3 3 4 93 0 4 4 21 4 76 32 32 32 45 32 44 53 17 36 33 17 35 36 36 16 11 7 29 
CALL[ ]	/* CallFunction */";
};
width = 494;
}
);
note = Thorn;
unicode = 00DE;
},
{
color = 3;
glyphname = Q;
layers = (
{
background = {
paths = (
{
closed = 1;
nodes = (
"468 -98 OFFCURVE",
"403 -56 OFFCURVE",
"364 -3 QCURVE",
"470 16 OFFCURVE",
"623 181 OFFCURVE",
"623 356 QCURVE SMOOTH",
"623 501 OFFCURVE",
"472 607 OFFCURVE",
"379 607 QCURVE SMOOTH",
"308 607 OFFCURVE",
"160 551 OFFCURVE",
"50 389 OFFCURVE",
"50 242 QCURVE SMOOTH",
"50 98 OFFCURVE",
"200 -10 OFFCURVE",
"293 -10 QCURVE",
"339 -86 OFFCURVE",
"421 -156 OFFCURVE",
"466 -156 QCURVE SMOOTH",
"519 -156 OFFCURVE",
"589 -112 QCURVE",
"582 -86 LINE",
"532 -98 OFFCURVE",
"504 -98 QCURVE SMOOTH"
);
},
{
closed = 1;
nodes = (
"148 335 OFFCURVE",
"189 443 QCURVE SMOOTH",
"240 580 OFFCURVE",
"366 580 QCURVE SMOOTH",
"453 580 OFFCURVE",
"524 489 OFFCURVE",
"524 383 QCURVE SMOOTH",
"524 247 OFFCURVE",
"478 139 QCURVE SMOOTH",
"425 17 OFFCURVE",
"306 17 QCURVE SMOOTH",
"220 17 OFFCURVE",
"148 107 OFFCURVE",
"148 215 QCURVE SMOOTH"
);
}
);
};
components = (
{
name = O;
}
);
layerId = "9A6463FA-02C3-4660-BEDA-F7CC218AE705";
paths = (
{
closed = 1;
nodes = (
"516 -194 OFFCURVE",
"555 -191 OFFCURVE",
"594 -166 CURVE",
"581 -140 LINE",
"472 -176 OFFCURVE",
"411 -37 OFFCURVE",
"293 -10 CURVE",
"229 0 LINE",
"343 -109 OFFCURVE",
"431 -194 OFFCURVE",
"492 -194 CURVE SMOOTH"
);
}
);
userData = {
assembly = "NPUSHB[ ]	/* 59 values pushed */
20 1 1 4 1 1 3 1 2 1 0 3 3 74 6 1 3 0 0 3 0 99 0 5 5 2 95 0 2 2 25 75 0 4 4 1 95 0 1 1 26 1 76 0 0 36 34 28 26 0 23 0 22 37 18 35 7 7 23 
CALL[ ]	/* CallFunction */";
};
width = 649;
},
{
background = {
paths = (
{
closed = 1;
nodes = (
"512 -98 OFFCURVE",
"446 -54 OFFCURVE",
"406 1 QCURVE",
"521 29 OFFCURVE",
"662 208 OFFCURVE",
"662 345 QCURVE SMOOTH",
"662 479 OFFCURVE",
"518 607 OFFCURVE",
"393 607 QCURVE SMOOTH",
"294 607 OFFCURVE",
"133 526 OFFCURVE",
"39 366 OFFCURVE",
"39 254 QCURVE SMOOTH",
"39 119 OFFCURVE",
"184 -10 OFFCURVE",
"308 -10 QCURVE",
"359 -98 OFFCURVE",
"448 -179 OFFCURVE",
"496 -179 QCURVE SMOOTH",
"557 -179 OFFCURVE",
"634 -112 QCURVE",
"627 -86 LINE",
"577 -98 OFFCURVE",
"549 -98 QCURVE SMOOTH"
);
},
{
closed = 1;
nodes = (
"189 328 OFFCURVE",
"220 425 QCURVE SMOOTH",
"263 573 OFFCURVE",
"382 573 QCURVE SMOOTH",
"460 573 OFFCURVE",
"516 481 OFFCURVE",
"516 401 QCURVE SMOOTH",
"514 285 OFFCURVE",
"477 161 QCURVE SMOOTH",
"436 25 OFFCURVE",
"317 25 QCURVE SMOOTH",
"244 25 OFFCURVE",
"186 109 OFFCURVE",
"185 188 QCURVE"
);
}
);
};
components = (
{
name = O;
}
);
layerId = "EC024578-EFD3-4C50-A1DE-0E38CDD8AD0F";
paths = (
{
closed = 1;
nodes = (
"540 -203 OFFCURVE",
"586 -193 OFFCURVE",
"624 -168 CURVE",
"603 -133 LINE",
"488 -181 OFFCURVE",
"466 -29 OFFCURVE",
"308 -10 CURVE SMOOTH",
"243 0 LINE",
"356 -109 OFFCURVE",
"455 -203 OFFCURVE",
"516 -203 CURVE SMOOTH"
);
}
);
userData = {
assembly = "NPUSHB[ ]	/* 59 values pushed */
20 1 1 4 1 1 3 1 2 1 0 3 3 74 6 1 3 0 0 3 0 99 0 5 5 2 95 0 2 2 25 75 0 4 4 1 95 0 1 1 26 1 76 0 0 36 34 27 25 0 23 0 22 37 18 35 7 7 23 
CALL[ ]	/* CallFunction */";
};
width = 677;
},
{
components = (
{
name = O;
}
);
layerId = "6E1F4822-938D-406D-B3C9-5D869F42D31A";
paths = (
{
closed = 1;
nodes = (
"505 -190 OFFCURVE",
"542 -190 OFFCURVE",
"581 -165 CURVE",
"571 -143 LINE",
"464 -174 OFFCURVE",
"387 -41 OFFCURVE",
"286 -10 CURVE",
"223 0 LINE",
"337 -109 OFFCURVE",
"420 -190 OFFCURVE",
"481 -190 CURVE SMOOTH"
);
}
);
userData = {
assembly = "NPUSHB[ ]	/* 59 values pushed */
20 1 1 4 1 1 3 1 2 1 0 3 3 74 6 1 3 0 0 3 0 99 0 5 5 2 95 0 2 2 25 75 0 4 4 1 95 0 1 1 26 1 76 0 0 36 34 28 26 0 23 0 22 37 18 35 7 7 23 
CALL[ ]	/* CallFunction */";
};
width = 637;
}
);
leftKerningGroup = C;
note = Q;
rightKerningGroup = D;
unicode = 0051;
},
{
glyphname = R;
layers = (
{
anchors = (
{
name = bottom;
position = "{257, 0}";
},
{
name = top;
position = "{340, 597}";
}
);
layerId = "9A6463FA-02C3-4660-BEDA-F7CC218AE705";
paths = (
{
closed = 1;
nodes = (
"460.333 -10 OFFCURVE",
"495.333 1 OFFCURVE",
"518 13 CURVE",
"510 32 LINE",
"504 28 OFFCURVE",
"497 26 OFFCURVE",
"489 26 CURVE SMOOTH",
"469 26 OFFCURVE",
"458.667 39.667 OFFCURVE",
"460 69 CURVE SMOOTH",
"464 172 LINE SMOOTH",
"466.667 241.333 OFFCURVE",
"433 287.667 OFFCURVE",
"365 297 CURVE",
"446.333 318.333 OFFCURVE",
"505 378.667 OFFCURVE",
"505 468 CURVE SMOOTH",
"505 557.333 OFFCURVE",
"446.667 597 OFFCURVE",
"320 597 CURVE SMOOTH",
"102 597 LINE",
"98 567 LINE",
"133 569 LINE",
"145 568.333 OFFCURVE",
"151 562.333 OFFCURVE",
"151 551 CURVE SMOOTH",
"150 542 LINE",
"81 49 LINE SMOOTH",
"79 34.333 OFFCURVE",
"72.333 27 OFFCURVE",
"61 27 CURVE SMOOTH",
"22 29 LINE",
"18 0 LINE",
"233 0 LINE",
"237 29 LINE",
"188 27 LINE SMOOTH",
"178 27 OFFCURVE",
"173 31.667 OFFCURVE",
"173 41 CURVE",
"206 286 LINE",
"253 286 LINE SMOOTH",
"326.333 283.333 OFFCURVE",
"377 243.667 OFFCURVE",
"377 161 CURVE SMOOTH",
"377 147 OFFCURVE",
"376 131.333 OFFCURVE",
"374 114 CURVE SMOOTH",
"371 64 LINE SMOOTH",
"371 12 OFFCURVE",
"389.667 -10 OFFCURVE",
"431 -10 CURVE SMOOTH"
);
},
{
closed = 1;
nodes = (
"245 559 LINE SMOOTH",
"245.667 565.667 OFFCURVE",
"249.333 569 OFFCURVE",
"256 569 CURVE SMOOTH",
"316 569 LINE SMOOTH",
"382.667 569 OFFCURVE",
"412 538.333 OFFCURVE",
"412 465 CURVE SMOOTH",
"412 373 OFFCURVE",
"367 313 OFFCURVE",
"299 313 CURVE SMOOTH",
"210 313 LINE"
);
}
);
userData = {
assembly = "NPUSHB[ ]	/* 82 values pushed */
43 1 9 6 5 1 2 9 32 15 2 0 2 16 1 4 0 4 74 0 9 0 2 0 9 2 103 11 8 2 6 6 7 93 10 1 7 7 17 75 5 3 2 0 0 4 93 0 4 4 21 75 0 1 1 26 1 76 51 50 0 0 55 53 50 60 51 59 0 49 0 48 37 33 17 34 41 36 44 12 7 27 
CALL[ ]	/* CallFunction */";
};
width = 563;
},
{
anchors = (
{
name = bottom;
position = "{271, 0}";
},
{
name = top;
position = "{354, 597}";
}
);
layerId = "EC024578-EFD3-4C50-A1DE-0E38CDD8AD0F";
paths = (
{
closed = 1;
nodes = (
"472.667 -10 OFFCURVE",
"518.667 2.333 OFFCURVE",
"548 17 CURVE",
"540 40 LINE",
"534 36 OFFCURVE",
"527 34 OFFCURVE",
"519 34 CURVE SMOOTH",
"497.667 34 OFFCURVE",
"488.667 46 OFFCURVE",
"490 74 CURVE SMOOTH",
"494 170 LINE SMOOTH",
"496.667 240.667 OFFCURVE",
"461.333 285.667 OFFCURVE",
"392 295 CURVE",
"482.667 320.333 OFFCURVE",
"540 382 OFFCURVE",
"540 470 CURVE SMOOTH",
"540 555.333 OFFCURVE",
"478 597 OFFCURVE",
"350 597 CURVE SMOOTH",
"92 597 LINE",
"87 560 LINE",
"120 562 LINE SMOOTH",
"132 562 OFFCURVE",
"138 555.667 OFFCURVE",
"138 543 CURVE SMOOTH",
"138 539 LINE",
"70 57 LINE SMOOTH",
"68 42.333 OFFCURVE",
"61.333 35 OFFCURVE",
"50 35 CURVE SMOOTH",
"13 37 LINE",
"8 0 LINE",
"268 0 LINE",
"273 37 LINE",
"224 35 LINE SMOOTH",
"213.333 35 OFFCURVE",
"208 40 OFFCURVE",
"208 50 CURVE",
"238 271 LINE",
"274 271 LINE SMOOTH",
"343.333 269.667 OFFCURVE",
"364 229.667 OFFCURVE",
"364 163 CURVE SMOOTH",
"364 155.667 OFFCURVE",
"362.667 140 OFFCURVE",
"360 116 CURVE SMOOTH",
"356 61 LINE",
"356 10.333 OFFCURVE",
"380.667 -10 OFFCURVE",
"434 -10 CURVE SMOOTH"
);
},
{
closed = 1;
nodes = (
"277 552 LINE SMOOTH",
"277.667 558.667 OFFCURVE",
"282.333 562 OFFCURVE",
"291 562 CURVE SMOOTH",
"322 562 LINE SMOOTH",
"376.667 562 OFFCURVE",
"404 532.667 OFFCURVE",
"404 466 CURVE SMOOTH",
"404 371.333 OFFCURVE",
"361 306 OFFCURVE",
"305 306 CURVE SMOOTH",
"243 306 LINE"
);
}
);
userData = {
assembly = "NPUSHB[ ]	/* 82 values pushed */
43 1 9 6 5 1 2 9 31 15 2 0 2 16 1 4 0 4 74 0 9 0 2 0 9 2 103 11 8 2 6 6 7 93 10 1 7 7 17 75 5 3 2 0 0 4 93 0 4 4 21 75 0 1 1 26 1 76 51 50 0 0 55 53 50 60 51 59 0 49 0 48 36 49 17 35 40 36 44 12 7 27 
CALL[ ]	/* CallFunction */";
};
width = 587;
},
{
anchors = (
{
name = bottom;
position = "{251, 0}";
},
{
name = top;
position = "{334, 597}";
}
);
layerId = "6E1F4822-938D-406D-B3C9-5D869F42D31A";
paths = (
{
closed = 1;
nodes = (
"455.333 -10 OFFCURVE",
"485 0.333 OFFCURVE",
"505 11 CURVE",
"497 28 LINE",
"491 24 OFFCURVE",
"484 22 OFFCURVE",
"476 22 CURVE SMOOTH",
"456 22 OFFCURVE",
"445.667 37.667 OFFCURVE",
"447 67 CURVE SMOOTH",
"451 173 LINE SMOOTH",
"453.667 242.333 OFFCURVE",
"421 288.667 OFFCURVE",
"353 298 CURVE",
"431.667 318 OFFCURVE",
"489 377.667 OFFCURVE",
"489 467 CURVE SMOOTH",
"489 557.667 OFFCURVE",
"432.333 597 OFFCURVE",
"307 597 CURVE SMOOTH",
"106 597 LINE",
"103 570 LINE",
"139 572 LINE",
"150.333 571.333 OFFCURVE",
"156.333 565.667 OFFCURVE",
"157 555 CURVE",
"155 543 LINE",
"86 45 LINE SMOOTH",
"84 30.333 OFFCURVE",
"77.333 23 OFFCURVE",
"66 23 CURVE SMOOTH",
"26 25 LINE",
"22 0 LINE",
"217 0 LINE",
"221 25 LINE",
"172 23 LINE SMOOTH",
"162 23 OFFCURVE",
"157 27.667 OFFCURVE",
"157 37 CURVE",
"192 293 LINE",
"244 293 LINE SMOOTH",
"320 289 OFFCURVE",
"383 249.333 OFFCURVE",
"383 160 CURVE SMOOTH",
"383 143.333 OFFCURVE",
"382 127.667 OFFCURVE",
"380 113 CURVE",
"378 65 LINE SMOOTH",
"378 13 OFFCURVE",
"394 -10 OFFCURVE",
"430 -10 CURVE SMOOTH"
);
},
{
closed = 1;
nodes = (
"231 562 LINE SMOOTH",
"231.667 568.667 OFFCURVE",
"234.667 572 OFFCURVE",
"240 572 CURVE SMOOTH",
"313 572 LINE SMOOTH",
"385 572 OFFCURVE",
"416 541 OFFCURVE",
"416 465 CURVE SMOOTH",
"416 373 OFFCURVE",
"369.333 316 OFFCURVE",
"296 316 CURVE SMOOTH",
"195 316 LINE"
);
}
);
userData = {
assembly = "NPUSHB[ ]	/* 82 values pushed */
43 1 9 6 5 1 2 9 32 15 2 0 2 16 1 4 0 4 74 0 9 0 2 0 9 2 103 11 8 2 6 6 7 93 10 1 7 7 17 75 5 3 2 0 0 4 93 0 4 4 21 75 0 1 1 26 1 76 51 50 0 0 55 53 50 60 51 59 0 49 0 48 37 33 17 34 41 36 44 12 7 27 
CALL[ ]	/* CallFunction */";
};
width = 552;
}
);
note = R;
rightKerningGroup = R;
unicode = 0052;
},
{
glyphname = S;
layers = (
{
anchors = (
{
name = bottom;
position = "{211, 0}";
},
{
name = top;
position = "{294, 597}";
}
);
background = {
paths = (
{
closed = 1;
nodes = (
"226 607 OFFCURVE",
"132 561 OFFCURVE",
"83 484 OFFCURVE",
"83 441 QCURVE SMOOTH",
"83 386 OFFCURVE",
"141 318 OFFCURVE",
"195 288 QCURVE SMOOTH",
"244 261 LINE SMOOTH",
"292 234 OFFCURVE",
"343 176 OFFCURVE",
"343 132 QCURVE SMOOTH",
"343 100 OFFCURVE",
"309 48 OFFCURVE",
"252 18 OFFCURVE",
"221 18 QCURVE SMOOTH",
"66 18 OFFCURVE",
"71 203 QCURVE",
"44 203 LINE",
"45 199 OFFCURVE",
"45 172 QCURVE SMOOTH",
"45 120 OFFCURVE",
"35 48 OFFCURVE",
"21 14 OFFCURVE",
"20 10 QCURVE",
"26 12 OFFCURVE",
"56 18 OFFCURVE",
"69 18 QCURVE SMOOTH",
"80 18 OFFCURVE",
"114 9 QCURVE SMOOTH",
"139 3 LINE SMOOTH",
"189 -10 OFFCURVE",
"228 -10 QCURVE SMOOTH",
"282 -10 OFFCURVE",
"379 37 OFFCURVE",
"438 122 OFFCURVE",
"438 176 QCURVE SMOOTH",
"438 229 OFFCURVE",
"381 300 OFFCURVE",
"329 330 QCURVE SMOOTH",
"267 365 LINE SMOOTH",
"220 392 OFFCURVE",
"171 443 OFFCURVE",
"171 481 QCURVE SMOOTH",
"172 526 OFFCURVE",
"242 580 OFFCURVE",
"297 580 QCURVE SMOOTH",
"352 580 OFFCURVE",
"421 513 OFFCURVE",
"421 458 QCURVE SMOOTH",
"421 450 OFFCURVE",
"419 434 QCURVE",
"447 434 LINE",
"446 439 OFFCURVE",
"446 458 QCURVE SMOOTH",
"446 493 OFFCURVE",
"453 543 OFFCURVE",
"465 577 QCURVE",
"451 572 OFFCURVE",
"434 572 QCURVE SMOOTH",
"424 572 OFFCURVE",
"409 578 QCURVE SMOOTH",
"360 596 OFFCURVE",
"318 607 OFFCURVE",
"289 607 QCURVE SMOOTH"
);
}
);
};
layerId = "9A6463FA-02C3-4660-BEDA-F7CC218AE705";
paths = (
{
closed = 1;
nodes = (
"349 -10 OFFCURVE",
"438 68 OFFCURVE",
"438 176 CURVE SMOOTH",
"438 247 OFFCURVE",
"398 290 OFFCURVE",
"329 330 CURVE SMOOTH",
"267 365 LINE SMOOTH",
"204 401 OFFCURVE",
"171 430 OFFCURVE",
"171 481 CURVE SMOOTH",
"171 541 OFFCURVE",
"224 580 OFFCURVE",
"297 580 CURVE SMOOTH",
"370 580 OFFCURVE",
"421 531 OFFCURVE",
"421 458 CURVE SMOOTH",
"421 453 OFFCURVE",
"420 445 OFFCURVE",
"419 434 CURVE",
"447 434 LINE",
"446 437 OFFCURVE",
"446 445 OFFCURVE",
"446 458 CURVE SMOOTH",
"446 505 OFFCURVE",
"449 532 OFFCURVE",
"465 577 CURVE",
"456 574 OFFCURVE",
"445 572 OFFCURVE",
"434 572 CURVE SMOOTH",
"407 572 OFFCURVE",
"362 607 OFFCURVE",
"289 607 CURVE SMOOTH",
"175 607 OFFCURVE",
"83 541 OFFCURVE",
"83 441 CURVE SMOOTH",
"83 368 OFFCURVE",
"123 328 OFFCURVE",
"195 288 CURVE SMOOTH",
"244 261 LINE SMOOTH",
"308 225 OFFCURVE",
"343 191 OFFCURVE",
"343 132 CURVE SMOOTH",
"343 68 OFFCURVE",
"285 18 OFFCURVE",
"221 18 CURVE SMOOTH",
"118 18 OFFCURVE",
"68 80 OFFCURVE",
"71 203 CURVE",
"44 203 LINE",
"45 200 OFFCURVE",
"45 190 OFFCURVE",
"45 172 CURVE SMOOTH",
"45 100 OFFCURVE",
"37 46 OFFCURVE",
"20 10 CURVE",
"28 13 OFFCURVE",
"52 18 OFFCURVE",
"69 18 CURVE SMOOTH",
"92 18 OFFCURVE",
"171 -10 OFFCURVE",
"217 -10 CURVE SMOOTH"
);
}
);
userData = {
assembly = "NPUSHB[ ]	/* 11 values pushed */
6 1 0 1 47 13 2 3 0 2 74 
MPPEM[ ]	/* MeasurePixelPerEm */
PUSHB[ ]	/* 1 value pushed */
27 
LT[ ]	/* LessThan */
IF[ ]	/* If */
NPUSHB[ ]	/* 35 values pushed */
0 0 1 3 1 0 3 126 0 1 1 5 95 6 1 5 5 25 75 0 3 3 21 75 0 4 4 2 95 0 2 2 26 2 76 
ELSE[ ]	/* Else */
NPUSHB[ ]	/* 37 values pushed */
0 0 1 3 1 0 3 126 0 3 4 1 3 4 124 0 1 1 5 95 6 1 5 5 25 75 0 4 4 2 95 0 2 2 26 2 76 
EIF[ ]	/* EndIf */
NPUSHB[ ]	/* 14 values pushed */
0 0 0 64 0 63 42 35 44 44 35 7 7 25 
CALL[ ]	/* CallFunction */";
};
width = 479;
},
{
anchors = (
{
name = bottom;
position = "{215, 0}";
},
{
name = top;
position = "{298, 597}";
}
);
background = {
paths = (
{
closed = 1;
nodes = (
"231 607 OFFCURVE",
"129 557 OFFCURVE",
"76 472 OFFCURVE",
"76 420 QCURVE SMOOTH",
"76 366 OFFCURVE",
"131 292 OFFCURVE",
"182 265 QCURVE SMOOTH",
"251 229 LINE SMOOTH",
"296 205 OFFCURVE",
"340 156 OFFCURVE",
"340 122 QCURVE SMOOTH",
"340 80 OFFCURVE",
"270 26 OFFCURVE",
"219 26 QCURVE SMOOTH",
"149 26 OFFCURVE",
"70 116 OFFCURVE",
"72 203 QCURVE",
"38 200 LINE",
"40 199 OFFCURVE",
"40 178 QCURVE SMOOTH",
"40 87 OFFCURVE",
"16 12 QCURVE",
"21 14 OFFCURVE",
"48 18 OFFCURVE",
"59 18 QCURVE SMOOTH",
"75 18 OFFCURVE",
"132 3 QCURVE SMOOTH",
"184 -10 OFFCURVE",
"223 -10 QCURVE SMOOTH",
"299 -10 OFFCURVE",
"410 43 OFFCURVE",
"467 134 OFFCURVE",
"467 189 QCURVE SMOOTH",
"467 244 OFFCURVE",
"408 311 OFFCURVE",
"343 347 QCURVE SMOOTH",
"282 382 LINE SMOOTH",
"237 406 OFFCURVE",
"195 452 OFFCURVE",
"195 484 QCURVE SMOOTH",
"195 527 OFFCURVE",
"265 573 OFFCURVE",
"314 573 QCURVE SMOOTH",
"372 573 OFFCURVE",
"443 508 OFFCURVE",
"443 455 QCURVE SMOOTH",
"443 441 OFFCURVE",
"442 434 QCURVE",
"476 434 LINE",
"474 446 OFFCURVE",
"474 459 QCURVE SMOOTH",
"474 490 OFFCURVE",
"485 542 OFFCURVE",
"493 576 QCURVE",
"481 572 OFFCURVE",
"463 572 QCURVE SMOOTH",
"452 572 OFFCURVE",
"435 578 QCURVE SMOOTH",
"381 597 OFFCURVE",
"336 607 OFFCURVE",
"303 607 QCURVE SMOOTH"
);
}
);
};
layerId = "EC024578-EFD3-4C50-A1DE-0E38CDD8AD0F";
paths = (
{
closed = 1;
nodes = (
"374 -10 OFFCURVE",
"467 74 OFFCURVE",
"467 189 CURVE SMOOTH",
"467 262 OFFCURVE",
"430 299 OFFCURVE",
"343 347 CURVE SMOOTH",
"282 382 LINE SMOOTH",
"222 414 OFFCURVE",
"195 441 OFFCURVE",
"195 484 CURVE SMOOTH",
"195 541 OFFCURVE",
"249 573 OFFCURVE",
"314 573 CURVE SMOOTH",
"391 573 OFFCURVE",
"443 526 OFFCURVE",
"443 455 CURVE SMOOTH",
"443 446 OFFCURVE",
"443 439 OFFCURVE",
"442 434 CURVE",
"476 434 LINE",
"475 442 OFFCURVE",
"474 450 OFFCURVE",
"474 459 CURVE SMOOTH",
"474 500 OFFCURVE",
"482 531 OFFCURVE",
"493 576 CURVE",
"485 573 OFFCURVE",
"475 572 OFFCURVE",
"463 572 CURVE SMOOTH",
"439 572 OFFCURVE",
"380 607 OFFCURVE",
"303 607 CURVE SMOOTH",
"161 607 OFFCURVE",
"76 527 OFFCURVE",
"76 420 CURVE SMOOTH",
"76 348 OFFCURVE",
"114 301 OFFCURVE",
"182 265 CURVE SMOOTH",
"251 229 LINE SMOOTH",
"311 197 OFFCURVE",
"340 167 OFFCURVE",
"340 122 CURVE SMOOTH",
"340 66 OFFCURVE",
"287 26 OFFCURVE",
"219 26 CURVE SMOOTH",
"121 26 OFFCURVE",
"72 85 OFFCURVE",
"72 203 CURVE",
"38 200 LINE",
"39 199 OFFCURVE",
"40 192 OFFCURVE",
"40 178 CURVE SMOOTH",
"40 117 OFFCURVE",
"32 62 OFFCURVE",
"16 12 CURVE",
"23 15 OFFCURVE",
"44 18 OFFCURVE",
"59 18 CURVE SMOOTH",
"87 18 OFFCURVE",
"167 -10 OFFCURVE",
"223 -10 CURVE SMOOTH"
);
}
);
userData = {
assembly = "NPUSHB[ ]	/* 10 values pushed */
7 1 2 6 44 1 5 1 2 74 
MPPEM[ ]	/* MeasurePixelPerEm */
PUSHB[ ]	/* 1 value pushed */
27 
LT[ ]	/* LessThan */
IF[ ]	/* If */
NPUSHB[ ]	/* 35 values pushed */
0 0 0 1 5 0 1 101 0 2 2 6 95 7 1 6 6 25 75 0 4 4 21 75 0 5 5 3 95 0 3 3 26 3 76 
ELSE[ ]	/* Else */
NPUSHB[ ]	/* 38 values pushed */
0 4 5 3 5 4 3 126 0 0 0 1 5 0 1 101 0 2 2 6 95 7 1 6 6 25 75 0 5 5 3 95 0 3 3 26 3 76 
EIF[ ]	/* EndIf */
NPUSHB[ ]	/* 15 values pushed */
0 0 0 61 0 60 41 34 44 36 22 36 8 7 26 
CALL[ ]	/* CallFunction */";
};
width = 496;
},
{
anchors = (
{
name = bottom;
position = "{209, 0}";
},
{
name = top;
position = "{292, 597}";
}
);
layerId = "6E1F4822-938D-406D-B3C9-5D869F42D31A";
paths = (
{
closed = 1;
nodes = (
"335 -10 OFFCURVE",
"425 70 OFFCURVE",
"425 170 CURVE SMOOTH",
"425 239 OFFCURVE",
"384 286 OFFCURVE",
"323 322 CURVE SMOOTH",
"260 357 LINE SMOOTH",
"197 394 OFFCURVE",
"160 425 OFFCURVE",
"160 480 CURVE SMOOTH",
"160 541 OFFCURVE",
"213 583 OFFCURVE",
"289 583 CURVE SMOOTH",
"361 583 OFFCURVE",
"411 534 OFFCURVE",
"411 459 CURVE SMOOTH",
"411 456 OFFCURVE",
"410 447 OFFCURVE",
"409 434 CURVE",
"434 434 LINE",
"433 436 OFFCURVE",
"433 444 OFFCURVE",
"434 458 CURVE SMOOTH",
"434 506 OFFCURVE",
"434 532 OFFCURVE",
"453 577 CURVE",
"443 574 OFFCURVE",
"432 572 OFFCURVE",
"421 572 CURVE SMOOTH",
"397 572 OFFCURVE",
"345 607 OFFCURVE",
"283 607 CURVE SMOOTH",
"176 607 OFFCURVE",
"86 542 OFFCURVE",
"86 450 CURVE SMOOTH",
"86 377 OFFCURVE",
"128 339 OFFCURVE",
"201 298 CURVE SMOOTH",
"241 275 LINE SMOOTH",
"306 238 OFFCURVE",
"344 201 OFFCURVE",
"344 136 CURVE SMOOTH",
"344 69 OFFCURVE",
"285 14 OFFCURVE",
"222 14 CURVE SMOOTH",
"116 14 OFFCURVE",
"66 77 OFFCURVE",
"71 203 CURVE",
"47 204 LINE",
"47 201 OFFCURVE",
"47 190 OFFCURVE",
"47 169 CURVE SMOOTH",
"47 92 OFFCURVE",
"39 39 OFFCURVE",
"22 9 CURVE",
"30 12 OFFCURVE",
"56 18 OFFCURVE",
"79 18 CURVE SMOOTH",
"115 18 OFFCURVE",
"167 -10 OFFCURVE",
"222 -10 CURVE SMOOTH"
);
}
);
userData = {
assembly = "NPUSHB[ ]	/* 11 values pushed */
6 1 0 1 47 13 2 3 0 2 74 
MPPEM[ ]	/* MeasurePixelPerEm */
PUSHB[ ]	/* 1 value pushed */
27 
LT[ ]	/* LessThan */
IF[ ]	/* If */
NPUSHB[ ]	/* 35 values pushed */
0 0 1 3 1 0 3 126 0 1 1 5 95 6 1 5 5 25 75 0 3 3 21 75 0 4 4 2 95 0 2 2 26 2 76 
ELSE[ ]	/* Else */
NPUSHB[ ]	/* 37 values pushed */
0 0 1 3 1 0 3 126 0 3 4 1 3 4 124 0 1 1 5 95 6 1 5 5 25 75 0 4 4 2 95 0 2 2 26 2 76 
EIF[ ]	/* EndIf */
NPUSHB[ ]	/* 14 values pushed */
0 0 0 64 0 63 42 35 44 44 35 7 7 25 
CALL[ ]	/* CallFunction */";
};
width = 471;
}
);
note = S;
unicode = 0053;
},
{
color = 3;
glyphname = Germandbls;
layers = (
{
layerId = "9A6463FA-02C3-4660-BEDA-F7CC218AE705";
paths = (
{
closed = 1;
nodes = (
"169 0 LINE",
"247 556 LINE SMOOTH",
"248.333 564.667 OFFCURVE",
"253 569 OFFCURVE",
"261 569 CURVE SMOOTH",
"526 569 LINE",
"532 597 LINE",
"102 597 LINE",
"97 567 LINE",
"137 569 LINE",
"139 569 LINE SMOOTH",
"150.333 569 OFFCURVE",
"155 562 OFFCURVE",
"153 548 CURVE SMOOTH",
"83 49 LINE SMOOTH",
"81 34.333 OFFCURVE",
"74 27 OFFCURVE",
"62 27 CURVE SMOOTH",
"22 30 LINE",
"18 0 LINE"
);
},
{
closed = 1;
nodes = (
"457.333 -10 OFFCURVE",
"545 70.333 OFFCURVE",
"545 181 CURVE SMOOTH",
"545 287.667 OFFCURVE",
"478 340.667 OFFCURVE",
"344 340 CURVE SMOOTH",
"286 340 LINE",
"283 319 LINE",
"429.667 313.667 OFFCURVE",
"456 265.667 OFFCURVE",
"456 179 CURVE SMOOTH",
"456 65.667 OFFCURVE",
"409.333 17 OFFCURVE",
"340 17 CURVE SMOOTH",
"288 17 OFFCURVE",
"280.667 41 OFFCURVE",
"290 77 CURVE SMOOTH",
"292 84.333 OFFCURVE",
"295 92.333 OFFCURVE",
"299 101 CURVE SMOOTH",
"303 109.667 OFFCURVE",
"305.333 118 OFFCURVE",
"306 126 CURVE SMOOTH",
"310 148.667 OFFCURVE",
"294.333 165 OFFCURVE",
"265 165 CURVE SMOOTH",
"233 165 OFFCURVE",
"213 145.667 OFFCURVE",
"209 115 CURVE SMOOTH",
"198.333 43 OFFCURVE",
"246.667 -10 OFFCURVE",
"344 -10 CURVE SMOOTH"
);
},
{
closed = 1;
nodes = (
"552 569 LINE",
"532 597 LINE",
"286 340 LINE",
"313 325 LINE"
);
}
);
width = 577;
},
{
layerId = "EC024578-EFD3-4C50-A1DE-0E38CDD8AD0F";
paths = (
{
closed = 1;
nodes = (
"201 0 LINE",
"278 549 LINE SMOOTH",
"279.333 557.667 OFFCURVE",
"284 562 OFFCURVE",
"292 562 CURVE SMOOTH",
"588 562 LINE",
"608 597 LINE",
"93 597 LINE",
"87 560 LINE",
"123 562 LINE",
"125 562 LINE SMOOTH",
"136.333 562 OFFCURVE",
"141 555 OFFCURVE",
"139 541 CURVE SMOOTH",
"71 57 LINE SMOOTH",
"69 42.333 OFFCURVE",
"62 35 OFFCURVE",
"50 35 CURVE SMOOTH",
"14 38 LINE",
"9 0 LINE"
);
},
{
closed = 1;
nodes = (
"568 -10 OFFCURVE",
"646 72.667 OFFCURVE",
"646 178 CURVE SMOOTH",
"646 286.667 OFFCURVE",
"575.333 340.667 OFFCURVE",
"434 340 CURVE SMOOTH",
"345 340 LINE",
"340 308 LINE",
"492 296 OFFCURVE",
"511 247.667 OFFCURVE",
"511 161 CURVE SMOOTH",
"511 101 OFFCURVE",
"465.667 25 OFFCURVE",
"403 25 CURVE SMOOTH",
"372.333 25 OFFCURVE",
"353.667 43.333 OFFCURVE",
"359 78 CURVE SMOOTH",
"359.667 86 OFFCURVE",
"362.167 94.833 OFFCURVE",
"366.5 104.5 CURVE SMOOTH",
"370.833 114.167 OFFCURVE",
"373.333 121.333 OFFCURVE",
"374 126 CURVE SMOOTH",
"379.333 156.667 OFFCURVE",
"358 177 OFFCURVE",
"322 177 CURVE SMOOTH",
"278 177 OFFCURVE",
"248.333 149.667 OFFCURVE",
"243 111 CURVE SMOOTH",
"231 24.333 OFFCURVE",
"300 -10 OFFCURVE",
"404 -10 CURVE SMOOTH"
);
},
{
closed = 1;
nodes = (
"632 562 LINE",
"608 597 LINE",
"345 340 LINE",
"384 325 LINE"
);
}
);
width = 667;
},
{
layerId = "6E1F4822-938D-406D-B3C9-5D869F42D31A";
paths = (
{
closed = 1;
nodes = (
"155 0 LINE",
"233 559 LINE SMOOTH",
"234.333 567.667 OFFCURVE",
"239 572 OFFCURVE",
"247 572 CURVE SMOOTH",
"498 572 LINE",
"498 597 LINE",
"106 597 LINE",
"101 570 LINE",
"143 572 LINE",
"145 572 LINE SMOOTH",
"156.333 572 OFFCURVE",
"161 565 OFFCURVE",
"159 551 CURVE SMOOTH",
"88 45 LINE SMOOTH",
"86 30.333 OFFCURVE",
"79 23 OFFCURVE",
"67 23 CURVE SMOOTH",
"26 26 LINE",
"22 0 LINE"
);
},
{
closed = 1;
nodes = (
"407.667 -10 OFFCURVE",
"500 70 OFFCURVE",
"500 182 CURVE SMOOTH",
"500 288 OFFCURVE",
"434.667 340.667 OFFCURVE",
"304 340 CURVE SMOOTH",
"260 340 LINE",
"258 324 LINE",
"403.333 321.333 OFFCURVE",
"432 273.667 OFFCURVE",
"432 187 CURVE SMOOTH",
"432 49.667 OFFCURVE",
"384 13 OFFCURVE",
"312 13 CURVE SMOOTH",
"250.667 13 OFFCURVE",
"248.333 41 OFFCURVE",
"259 77 CURVE SMOOTH",
"261.667 84.333 OFFCURVE",
"265 92 OFFCURVE",
"269 100 CURVE SMOOTH",
"273 108 OFFCURVE",
"275.333 116.667 OFFCURVE",
"276 126 CURVE SMOOTH",
"278.667 144.667 OFFCURVE",
"265.333 160 OFFCURVE",
"240 160 CURVE SMOOTH",
"213.333 160 OFFCURVE",
"198 145 OFFCURVE",
"194 117 CURVE SMOOTH",
"183.333 50.333 OFFCURVE",
"223.667 -10 OFFCURVE",
"317 -10 CURVE SMOOTH"
);
},
{
closed = 1;
nodes = (
"516 572 LINE",
"498 597 LINE",
"260 340 LINE",
"281 325 LINE"
);
}
);
width = 537;
}
);
unicode = 1E9E;
},
{
glyphname = Schwa;
layers = (
{
layerId = "9A6463FA-02C3-4660-BEDA-F7CC218AE705";
paths = (
{
closed = 1;
nodes = (
"482.333 -10 OFFCURVE",
"602 126.333 OFFCURVE",
"602 353 CURVE SMOOTH",
"602 519 OFFCURVE",
"521 603.333 OFFCURVE",
"359 606 CURVE SMOOTH",
"253.667 606 OFFCURVE",
"155.333 551.333 OFFCURVE",
"106 462 CURVE",
"135 438 LINE",
"173.667 507.333 OFFCURVE",
"247.667 560 OFFCURVE",
"341 560 CURVE SMOOTH",
"471.667 560 OFFCURVE",
"522.333 479 OFFCURVE",
"497 295 CURVE",
"67 295 LINE",
"61 255 LINE SMOOTH",
"42.333 89.667 OFFCURVE",
"117 -10 OFFCURVE",
"273 -10 CURVE SMOOTH"
);
},
{
closed = 1;
nodes = (
"181 17 OFFCURVE",
"135 83.667 OFFCURVE",
"155 217 CURVE SMOOTH",
"160.333 253 OFFCURVE",
"170.333 263 OFFCURVE",
"189 263 CURVE SMOOTH",
"491 263 LINE",
"471 119 OFFCURVE",
"399.667 17 OFFCURVE",
"281 17 CURVE SMOOTH"
);
}
);
width = 628;
},
{
layerId = "EC024578-EFD3-4C50-A1DE-0E38CDD8AD0F";
paths = (
{
closed = 1;
nodes = (
"484.333 -10 OFFCURVE",
"633 123.667 OFFCURVE",
"633 341 CURVE SMOOTH",
"633 517.667 OFFCURVE",
"547 606 OFFCURVE",
"375 606 CURVE SMOOTH",
"257.667 606 OFFCURVE",
"155 553.333 OFFCURVE",
"99 464 CURVE",
"123 437 LINE",
"173.667 499.667 OFFCURVE",
"240 549 OFFCURVE",
"340 549 CURVE SMOOTH",
"472 549 OFFCURVE",
"502 478.667 OFFCURVE",
"478 304 CURVE",
"51 304 LINE",
"44 253 LINE SMOOTH",
"22.667 85 OFFCURVE",
"99 -10 OFFCURVE",
"267 -10 CURVE SMOOTH"
);
},
{
closed = 1;
nodes = (
"175.667 25 OFFCURVE",
"162 98.333 OFFCURVE",
"178 213 CURVE SMOOTH",
"183.333 247.667 OFFCURVE",
"194.333 259 OFFCURVE",
"213 259 CURVE SMOOTH",
"471 259 LINE",
"452.333 127 OFFCURVE",
"405 25 OFFCURVE",
"285 25 CURVE SMOOTH"
);
}
);
width = 649;
},
{
layerId = "6E1F4822-938D-406D-B3C9-5D869F42D31A";
paths = (
{
closed = 1;
nodes = (
"481.333 -10 OFFCURVE",
"588 127.333 OFFCURVE",
"588 358 CURVE SMOOTH",
"588 519.333 OFFCURVE",
"509.333 602 OFFCURVE",
"352 606 CURVE SMOOTH",
"252 606 OFFCURVE",
"155.667 550.333 OFFCURVE",
"109 461 CURVE",
"140 438 LINE",
"173.333 510 OFFCURVE",
"251.667 565 OFFCURVE",
"341 565 CURVE SMOOTH",
"471.667 565 OFFCURVE",
"531.667 480.333 OFFCURVE",
"505 291 CURVE",
"74 291 LINE",
"69 256 LINE SMOOTH",
"51.667 93.333 OFFCURVE",
"125.333 -10 OFFCURVE",
"276 -10 CURVE SMOOTH"
);
},
{
closed = 1;
nodes = (
"183 13 OFFCURVE",
"123.667 77.667 OFFCURVE",
"145 219 CURVE SMOOTH",
"150.333 255 OFFCURVE",
"159.333 265 OFFCURVE",
"178 265 CURVE SMOOTH",
"500 265 LINE",
"480 117 OFFCURVE",
"397.667 13 OFFCURVE",
"279 13 CURVE SMOOTH"
);
}
);
width = 619;
}
);
unicode = 018F;
},
{
glyphname = T;
layers = (
{
anchors = (
{
name = bottom;
position = "{227, 0}";
},
{
name = center;
position = "{269, 303}";
},
{
name = top;
position = "{311, 597}";
}
);
layerId = "9A6463FA-02C3-4660-BEDA-F7CC218AE705";
paths = (
{
closed = 1;
nodes = (
"343 0 LINE",
"347 29 LINE",
"294 27 LINE SMOOTH",
"284.667 27 OFFCURVE",
"280 32.333 OFFCURVE",
"280 43 CURVE SMOOTH",
"280 49 LINE",
"351 558 LINE",
"351 565.333 OFFCURVE",
"355 569 OFFCURVE",
"363 569 CURVE SMOOTH",
"403 569 LINE SMOOTH",
"473.667 569 OFFCURVE",
"505 540.333 OFFCURVE",
"505 479 CURVE SMOOTH",
"505 468.333 OFFCURVE",
"504 456.333 OFFCURVE",
"502 443 CURVE",
"530 443 LINE",
"552 600 LINE",
"548 598 OFFCURVE",
"534.667 597 OFFCURVE",
"512 597 CURVE SMOOTH",
"108 597 LINE SMOOTH",
"92 597 OFFCURVE",
"78.667 597.667 OFFCURVE",
"68 599 CURVE",
"46 443 LINE",
"74 443 LINE",
"86 529.667 OFFCURVE",
"126 569 OFFCURVE",
"210 569 CURVE SMOOTH",
"250 569 LINE SMOOTH",
"255.333 569 OFFCURVE",
"258 566 OFFCURVE",
"258 560 CURVE SMOOTH",
"258 557 LINE",
"187 52 LINE SMOOTH",
"184.333 37.333 OFFCURVE",
"177.667 27 OFFCURVE",
"167 27 CURVE SMOOTH",
"113 29 LINE",
"109 0 LINE"
);
}
);
userData = {
assembly = "NPUSHB[ ]	/* 14 values pushed */
23 1 0 1 11 1 2 0 2 74 37 1 7 72 
MPPEM[ ]	/* MeasurePixelPerEm */
PUSHB[ ]	/* 1 value pushed */
10 
LT[ ]	/* LessThan */
IF[ ]	/* If */
NPUSHB[ ]	/* 31 values pushed */
6 1 0 1 2 1 0 112 5 1 1 1 7 93 0 7 7 17 75 4 1 2 2 3 93 0 3 3 21 3 76 
ELSE[ ]	/* Else */
NPUSHB[ ]	/* 32 values pushed */
6 1 0 1 2 1 0 2 126 5 1 1 1 7 93 0 7 7 17 75 4 1 2 2 3 93 0 3 3 21 3 76 
EIF[ ]	/* EndIf */
NPUSHB[ ]	/* 11 values pushed */
50 18 54 17 17 38 36 16 8 7 28 
CALL[ ]	/* CallFunction */";
};
width = 512;
},
{
anchors = (
{
name = bottom;
position = "{240, 0}";
},
{
name = center;
position = "{282, 303}";
},
{
name = top;
position = "{324, 597}";
}
);
layerId = "EC024578-EFD3-4C50-A1DE-0E38CDD8AD0F";
paths = (
{
closed = 1;
nodes = (
"381 0 LINE",
"386 37 LINE",
"333 35 LINE SMOOTH",
"322.333 35 OFFCURVE",
"317 40.667 OFFCURVE",
"317 52 CURVE SMOOTH",
"317 57 LINE",
"386 551 LINE",
"388 558.333 OFFCURVE",
"392.667 562 OFFCURVE",
"400 562 CURVE SMOOTH",
"419 562 LINE SMOOTH",
"493.667 562 OFFCURVE",
"525 535 OFFCURVE",
"525 475 CURVE SMOOTH",
"525 461.667 OFFCURVE",
"524.333 451.333 OFFCURVE",
"523 444 CURVE",
"557 444 LINE",
"579 600 LINE",
"572.333 598.667 OFFCURVE",
"556.667 598 OFFCURVE",
"532 598 CURVE SMOOTH",
"116 598 LINE SMOOTH",
"96.667 598 OFFCURVE",
"81 598.667 OFFCURVE",
"69 600 CURVE",
"47 444 LINE",
"81 444 LINE",
"91.667 525.333 OFFCURVE",
"134.333 562 OFFCURVE",
"221 562 CURVE SMOOTH",
"239 562 LINE SMOOTH",
"245 562 OFFCURVE",
"248 559 OFFCURVE",
"248 553 CURVE SMOOTH",
"248 550 LINE",
"180 60 LINE SMOOTH",
"177.333 46.667 OFFCURVE",
"169 35 OFFCURVE",
"157 35 CURVE SMOOTH",
"103 37 LINE",
"99 0 LINE"
);
}
);
userData = {
assembly = "NPUSHB[ ]	/* 14 values pushed */
22 1 0 1 10 1 2 0 2 74 36 1 7 72 
MPPEM[ ]	/* MeasurePixelPerEm */
PUSHB[ ]	/* 1 value pushed */
10 
LT[ ]	/* LessThan */
IF[ ]	/* If */
NPUSHB[ ]	/* 31 values pushed */
6 1 0 1 2 1 0 112 5 1 1 1 7 93 0 7 7 17 75 4 1 2 2 3 93 0 3 3 21 3 76 
ELSE[ ]	/* Else */
NPUSHB[ ]	/* 32 values pushed */
6 1 0 1 2 1 0 2 126 5 1 1 1 7 93 0 7 7 17 75 4 1 2 2 3 93 0 3 3 21 3 76 
EIF[ ]	/* EndIf */
NPUSHB[ ]	/* 11 values pushed */
50 18 53 33 17 36 52 16 8 7 28 
CALL[ ]	/* CallFunction */";
};
width = 540;
},
{
anchors = (
{
name = bottom;
position = "{221, 0}";
},
{
name = center;
position = "{263, 303}";
},
{
name = top;
position = "{305, 597}";
}
);
layerId = "6E1F4822-938D-406D-B3C9-5D869F42D31A";
paths = (
{
closed = 1;
nodes = (
"326 0 LINE",
"330 25 LINE",
"277 23 LINE SMOOTH",
"268.333 23 OFFCURVE",
"264 28.333 OFFCURVE",
"264 39 CURVE SMOOTH",
"264 45 LINE",
"335 561 LINE",
"334.333 567.667 OFFCURVE",
"338.333 571.333 OFFCURVE",
"347 572 CURVE SMOOTH",
"396 572 LINE SMOOTH",
"465.333 572 OFFCURVE",
"496 542.333 OFFCURVE",
"496 481 CURVE SMOOTH",
"496 471.667 OFFCURVE",
"495 459 OFFCURVE",
"493 443 CURVE",
"518 443 LINE",
"540 600 LINE",
"536.667 597.333 OFFCURVE",
"524.333 596.333 OFFCURVE",
"503 597 CURVE SMOOTH",
"104 597 LINE SMOOTH",
"90 597 OFFCURVE",
"78 597.667 OFFCURVE",
"68 599 CURVE",
"46 443 LINE",
"71 443 LINE",
"83 531 OFFCURVE",
"122.333 572 OFFCURVE",
"205 572 CURVE SMOOTH",
"255 572 LINE SMOOTH",
"259.667 572 OFFCURVE",
"262 569 OFFCURVE",
"262 563 CURVE SMOOTH",
"262 560 LINE",
"190 48 LINE SMOOTH",
"187.333 33.333 OFFCURVE",
"181.667 23 OFFCURVE",
"171 23 CURVE SMOOTH",
"117 25 LINE",
"113 0 LINE"
);
}
);
userData = {
assembly = "NPUSHB[ ]	/* 14 values pushed */
23 1 0 1 11 1 2 0 2 74 37 1 7 72 
MPPEM[ ]	/* MeasurePixelPerEm */
PUSHB[ ]	/* 1 value pushed */
10 
LT[ ]	/* LessThan */
IF[ ]	/* If */
NPUSHB[ ]	/* 31 values pushed */
6 1 0 1 2 1 0 112 5 1 1 1 7 93 0 7 7 17 75 4 1 2 2 3 93 0 3 3 21 3 76 
ELSE[ ]	/* Else */
NPUSHB[ ]	/* 32 values pushed */
6 1 0 1 2 1 0 2 126 5 1 1 1 7 93 0 7 7 17 75 4 1 2 2 3 93 0 3 3 21 3 76 
EIF[ ]	/* EndIf */
NPUSHB[ ]	/* 11 values pushed */
50 18 54 17 17 38 36 16 8 7 28 
CALL[ ]	/* CallFunction */";
};
width = 500;
}
);
leftKerningGroup = T;
note = T;
rightKerningGroup = T;
unicode = 0054;
},
{
glyphname = U;
layers = (
{
anchors = (
{
name = bottom;
position = "{318, 0}";
},
{
name = ogonek;
position = "{394, 0}";
},
{
name = top;
position = "{399, 597}";
},
{
name = topright;
position = "{456, 598}";
}
);
background = {
paths = (
{
closed = 1;
nodes = (
"661 597 LINE",
"503 597 LINE",
"499 567 LINE",
"548 569 LINE",
"561 569 OFFCURVE",
"561 553 QCURVE SMOOTH",
"561 548 LINE",
"512 198 LINE SMOOTH",
"499 110 OFFCURVE",
"409 26 OFFCURVE",
"324 26 QCURVE SMOOTH",
"254 26 OFFCURVE",
"177 98 OFFCURVE",
"177 163 QCURVE SMOOTH",
"177 180 OFFCURVE",
"180 199 QCURVE SMOOTH",
"229 549 LINE SMOOTH",
"232 569 OFFCURVE",
"250 569 QCURVE",
"299 567 LINE",
"303 597 LINE",
"88 597 LINE",
"84 567 LINE",
"123 569 LINE",
"129 569 OFFCURVE",
"136 560 OFFCURVE",
"136 553 QCURVE SMOOTH",
"136 548 LINE",
"87 199 LINE SMOOTH",
"84 180 OFFCURVE",
"84 161 QCURVE SMOOTH",
"84 77 OFFCURVE",
"197 -10 OFFCURVE",
"303 -10 QCURVE SMOOTH",
"412 -10 OFFCURVE",
"534 88 OFFCURVE",
"548 189 QCURVE SMOOTH",
"599 549 LINE SMOOTH",
"602 569 OFFCURVE",
"618 569 QCURVE",
"657 567 LINE"
);
}
);
};
layerId = "9A6463FA-02C3-4660-BEDA-F7CC218AE705";
paths = (
{
closed = 1;
nodes = (
"447 -10 OFFCURVE",
"529.333 54.333 OFFCURVE",
"548 189 CURVE SMOOTH",
"599 549 LINE SMOOTH",
"601 562.333 OFFCURVE",
"607.333 569 OFFCURVE",
"618 569 CURVE SMOOTH",
"657 567 LINE",
"661 597 LINE",
"503 597 LINE",
"499 567 LINE",
"548 569 LINE SMOOTH",
"556.667 569 OFFCURVE",
"561 563.667 OFFCURVE",
"561 553 CURVE SMOOTH",
"561 548 LINE",
"512 198 LINE SMOOTH",
"494.667 80.667 OFFCURVE",
"437.333 26 OFFCURVE",
"324 26 CURVE SMOOTH",
"230.667 26 OFFCURVE",
"177 76.333 OFFCURVE",
"177 163 CURVE SMOOTH",
"177 174.333 OFFCURVE",
"178 186.333 OFFCURVE",
"180 199 CURVE SMOOTH",
"229 549 LINE SMOOTH",
"231 562.333 OFFCURVE",
"238 569 OFFCURVE",
"250 569 CURVE SMOOTH",
"299 567 LINE",
"303 597 LINE",
"88 597 LINE",
"84 567 LINE",
"123 569 LINE SMOOTH",
"131 569 OFFCURVE",
"136 562.333 OFFCURVE",
"136 553 CURVE SMOOTH",
"136 548 LINE",
"87 199 LINE SMOOTH",
"85 186.333 OFFCURVE",
"84 173.667 OFFCURVE",
"84 161 CURVE SMOOTH",
"84 47 OFFCURVE",
"157 -10 OFFCURVE",
"303 -10 CURVE SMOOTH"
);
}
);
userData = {
assembly = "NPUSHB[ ]	/* 43 values pushed */
34 13 2 5 0 1 74 6 4 2 3 0 0 3 93 7 1 3 3 17 75 0 5 5 1 95 0 1 1 26 1 76 17 37 38 33 17 40 36 32 8 7 28 
CALL[ ]	/* CallFunction */";
};
width = 631;
},
{
anchors = (
{
name = bottom;
position = "{349, 0}";
},
{
name = ogonek;
position = "{410, 0}";
},
{
name = top;
position = "{430, 597}";
},
{
name = topright;
position = "{487, 598}";
}
);
layerId = "EC024578-EFD3-4C50-A1DE-0E38CDD8AD0F";
paths = (
{
closed = 1;
nodes = (
"474.333 -10 OFFCURVE",
"549 63 OFFCURVE",
"569 203 CURVE SMOOTH",
"617 542 LINE SMOOTH",
"619 555.333 OFFCURVE",
"626.333 562 OFFCURVE",
"639 562 CURVE SMOOTH",
"677 560 LINE",
"683 597 LINE",
"515 597 LINE",
"510 560 LINE",
"559 562 LINE SMOOTH",
"569 562 OFFCURVE",
"574 556 OFFCURVE",
"574 544 CURVE SMOOTH",
"574 541 LINE",
"526 203 LINE SMOOTH",
"511.333 92.333 OFFCURVE",
"461.333 32 OFFCURVE",
"356 32 CURVE SMOOTH",
"270.667 32 OFFCURVE",
"224 73.667 OFFCURVE",
"224 159 CURVE SMOOTH",
"224 171.667 OFFCURVE",
"225 185 OFFCURVE",
"227 199 CURVE SMOOTH",
"276 542 LINE SMOOTH",
"278 555.333 OFFCURVE",
"285.333 562 OFFCURVE",
"298 562 CURVE SMOOTH",
"346 560 LINE",
"352 597 LINE",
"89 597 LINE",
"83 560 LINE",
"122 562 LINE SMOOTH",
"131.333 562 OFFCURVE",
"138 553.667 OFFCURVE",
"138 543 CURVE SMOOTH",
"138 541 LINE",
"89 199 LINE SMOOTH",
"87 185 OFFCURVE",
"86 172 OFFCURVE",
"86 160 CURVE SMOOTH",
"86 46.667 OFFCURVE",
"165.667 -10 OFFCURVE",
"325 -10 CURVE SMOOTH"
);
}
);
userData = {
assembly = "NPUSHB[ ]	/* 43 values pushed */
35 13 2 5 0 1 74 6 4 2 3 0 0 3 93 7 1 3 3 17 75 0 5 5 1 95 0 1 1 26 1 76 17 37 39 33 17 39 38 16 8 7 28 
CALL[ ]	/* CallFunction */";
};
width = 654;
},
{
anchors = (
{
name = bottom;
position = "{304, 0}";
},
{
name = ogonek;
position = "{387, 0}";
},
{
name = top;
position = "{385, 597}";
},
{
name = topright;
position = "{442, 598}";
}
);
layerId = "6E1F4822-938D-406D-B3C9-5D869F42D31A";
paths = (
{
closed = 1;
nodes = (
"434.333 -10 OFFCURVE",
"520.333 49.667 OFFCURVE",
"539 183 CURVE SMOOTH",
"591 552 LINE SMOOTH",
"593 565.333 OFFCURVE",
"599 572 OFFCURVE",
"609 572 CURVE SMOOTH",
"648 570 LINE",
"651 597 LINE",
"498 597 LINE",
"494 570 LINE",
"543 572 LINE SMOOTH",
"551 572 OFFCURVE",
"555 567 OFFCURVE",
"555 557 CURVE SMOOTH",
"555 551 LINE",
"506 196 LINE SMOOTH",
"487.333 74.667 OFFCURVE",
"426 23 OFFCURVE",
"310 23 CURVE SMOOTH",
"212.667 23 OFFCURVE",
"156 77 OFFCURVE",
"156 165 CURVE SMOOTH",
"156 175.667 OFFCURVE",
"157 187 OFFCURVE",
"159 199 CURVE SMOOTH",
"208 552 LINE SMOOTH",
"210 565.333 OFFCURVE",
"217 572 OFFCURVE",
"229 572 CURVE SMOOTH",
"278 570 LINE",
"281 597 LINE",
"88 597 LINE",
"84 570 LINE",
"123 572 LINE SMOOTH",
"131 572 OFFCURVE",
"135 566.333 OFFCURVE",
"135 557 CURVE SMOOTH",
"135 551 LINE",
"86 199 LINE SMOOTH",
"84 187 OFFCURVE",
"83 174.333 OFFCURVE",
"83 161 CURVE SMOOTH",
"83 47 OFFCURVE",
"153 -10 OFFCURVE",
"293 -10 CURVE SMOOTH"
);
}
);
userData = {
assembly = "NPUSHB[ ]	/* 43 values pushed */
34 13 2 5 0 1 74 6 4 2 3 0 0 3 93 7 1 3 3 17 75 0 5 5 1 95 0 1 1 26 1 76 17 37 38 33 17 40 36 32 8 7 28 
CALL[ ]	/* CallFunction */";
};
width = 621;
}
);
note = U;
rightKerningGroup = U;
unicode = 0055;
},
{
color = 3;
glyphname = Uhorn;
layers = (
{
anchors = (
{
name = bottom;
position = "{315, 0}";
},
{
name = top;
position = "{396, 597}";
}
);
layerId = "9A6463FA-02C3-4660-BEDA-F7CC218AE705";
paths = (
{
closed = 1;
nodes = (
"447 -10 OFFCURVE",
"529.333 54.333 OFFCURVE",
"548 189 CURVE SMOOTH",
"606 597 LINE",
"503 597 LINE",
"499 567 LINE",
"548 569 LINE SMOOTH",
"556.667 569 OFFCURVE",
"561 563.667 OFFCURVE",
"561 553 CURVE SMOOTH",
"561 548 LINE",
"512 198 LINE SMOOTH",
"494.667 80.667 OFFCURVE",
"437.333 26 OFFCURVE",
"324 26 CURVE SMOOTH",
"230.667 26 OFFCURVE",
"177 76.333 OFFCURVE",
"177 163 CURVE SMOOTH",
"177 174.333 OFFCURVE",
"178 186.333 OFFCURVE",
"180 199 CURVE SMOOTH",
"229 549 LINE SMOOTH",
"231 562.333 OFFCURVE",
"238 569 OFFCURVE",
"250 569 CURVE SMOOTH",
"299 567 LINE",
"303 597 LINE",
"88 597 LINE",
"84 567 LINE",
"123 569 LINE SMOOTH",
"131 569 OFFCURVE",
"136 562.333 OFFCURVE",
"136 553 CURVE SMOOTH",
"136 548 LINE",
"87 199 LINE SMOOTH",
"85 186.333 OFFCURVE",
"84 173.667 OFFCURVE",
"84 161 CURVE SMOOTH",
"84 47 OFFCURVE",
"157 -10 OFFCURVE",
"303 -10 CURVE SMOOTH"
);
},
{
closed = 1;
nodes = (
"686.333 575.333 OFFCURVE",
"734.667 612.333 OFFCURVE",
"744 679 CURVE SMOOTH",
"748 709.667 OFFCURVE",
"731.667 730 OFFCURVE",
"701 730 CURVE SMOOTH",
"674.333 730 OFFCURVE",
"654.667 713.667 OFFCURVE",
"652 691 CURVE SMOOTH",
"650 677.667 OFFCURVE",
"654.5 668 OFFCURVE",
"665.5 662 CURVE SMOOTH",
"676.5 656 OFFCURVE",
"681.333 648.333 OFFCURVE",
"680 639 CURVE SMOOTH",
"675.333 609 OFFCURVE",
"647.667 595 OFFCURVE",
"597 597 CURVE",
"599 568 LINE"
);
}
);
width = 661;
},
{
anchors = (
{
name = bottom;
position = "{349, 0}";
},
{
name = top;
position = "{430, 597}";
}
);
layerId = "EC024578-EFD3-4C50-A1DE-0E38CDD8AD0F";
paths = (
{
closed = 1;
nodes = (
"474.333 -10 OFFCURVE",
"549 63 OFFCURVE",
"569 203 CURVE SMOOTH",
"625 597 LINE",
"515 597 LINE",
"510 560 LINE",
"559 562 LINE SMOOTH",
"569 562 OFFCURVE",
"574 556 OFFCURVE",
"574 544 CURVE SMOOTH",
"574 541 LINE",
"526 203 LINE SMOOTH",
"511.333 92.333 OFFCURVE",
"461.333 32 OFFCURVE",
"356 32 CURVE SMOOTH",
"270.667 32 OFFCURVE",
"224 73.667 OFFCURVE",
"224 159 CURVE SMOOTH",
"224 171.667 OFFCURVE",
"225 185 OFFCURVE",
"227 199 CURVE SMOOTH",
"276 542 LINE SMOOTH",
"278 555.333 OFFCURVE",
"285.333 562 OFFCURVE",
"298 562 CURVE SMOOTH",
"346 560 LINE",
"352 597 LINE",
"89 597 LINE",
"83 560 LINE",
"122 562 LINE SMOOTH",
"131.333 562 OFFCURVE",
"138 553.667 OFFCURVE",
"138 543 CURVE SMOOTH",
"138 541 LINE",
"89 199 LINE SMOOTH",
"87 185 OFFCURVE",
"86 172 OFFCURVE",
"86 160 CURVE SMOOTH",
"86 46.667 OFFCURVE",
"165.667 -10 OFFCURVE",
"325 -10 CURVE SMOOTH"
);
},
{
closed = 1;
nodes = (
"714.333 559.333 OFFCURVE",
"769.333 603.667 OFFCURVE",
"782 691 CURVE SMOOTH",
"787.333 727 OFFCURVE",
"768 753 OFFCURVE",
"732 753 CURVE SMOOTH",
"702.667 753 OFFCURVE",
"674 735.333 OFFCURVE",
"670 702 CURVE SMOOTH",
"668 685.333 OFFCURVE",
"673 674.167 OFFCURVE",
"685 668.5 CURVE SMOOTH",
"697 662.833 OFFCURVE",
"702 653.667 OFFCURVE",
"700 641 CURVE SMOOTH",
"695.333 611.667 OFFCURVE",
"666.333 597 OFFCURVE",
"613 597 CURVE",
"617 558 LINE"
);
}
);
width = 684;
},
{
anchors = (
{
name = bottom;
position = "{300, 0}";
},
{
name = top;
position = "{381, 597}";
}
);
layerId = "6E1F4822-938D-406D-B3C9-5D869F42D31A";
paths = (
{
closed = 1;
nodes = (
"434.333 -10 OFFCURVE",
"520.333 49.667 OFFCURVE",
"539 183 CURVE SMOOTH",
"598 597 LINE",
"498 597 LINE",
"494 570 LINE",
"543 572 LINE SMOOTH",
"551 572 OFFCURVE",
"555 567 OFFCURVE",
"555 557 CURVE SMOOTH",
"555 551 LINE",
"506 196 LINE SMOOTH",
"487.333 74.667 OFFCURVE",
"426 23 OFFCURVE",
"310 23 CURVE SMOOTH",
"212.667 23 OFFCURVE",
"156 77 OFFCURVE",
"156 165 CURVE SMOOTH",
"156 175.667 OFFCURVE",
"157 187 OFFCURVE",
"159 199 CURVE SMOOTH",
"208 552 LINE SMOOTH",
"210 565.333 OFFCURVE",
"217 572 OFFCURVE",
"229 572 CURVE SMOOTH",
"278 570 LINE",
"281 597 LINE",
"88 597 LINE",
"84 570 LINE",
"123 572 LINE SMOOTH",
"131 572 OFFCURVE",
"135 566.333 OFFCURVE",
"135 557 CURVE SMOOTH",
"135 551 LINE",
"86 199 LINE SMOOTH",
"84 187 OFFCURVE",
"83 174.333 OFFCURVE",
"83 161 CURVE SMOOTH",
"83 47 OFFCURVE",
"153 -10 OFFCURVE",
"293 -10 CURVE SMOOTH"
);
},
{
closed = 1;
nodes = (
"673.667 582 OFFCURVE",
"719 616 OFFCURVE",
"727 674 CURVE SMOOTH",
"731 703.333 OFFCURVE",
"715 720 OFFCURVE",
"687 720 CURVE SMOOTH",
"661.667 720 OFFCURVE",
"646.667 704.667 OFFCURVE",
"644 686 CURVE SMOOTH",
"642 674 OFFCURVE",
"646.333 665.167 OFFCURVE",
"657 659.5 CURVE SMOOTH",
"667.667 653.833 OFFCURVE",
"672.333 646.667 OFFCURVE",
"671 638 CURVE SMOOTH",
"666.333 608 OFFCURVE",
"639.333 594.333 OFFCURVE",
"590 597 CURVE",
"591 572 LINE"
);
}
);
width = 651;
}
);
unicode = 01AF;
},
{
glyphname = V;
layers = (
{
layerId = "9A6463FA-02C3-4660-BEDA-F7CC218AE705";
paths = (
{
closed = 1;
nodes = (
"275 -4 LINE",
"577 546 LINE SMOOTH",
"581.667 554.667 OFFCURVE",
"585.5 560.667 OFFCURVE",
"588.5 564 CURVE SMOOTH",
"591.5 567.333 OFFCURVE",
"595 569 OFFCURVE",
"599 569 CURVE SMOOTH",
"635 567 LINE",
"639 597 LINE",
"485 597 LINE",
"481 567 LINE",
"532 569 LINE SMOOTH",
"538 569 OFFCURVE",
"541 566.333 OFFCURVE",
"541 561 CURVE SMOOTH",
"541 556.333 OFFCURVE",
"539.333 551.333 OFFCURVE",
"536 546 CURVE SMOOTH",
"311 134 LINE",
"192 545 LINE SMOOTH",
"188 558.333 OFFCURVE",
"190 569 OFFCURVE",
"202 569 CURVE SMOOTH",
"255 567 LINE",
"259 597 LINE",
"49 597 LINE",
"45 567 LINE",
"73 569 LINE SMOOTH",
"81 569 OFFCURVE",
"87 561.333 OFFCURVE",
"91 546 CURVE SMOOTH",
"246 -4 LINE"
);
}
);
userData = {
assembly = "NPUSHB[ ]	/* 43 values pushed */
21 11 2 1 0 1 74 5 4 2 3 0 0 3 93 7 6 2 3 3 17 75 0 1 1 18 1 76 0 0 0 28 0 28 42 17 18 18 20 17 8 7 26 
CALL[ ]	/* CallFunction */";
};
width = 564;
},
{
layerId = "EC024578-EFD3-4C50-A1DE-0E38CDD8AD0F";
paths = (
{
closed = 1;
nodes = (
"304 -4 LINE",
"612 539 LINE SMOOTH",
"617.333 548.333 OFFCURVE",
"621.5 554.5 OFFCURVE",
"624.5 557.5 CURVE SMOOTH",
"627.5 560.5 OFFCURVE",
"631.333 562 OFFCURVE",
"636 562 CURVE SMOOTH",
"671 560 LINE",
"677 597 LINE",
"516 597 LINE",
"510 560 LINE",
"559 562 LINE SMOOTH",
"566.333 562 OFFCURVE",
"570 559.333 OFFCURVE",
"570 554 CURVE SMOOTH",
"570 550 OFFCURVE",
"566.667 542 OFFCURVE",
"560 530 CURVE SMOOTH",
"350 159 LINE",
"239 538 LINE SMOOTH",
"236.333 550 OFFCURVE",
"242.667 562 OFFCURVE",
"252 562 CURVE SMOOTH",
"301 560 LINE",
"306 597 LINE",
"52 597 LINE",
"47 560 LINE",
"75 562 LINE SMOOTH",
"83 562.667 OFFCURVE",
"89.333 555 OFFCURVE",
"94 539 CURVE SMOOTH",
"251 -4 LINE"
);
}
);
userData = {
assembly = "NPUSHB[ ]	/* 42 values pushed */
20 1 1 0 1 74 5 4 2 3 0 0 3 93 7 6 2 3 3 17 75 0 1 1 18 1 76 0 0 0 27 0 27 40 17 17 35 20 17 8 7 26 
CALL[ ]	/* CallFunction */";
};
width = 602;
},
{
layerId = "6E1F4822-938D-406D-B3C9-5D869F42D31A";
paths = (
{
closed = 1;
nodes = (
"262 -4 LINE",
"561 549 LINE SMOOTH",
"565.667 557.667 OFFCURVE",
"569.5 563.667 OFFCURVE",
"572.5 567 CURVE SMOOTH",
"575.5 570.333 OFFCURVE",
"579 572 OFFCURVE",
"583 572 CURVE SMOOTH",
"619 570 LINE",
"622 597 LINE",
"471 597 LINE",
"468 570 LINE",
"520 572 LINE SMOOTH",
"525.333 572 OFFCURVE",
"528 569.333 OFFCURVE",
"528 564 CURVE SMOOTH",
"528 559.333 OFFCURVE",
"527 555.667 OFFCURVE",
"525 553 CURVE",
"294 123 LINE",
"171 548 LINE SMOOTH",
"167 561.333 OFFCURVE",
"166.667 572 OFFCURVE",
"180 572 CURVE SMOOTH",
"235 570 LINE",
"238 597 LINE",
"48 597 LINE",
"44 570 LINE",
"72 572 LINE SMOOTH",
"79.333 572 OFFCURVE",
"85.333 564.333 OFFCURVE",
"90 549 CURVE SMOOTH",
"244 -4 LINE"
);
}
);
userData = {
assembly = "NPUSHB[ ]	/* 43 values pushed */
21 11 2 1 0 1 74 5 4 2 3 0 0 3 93 7 6 2 3 3 17 75 0 1 1 18 1 76 0 0 0 28 0 28 42 17 18 18 20 17 8 7 26 
CALL[ ]	/* CallFunction */";
};
width = 547;
}
);
leftKerningGroup = V;
note = V;
rightKerningGroup = V;
unicode = 0056;
},
{
glyphname = W;
layers = (
{
anchors = (
{
name = top;
position = "{504, 597}";
}
);
background = {
paths = (
{
closed = 1;
nodes = (
"778 597 LINE",
"774 567 LINE",
"826 569 LINE",
"835 569 OFFCURVE",
"835 561 QCURVE SMOOTH",
"835 555 OFFCURVE",
"832 549 QCURVE",
"657 145 LINE",
"552 547 LINE",
"551 550 OFFCURVE",
"551 569 OFFCURVE",
"561 569 QCURVE",
"605 567 LINE",
"609 597 LINE",
"406 597 LINE",
"402 567 LINE",
"443 569 LINE",
"450 569 OFFCURVE",
"456 563 OFFCURVE",
"458 556 QCURVE",
"284 160 LINE",
"192 547 LINE",
"190 559 LINE",
"190 569 OFFCURVE",
"200 569 QCURVE",
"256 567 LINE",
"260 597 LINE",
"49 597 LINE",
"45 567 LINE",
"75 569 LINE",
"87 569 OFFCURVE",
"91 547 QCURVE",
"221 -10 LINE",
"242 -10 LINE",
"471 505 LINE",
"602 -10 LINE",
"620 -10 LINE",
"869 548 LINE",
"880 569 OFFCURVE",
"894 569 QCURVE",
"925 567 LINE",
"929 597 LINE"
);
}
);
};
layerId = "9A6463FA-02C3-4660-BEDA-F7CC218AE705";
paths = (
{
closed = 1;
nodes = (
"242 -10 LINE",
"471 505 LINE",
"602 -10 LINE",
"620 -10 LINE",
"869 548 LINE SMOOTH",
"876.333 562 OFFCURVE",
"884.667 569 OFFCURVE",
"894 569 CURVE SMOOTH",
"925 567 LINE",
"929 597 LINE",
"778 597 LINE",
"774 567 LINE",
"826 569 LINE SMOOTH",
"832 569 OFFCURVE",
"835 566.333 OFFCURVE",
"835 561 CURVE SMOOTH",
"835 557 OFFCURVE",
"834 553 OFFCURVE",
"832 549 CURVE SMOOTH",
"657 145 LINE",
"539 597 LINE",
"476 597 LINE",
"284 160 LINE",
"192 547 LINE",
"190 559 LINE",
"190 565.667 OFFCURVE",
"193.333 569 OFFCURVE",
"200 569 CURVE SMOOTH",
"256 567 LINE",
"260 597 LINE",
"49 597 LINE",
"45 567 LINE",
"75 569 LINE SMOOTH",
"83 569 OFFCURVE",
"88.333 561.667 OFFCURVE",
"91 547 CURVE SMOOTH",
"221 -10 LINE"
);
}
);
userData = {
assembly = "NPUSHB[ ]	/* 55 values pushed */
36 33 21 19 7 5 1 0 1 74 9 8 6 5 3 5 0 0 4 93 11 10 7 3 4 4 17 75 2 1 1 1 18 1 76 0 0 0 43 0 43 42 40 33 17 39 33 17 34 18 18 33 12 7 29 
CALL[ ]	/* CallFunction */";
};
width = 854;
},
{
anchors = (
{
name = top;
position = "{534, 597}";
}
);
background = {
paths = (
{
closed = 1;
nodes = (
"819 597 LINE",
"812 560 LINE",
"865 562 LINE",
"875 562 OFFCURVE",
"875 552 QCURVE SMOOTH",
"875 550 OFFCURVE",
"873 542 QCURVE",
"692 159 LINE",
"606 540 LINE",
"604 547 OFFCURVE",
"612 562 OFFCURVE",
"619 562 QCURVE",
"661 560 LINE",
"666 597 LINE",
"420 597 LINE",
"415 560 LINE",
"457 562 LINE",
"466 562 OFFCURVE",
"473 549 OFFCURVE",
"479 526 QCURVE",
"315 183 LINE",
"236 540 LINE",
"235 549 LINE",
"235 562 OFFCURVE",
"249 562 QCURVE",
"300 560 LINE",
"305 597 LINE",
"51 597 LINE",
"46 560 LINE",
"77 562 LINE",
"90 562 OFFCURVE",
"93 540 QCURVE",
"217 -10 LINE",
"267 -10 LINE",
"493 467 LINE",
"609 -10 LINE",
"655 -10 LINE",
"916 541 LINE SMOOTH",
"927 563 OFFCURVE",
"943 562 QCURVE SMOOTH",
"972 560 LINE",
"978 597 LINE"
);
}
);
};
layerId = "EC024578-EFD3-4C50-A1DE-0E38CDD8AD0F";
paths = (
{
closed = 1;
nodes = (
"267 -10 LINE",
"493 467 LINE",
"609 -10 LINE",
"655 -10 LINE",
"916 541 LINE SMOOTH",
"923.333 555.667 OFFCURVE",
"932.333 562.667 OFFCURVE",
"943 562 CURVE SMOOTH",
"972 560 LINE",
"978 597 LINE",
"819 597 LINE",
"812 560 LINE",
"865 562 LINE SMOOTH",
"871.667 562 OFFCURVE",
"875 558.667 OFFCURVE",
"875 552 CURVE SMOOTH",
"875 550.667 OFFCURVE",
"874.333 547.333 OFFCURVE",
"873 542 CURVE",
"692 159 LINE",
"593 597 LINE",
"513 597 LINE",
"315 183 LINE",
"236 540 LINE",
"235 549 LINE SMOOTH",
"235 557.667 OFFCURVE",
"239.667 562 OFFCURVE",
"249 562 CURVE SMOOTH",
"300 560 LINE",
"305 597 LINE",
"51 597 LINE",
"46 560 LINE",
"77 562 LINE SMOOTH",
"85.667 562 OFFCURVE",
"91 554.667 OFFCURVE",
"93 540 CURVE",
"217 -10 LINE"
);
}
);
userData = {
assembly = "NPUSHB[ ]	/* 54 values pushed */
37 23 20 8 4 1 0 1 74 9 8 6 5 3 5 0 0 4 93 11 10 7 3 4 4 17 75 2 1 1 1 18 1 76 0 0 0 44 0 44 43 41 17 17 40 33 17 34 18 19 33 12 7 29 
CALL[ ]	/* CallFunction */";
};
width = 904;
},
{
anchors = (
{
name = top;
position = "{491, 597}";
}
);
layerId = "6E1F4822-938D-406D-B3C9-5D869F42D31A";
paths = (
{
closed = 1;
nodes = (
"231 -10 LINE",
"461 522 LINE",
"599 -10 LINE",
"604 -10 LINE",
"848 551 LINE",
"855.333 565 OFFCURVE",
"863.333 572 OFFCURVE",
"872 572 CURVE SMOOTH",
"904 570 LINE",
"907 597 LINE",
"760 597 LINE",
"757 570 LINE",
"809 572 LINE SMOOTH",
"814.333 572 OFFCURVE",
"817 569.667 OFFCURVE",
"817 565 CURVE SMOOTH",
"817 559.667 OFFCURVE",
"816 555.333 OFFCURVE",
"814 552 CURVE",
"641 139 LINE",
"515 597 LINE",
"460 597 LINE",
"270 150 LINE",
"172 550 LINE",
"170 563 LINE",
"170 569 OFFCURVE",
"172.667 572 OFFCURVE",
"178 572 CURVE SMOOTH",
"236 570 LINE",
"240 597 LINE",
"48 597 LINE",
"45 570 LINE",
"74 572 LINE SMOOTH",
"82 572 OFFCURVE",
"87.333 564.667 OFFCURVE",
"90 550 CURVE SMOOTH",
"223 -10 LINE"
);
}
);
userData = {
assembly = "NPUSHB[ ]	/* 55 values pushed */
36 33 21 19 7 5 1 0 1 74 9 8 6 5 3 5 0 0 4 93 11 10 7 3 4 4 17 75 2 1 1 1 18 1 76 0 0 0 43 0 43 42 40 33 17 39 33 17 34 18 18 33 12 7 29 
CALL[ ]	/* CallFunction */";
};
width = 832;
}
);
leftKerningGroup = V;
note = W;
rightKerningGroup = V;
unicode = 0057;
},
{
glyphname = X;
layers = (
{
layerId = "9A6463FA-02C3-4660-BEDA-F7CC218AE705";
paths = (
{
closed = 1;
nodes = (
"156 0 LINE",
"160 30 LINE",
"114 27 LINE SMOOTH",
"110 27 OFFCURVE",
"108 29.333 OFFCURVE",
"108 34 CURVE SMOOTH",
"108 38 OFFCURVE",
"109.667 42.333 OFFCURVE",
"113 47 CURVE SMOOTH",
"272 261 LINE",
"362 51 LINE SMOOTH",
"364 46.333 OFFCURVE",
"365 42 OFFCURVE",
"365 38 CURVE SMOOTH",
"365 30.667 OFFCURVE",
"361.333 27 OFFCURVE",
"354 27 CURVE SMOOTH",
"305 30 LINE",
"301 0 LINE",
"531 0 LINE",
"535 30 LINE",
"496 27 LINE SMOOTH",
"484 25.667 OFFCURVE",
"475.333 34.667 OFFCURVE",
"470 44 CURVE",
"347 329 LINE",
"511 549 LINE SMOOTH",
"522.333 563.667 OFFCURVE",
"533 570.333 OFFCURVE",
"543 569 CURVE SMOOTH",
"574 567 LINE",
"578 597 LINE",
"429 597 LINE",
"425 567 LINE",
"468 569 LINE SMOOTH",
"474 569 OFFCURVE",
"477 566.667 OFFCURVE",
"477 562 CURVE SMOOTH",
"477 558.667 OFFCURVE",
"475 554.333 OFFCURVE",
"471 549 CURVE SMOOTH",
"332 363 LINE",
"254 548 LINE",
"248.667 557.333 OFFCURVE",
"253 569 OFFCURVE",
"269 569 CURVE SMOOTH",
"311 567 LINE",
"315 597 LINE",
"92 597 LINE",
"88 567 LINE",
"121 569 LINE SMOOTH",
"133 569 OFFCURVE",
"141.667 562.667 OFFCURVE",
"147 550 CURVE SMOOTH",
"258 295 LINE",
"74 50 LINE SMOOTH",
"63.333 35.333 OFFCURVE",
"52 28 OFFCURVE",
"40 28 CURVE SMOOTH",
"3 30 LINE",
"-1 0 LINE"
);
}
);
userData = {
assembly = "NPUSHB[ ]	/* 60 values pushed */
44 32 19 16 10 5 6 2 0 1 74 9 8 6 3 0 0 7 93 11 10 2 7 7 17 75 5 3 2 2 2 1 93 4 1 1 1 21 1 76 0 0 0 52 0 52 51 49 33 17 36 33 17 40 33 25 17 12 7 29 
CALL[ ]	/* CallFunction */";
};
width = 549;
},
{
layerId = "EC024578-EFD3-4C50-A1DE-0E38CDD8AD0F";
paths = (
{
closed = 1;
nodes = (
"155 0 LINE",
"161 38 LINE",
"115 35 LINE SMOOTH",
"109.667 35 OFFCURVE",
"107 37.667 OFFCURVE",
"107 43 CURVE SMOOTH",
"107 45.667 OFFCURVE",
"108.667 49.667 OFFCURVE",
"112 55 CURVE SMOOTH",
"261 250 LINE",
"347 57 LINE SMOOTH",
"349.667 50.333 OFFCURVE",
"351 46 OFFCURVE",
"351 44 CURVE SMOOTH",
"351 37.333 OFFCURVE",
"347.333 34 OFFCURVE",
"340 34 CURVE SMOOTH",
"289 37 LINE",
"284 0 LINE",
"559 0 LINE",
"564 37 LINE",
"532 34 LINE SMOOTH",
"518.667 32.667 OFFCURVE",
"510.333 40.333 OFFCURVE",
"505 51 CURVE SMOOTH",
"378 331 LINE",
"539 542 LINE SMOOTH",
"549 555.333 OFFCURVE",
"560 562 OFFCURVE",
"572 562 CURVE SMOOTH",
"606 560 LINE",
"612 597 LINE",
"449 597 LINE",
"444 560 LINE",
"488 562 LINE SMOOTH",
"494.667 562 OFFCURVE",
"498 559.667 OFFCURVE",
"498 555 CURVE SMOOTH",
"498 551.667 OFFCURVE",
"496 547.333 OFFCURVE",
"492 542 CURVE SMOOTH",
"362 374 LINE",
"291 541 LINE",
"285.667 550.333 OFFCURVE",
"291 562 OFFCURVE",
"307 562 CURVE SMOOTH",
"349 560 LINE",
"354 597 LINE",
"86 597 LINE",
"81 560 LINE",
"106 562 LINE SMOOTH",
"119.333 562 OFFCURVE",
"128.667 555.667 OFFCURVE",
"134 543 CURVE SMOOTH",
"246 293 LINE",
"67 58 LINE SMOOTH",
"56.333 43.333 OFFCURVE",
"44 36 OFFCURVE",
"30 36 CURVE SMOOTH",
"-5 38 LINE",
"-11 0 LINE"
);
}
);
userData = {
assembly = "NPUSHB[ ]	/* 61 values pushed */
45 37 33 20 17 10 5 7 2 0 1 74 9 8 6 3 0 0 7 93 11 10 2 7 7 17 75 5 3 2 2 2 1 93 4 1 1 1 21 1 76 0 0 0 52 0 52 51 49 33 18 20 33 17 40 49 24 33 12 7 29 
CALL[ ]	/* CallFunction */";
};
width = 581;
},
{
layerId = "6E1F4822-938D-406D-B3C9-5D869F42D31A";
paths = (
{
closed = 1;
nodes = (
"156 0 LINE",
"160 26 LINE",
"114 23 LINE SMOOTH",
"110 23 OFFCURVE",
"108 25.333 OFFCURVE",
"108 30 CURVE SMOOTH",
"108 34.667 OFFCURVE",
"109.667 39 OFFCURVE",
"113 43 CURVE SMOOTH",
"277 266 LINE",
"369 48 LINE SMOOTH",
"370.333 44.667 OFFCURVE",
"371 40.333 OFFCURVE",
"371 35 CURVE SMOOTH",
"371 27.667 OFFCURVE",
"367.333 24 OFFCURVE",
"360 24 CURVE SMOOTH",
"312 27 LINE",
"309 0 LINE",
"519 0 LINE",
"522 27 LINE",
"480 24 LINE SMOOTH",
"468 22.667 OFFCURVE",
"459.333 31.667 OFFCURVE",
"454 41 CURVE",
"333 328 LINE",
"499 552 LINE SMOOTH",
"510.333 566.667 OFFCURVE",
"520.667 573.333 OFFCURVE",
"530 572 CURVE SMOOTH",
"560 570 LINE",
"563 597 LINE",
"420 597 LINE",
"417 570 LINE",
"459 572 LINE SMOOTH",
"465 572 OFFCURVE",
"468 569.667 OFFCURVE",
"468 565 CURVE SMOOTH",
"468 561.667 OFFCURVE",
"466 557.333 OFFCURVE",
"462 552 CURVE SMOOTH",
"319 358 LINE",
"238 551 LINE",
"232.667 560.333 OFFCURVE",
"236 572 OFFCURVE",
"252 572 CURVE SMOOTH",
"294 570 LINE",
"298 597 LINE",
"95 597 LINE",
"91 570 LINE",
"128 572 LINE SMOOTH",
"139.333 572 OFFCURVE",
"147.667 565.667 OFFCURVE",
"153 553 CURVE SMOOTH",
"263 296 LINE",
"77 46 LINE SMOOTH",
"66.333 31.333 OFFCURVE",
"55.333 24 OFFCURVE",
"44 24 CURVE SMOOTH",
"7 26 LINE",
"3 0 LINE"
);
}
);
userData = {
assembly = "NPUSHB[ ]	/* 60 values pushed */
44 32 19 16 10 5 6 2 0 1 74 9 8 6 3 0 0 7 93 11 10 2 7 7 17 75 5 3 2 2 2 1 93 4 1 1 1 21 1 76 0 0 0 52 0 52 51 49 33 17 36 33 17 40 33 25 17 12 7 29 
CALL[ ]	/* CallFunction */";
};
width = 535;
}
);
note = X;
unicode = 0058;
},
{
glyphname = Y;
layers = (
{
anchors = (
{
name = bottom;
position = "{228, 0}";
},
{
name = top;
position = "{311, 597}";
}
);
layerId = "9A6463FA-02C3-4660-BEDA-F7CC218AE705";
paths = (
{
closed = 1;
nodes = (
"340 0 LINE",
"344 29 LINE",
"296 27 LINE SMOOTH",
"286 27 OFFCURVE",
"281 32 OFFCURVE",
"281 42 CURVE SMOOTH",
"281 48 LINE",
"315 288 LINE",
"492 548 LINE SMOOTH",
"502 562 OFFCURVE",
"511.667 569 OFFCURVE",
"521 569 CURVE SMOOTH",
"551 567 LINE",
"555 597 LINE",
"406 597 LINE",
"402 567 LINE",
"453 569 LINE SMOOTH",
"457.667 569 OFFCURVE",
"460 566.333 OFFCURVE",
"460 561 CURVE SMOOTH",
"460 557 OFFCURVE",
"458.667 553 OFFCURVE",
"456 549 CURVE SMOOTH",
"299 319 LINE",
"200 545 LINE SMOOTH",
"198 551 OFFCURVE",
"197 555.333 OFFCURVE",
"197 558 CURVE SMOOTH",
"197 565.333 OFFCURVE",
"200.667 569 OFFCURVE",
"208 569 CURVE SMOOTH",
"261 567 LINE",
"265 597 LINE",
"49 597 LINE",
"45 567 LINE",
"73 569 LINE SMOOTH",
"81 569 OFFCURVE",
"85.333 564.667 OFFCURVE",
"92 550 CURVE SMOOTH",
"219 263 LINE",
"189 49 LINE SMOOTH",
"187 34.333 OFFCURVE",
"180.333 27 OFFCURVE",
"169 27 CURVE SMOOTH",
"120 29 LINE",
"116 0 LINE"
);
}
);
userData = {
assembly = "NPUSHB[ ]	/* 53 values pushed */
31 28 17 6 4 1 0 1 74 7 6 4 3 0 0 5 93 9 8 2 5 5 17 75 3 1 1 1 2 93 0 2 2 21 2 76 0 0 0 38 0 38 40 33 17 37 33 17 37 33 10 7 28 
CALL[ ]	/* CallFunction */";
};
width = 491;
},
{
anchors = (
{
name = bottom;
position = "{262, 0}";
},
{
name = top;
position = "{345, 597}";
}
);
layerId = "EC024578-EFD3-4C50-A1DE-0E38CDD8AD0F";
paths = (
{
closed = 1;
nodes = (
"397 0 LINE",
"402 37 LINE",
"354 35 LINE SMOOTH",
"342.667 35 OFFCURVE",
"337 40.333 OFFCURVE",
"337 51 CURVE SMOOTH",
"337 56 LINE",
"368 274 LINE",
"554 541 LINE SMOOTH",
"564 555 OFFCURVE",
"574 562 OFFCURVE",
"584 562 CURVE SMOOTH",
"613 560 LINE",
"619 597 LINE",
"460 597 LINE",
"455 560 LINE",
"507 562 LINE SMOOTH",
"512.333 562 OFFCURVE",
"515 559.333 OFFCURVE",
"515 554 CURVE SMOOTH",
"515 550 OFFCURVE",
"513.667 546 OFFCURVE",
"511 542 CURVE SMOOTH",
"354 318 LINE",
"254 538 LINE SMOOTH",
"252.667 542 OFFCURVE",
"252 545.667 OFFCURVE",
"252 549 CURVE SMOOTH",
"252 557.667 OFFCURVE",
"256 562 OFFCURVE",
"264 562 CURVE SMOOTH",
"317 560 LINE",
"322 597 LINE",
"54 597 LINE",
"48 560 LINE",
"77 562 LINE SMOOTH",
"86.333 562 OFFCURVE",
"90.333 556.333 OFFCURVE",
"97 543 CURVE SMOOTH",
"228 256 LINE",
"200 57 LINE SMOOTH",
"198 42.333 OFFCURVE",
"190.667 35 OFFCURVE",
"178 35 CURVE SMOOTH",
"129 37 LINE",
"124 0 LINE"
);
}
);
userData = {
assembly = "NPUSHB[ ]	/* 53 values pushed */
31 28 17 6 4 1 0 1 74 7 6 4 3 0 0 5 93 9 8 2 5 5 17 75 3 1 1 1 2 93 0 2 2 21 2 76 0 0 0 38 0 38 40 33 17 37 33 17 37 33 10 7 28 
CALL[ ]	/* CallFunction */";
};
width = 555;
},
{
anchors = (
{
name = bottom;
position = "{213, 0}";
},
{
name = top;
position = "{296, 597}";
}
);
layerId = "6E1F4822-938D-406D-B3C9-5D869F42D31A";
paths = (
{
closed = 1;
nodes = (
"315 0 LINE",
"318 25 LINE",
"270 23 LINE SMOOTH",
"260.667 23 OFFCURVE",
"256 28 OFFCURVE",
"256 38 CURVE SMOOTH",
"256 44 LINE",
"291 294 LINE",
"464 551 LINE SMOOTH",
"474 565 OFFCURVE",
"483.667 572 OFFCURVE",
"493 572 CURVE SMOOTH",
"523 570 LINE",
"527 597 LINE",
"382 597 LINE",
"378 570 LINE",
"429 572 LINE SMOOTH",
"433.667 572 OFFCURVE",
"436 569.333 OFFCURVE",
"436 564 CURVE SMOOTH",
"436 560 OFFCURVE",
"434.667 556 OFFCURVE",
"432 552 CURVE SMOOTH",
"275 319 LINE",
"176 548 LINE",
"174 554.667 OFFCURVE",
"173 559.333 OFFCURVE",
"173 562 CURVE SMOOTH",
"173 568.667 OFFCURVE",
"176.333 572 OFFCURVE",
"183 572 CURVE SMOOTH",
"236 570 LINE",
"240 597 LINE",
"47 597 LINE",
"44 570 LINE",
"71 572 LINE SMOOTH",
"79 572 OFFCURVE",
"83.333 567.667 OFFCURVE",
"90 553 CURVE SMOOTH",
"215 266 LINE",
"184 45 LINE SMOOTH",
"182 30.333 OFFCURVE",
"175.667 23 OFFCURVE",
"165 23 CURVE SMOOTH",
"116 25 LINE",
"112 0 LINE"
);
}
);
userData = {
assembly = "NPUSHB[ ]	/* 53 values pushed */
31 28 17 6 4 1 0 1 74 7 6 4 3 0 0 5 93 9 8 2 5 5 17 75 3 1 1 1 2 93 0 2 2 21 2 76 0 0 0 38 0 38 40 33 17 37 33 17 37 33 10 7 28 
CALL[ ]	/* CallFunction */";
};
width = 463;
}
);
leftKerningGroup = Y;
note = Y;
rightKerningGroup = Y;
unicode = 0059;
},
{
glyphname = Z;
layers = (
{
anchors = (
{
name = top;
position = "{301, 597}";
}
);
layerId = "9A6463FA-02C3-4660-BEDA-F7CC218AE705";
paths = (
{
closed = 1;
nodes = (
"471 168 LINE",
"442 168 LINE",
"430 80 OFFCURVE",
"368 28 OFFCURVE",
"280 28 CURVE SMOOTH",
"113 28 LINE",
"502 574 LINE",
"505 598 LINE",
"195 598 LINE",
"137 600 LINE",
"88 601 LINE",
"66 444 LINE",
"95 444 LINE",
"107 530.667 OFFCURVE",
"156 570 OFFCURVE",
"248 570 CURVE SMOOTH",
"391 570 LINE",
"7 28 LINE",
"3 1 LINE",
"330 1 LINE SMOOTH",
"395.333 1 OFFCURVE",
"431.667 -0.667 OFFCURVE",
"439 -4 CURVE"
);
}
);
userData = {
assembly = "MPPEM[ ]	/* MeasurePixelPerEm */
PUSHB[ ]	/* 1 value pushed */
10 
LT[ ]	/* LessThan */
IF[ ]	/* If */
NPUSHB[ ]	/* 35 values pushed */
0 4 3 1 3 4 112 0 1 0 3 1 0 124 0 3 3 5 93 0 5 5 17 75 0 0 0 2 93 0 2 2 21 2 76 
ELSE[ ]	/* Else */
NPUSHB[ ]	/* 36 values pushed */
0 4 3 1 3 4 1 126 0 1 0 3 1 0 124 0 3 3 5 93 0 5 5 17 75 0 0 0 2 93 0 2 2 21 2 76 
EIF[ ]	/* EndIf */
NPUSHB[ ]	/* 9 values pushed */
49 18 34 34 18 33 6 7 26 
CALL[ ]	/* CallFunction */";
};
width = 497;
},
{
anchors = (
{
name = top;
position = "{335, 597}";
}
);
layerId = "EC024578-EFD3-4C50-A1DE-0E38CDD8AD0F";
paths = (
{
closed = 1;
nodes = (
"516 167 LINE",
"481 167 LINE",
"470.333 84.333 OFFCURVE",
"405.667 35 OFFCURVE",
"315 35 CURVE SMOOTH",
"176 35 LINE",
"558 573 LINE",
"561 597 LINE",
"217 597 LINE",
"145 599 LINE",
"108 600 LINE",
"86 443 LINE",
"121 443 LINE",
"133 524.333 OFFCURVE",
"183.333 562 OFFCURVE",
"278 562 CURVE SMOOTH",
"389 562 LINE",
"5 27 LINE",
"1 0 LINE",
"373 0 LINE SMOOTH",
"439.667 0 OFFCURVE",
"476.667 -1.333 OFFCURVE",
"484 -4 CURVE"
);
}
);
userData = {
assembly = "MPPEM[ ]	/* MeasurePixelPerEm */
PUSHB[ ]	/* 1 value pushed */
10 
LT[ ]	/* LessThan */
IF[ ]	/* If */
NPUSHB[ ]	/* 35 values pushed */
0 4 3 1 3 4 112 0 1 0 3 1 0 124 0 3 3 5 93 0 5 5 17 75 0 0 0 2 93 0 2 2 21 2 76 
ELSE[ ]	/* Else */
NPUSHB[ ]	/* 36 values pushed */
0 4 3 1 3 4 1 126 0 1 0 3 1 0 124 0 3 3 5 93 0 5 5 17 75 0 0 0 2 93 0 2 2 21 2 76 
EIF[ ]	/* EndIf */
NPUSHB[ ]	/* 9 values pushed */
65 18 34 34 18 33 6 7 26 
CALL[ ]	/* CallFunction */";
};
width = 543;
},
{
anchors = (
{
name = top;
position = "{286, 597}";
}
);
layerId = "6E1F4822-938D-406D-B3C9-5D869F42D31A";
paths = (
{
closed = 1;
nodes = (
"451 168 LINE",
"425 168 LINE",
"411.667 77.333 OFFCURVE",
"352 25 OFFCURVE",
"264 25 CURVE SMOOTH",
"85 25 LINE",
"477 574 LINE",
"480 598 LINE",
"185 598 LINE",
"133 600 LINE",
"79 601 LINE",
"57 444 LINE",
"83 444 LINE",
"95 533.333 OFFCURVE",
"144.333 574 OFFCURVE",
"235 574 CURVE SMOOTH",
"392 574 LINE",
"8 28 LINE",
"4 1 LINE",
"311 1 LINE SMOOTH",
"375.667 1 OFFCURVE",
"411.667 -0.667 OFFCURVE",
"419 -4 CURVE"
);
}
);
userData = {
assembly = "MPPEM[ ]	/* MeasurePixelPerEm */
PUSHB[ ]	/* 1 value pushed */
10 
LT[ ]	/* LessThan */
IF[ ]	/* If */
NPUSHB[ ]	/* 35 values pushed */
0 4 3 1 3 4 112 0 1 0 3 1 0 124 0 3 3 5 93 0 5 5 17 75 0 0 0 2 93 0 2 2 21 2 76 
ELSE[ ]	/* Else */
NPUSHB[ ]	/* 36 values pushed */
0 4 3 1 3 4 1 126 0 1 0 3 1 0 124 0 3 3 5 93 0 5 5 17 75 0 0 0 2 93 0 2 2 21 2 76 
EIF[ ]	/* EndIf */
NPUSHB[ ]	/* 9 values pushed */
49 18 34 34 18 33 6 7 26 
CALL[ ]	/* CallFunction */";
};
width = 477;
}
);
note = Z;
rightKerningGroup = Z;
unicode = 005A;
},
{
glyphname = a;
layers = (
{
anchors = (
{
name = bottom;
position = "{197, 0}";
},
{
name = ogonek;
position = "{352, 0}";
},
{
name = top;
position = "{290, 420}";
}
);
layerId = "9A6463FA-02C3-4660-BEDA-F7CC218AE705";
paths = (
{
closed = 1;
nodes = (
"152 -10 OFFCURVE",
"183 5 OFFCURVE",
"213 35 CURVE SMOOTH",
"243 64 OFFCURVE",
"277 115 OFFCURVE",
"315 187 CURVE",
"301 106 OFFCURVE",
"294 55 OFFCURVE",
"294 36 CURVE SMOOTH",
"294 4 OFFCURVE",
"299 -10 OFFCURVE",
"318 -10 CURVE SMOOTH",
"351 -10 OFFCURVE",
"400 12 OFFCURVE",
"440 60 CURVE",
"428 80 LINE",
"415 71 OFFCURVE",
"402 67 OFFCURVE",
"390 67 CURVE SMOOTH",
"381 67 OFFCURVE",
"377 73 OFFCURVE",
"377 84 CURVE SMOOTH",
"377 119 OFFCURVE",
"395 223 OFFCURVE",
"419 330 CURVE SMOOTH",
"443 429 LINE",
"359 415 LINE",
"353 393 LINE",
"336 416 OFFCURVE",
"307 430 OFFCURVE",
"275 430 CURVE SMOOTH",
"191 430 OFFCURVE",
"109 356 OFFCURVE",
"63 257 CURVE SMOOTH",
"40 207 OFFCURVE",
"28 159 OFFCURVE",
"28 112 CURVE SMOOTH",
"28 36 OFFCURVE",
"61 -10 OFFCURVE",
"120 -10 CURVE SMOOTH"
);
},
{
closed = 1;
nodes = (
"133 45 OFFCURVE",
"117 72 OFFCURVE",
"117 123 CURVE SMOOTH",
"117 161 OFFCURVE",
"122 197 OFFCURVE",
"131 232 CURVE SMOOTH",
"154 329 OFFCURVE",
"205 400 OFFCURVE",
"277 400 CURVE SMOOTH",
"313 400 OFFCURVE",
"340 377 OFFCURVE",
"340 346 CURVE SMOOTH",
"340 244 OFFCURVE",
"217 45 OFFCURVE",
"156 45 CURVE SMOOTH"
);
}
);
userData = {
assembly = "NPUSHB[ ]	/* 68 values pushed */
25 1 4 2 23 10 1 3 3 4 2 1 5 3 3 74 6 1 3 4 5 4 3 5 126 0 4 4 2 95 0 2 2 20 75 7 1 5 5 0 95 1 1 0 0 26 0 76 32 32 0 0 32 46 32 45 39 37 0 31 0 30 37 38 36 8 7 23 
CALL[ ]	/* CallFunction */";
};
width = 466;
},
{
anchors = (
{
name = bottom;
position = "{212, 0}";
},
{
name = ogonek;
position = "{377, 0}";
},
{
name = top;
position = "{306, 425}";
}
);
layerId = "EC024578-EFD3-4C50-A1DE-0E38CDD8AD0F";
paths = (
{
closed = 1;
nodes = (
"187 -10 OFFCURVE",
"255 42 OFFCURVE",
"311 165 CURVE",
"299 96 OFFCURVE",
"293 53 OFFCURVE",
"293 36 CURVE SMOOTH",
"293 3 OFFCURVE",
"301 -10 OFFCURVE",
"329 -10 CURVE SMOOTH",
"377 -10 OFFCURVE",
"443 20 OFFCURVE",
"484 60 CURVE",
"473 88 LINE",
"460 79 OFFCURVE",
"448 75 OFFCURVE",
"435 75 CURVE SMOOTH",
"426 75 OFFCURVE",
"422 81 OFFCURVE",
"422 92 CURVE SMOOTH",
"422 128 OFFCURVE",
"441 239 OFFCURVE",
"465 338 CURVE SMOOTH",
"488 434 LINE",
"359 420 LINE",
"353 397 LINE",
"338 421 OFFCURVE",
"310 435 OFFCURVE",
"279 435 CURVE SMOOTH",
"187 435 OFFCURVE",
"105 367 OFFCURVE",
"60 267 CURVE SMOOTH",
"37 217 OFFCURVE",
"26 165 OFFCURVE",
"26 112 CURVE SMOOTH",
"26 36 OFFCURVE",
"59 -10 OFFCURVE",
"118 -10 CURVE SMOOTH"
);
},
{
closed = 1;
nodes = (
"172 68 OFFCURVE",
"160 90 OFFCURVE",
"160 131 CURVE SMOOTH",
"160 168 OFFCURVE",
"165 204 OFFCURVE",
"176 241 CURVE SMOOTH",
"200 336 OFFCURVE",
"245 398 OFFCURVE",
"294 398 CURVE SMOOTH",
"323 398 OFFCURVE",
"340 380 OFFCURVE",
"340 353 CURVE SMOOTH",
"340 256 OFFCURVE",
"240 68 OFFCURVE",
"192 68 CURVE SMOOTH"
);
}
);
userData = {
assembly = "MPPEM[ ]	/* MeasurePixelPerEm */
PUSHB[ ]	/* 1 value pushed */
34 
LT[ ]	/* LessThan */
IF[ ]	/* If */
NPUSHB[ ]	/* 16 values pushed */
27 1 4 2 25 12 1 3 3 4 2 1 0 3 3 74 
ELSE[ ]	/* Else */
NPUSHB[ ]	/* 16 values pushed */
27 1 4 2 25 12 1 3 3 4 2 1 0 5 3 74 
EIF[ ]	/* EndIf */
MPPEM[ ]	/* MeasurePixelPerEm */
PUSHB[ ]	/* 1 value pushed */
34 
LT[ ]	/* LessThan */
IF[ ]	/* If */
NPUSHB[ ]	/* 28 values pushed */
7 5 6 3 3 4 0 4 3 0 126 0 4 4 2 95 0 2 2 20 75 1 1 0 0 26 0 76 
ELSE[ ]	/* Else */
NPUSHB[ ]	/* 34 values pushed */
6 1 3 4 5 4 3 5 126 7 1 5 0 4 5 0 124 0 4 4 2 95 0 2 2 20 75 1 1 0 0 26 0 76 
EIF[ ]	/* EndIf */
NPUSHB[ ]	/* 20 values pushed */
34 34 0 0 34 48 34 47 41 39 0 33 0 32 37 40 36 8 7 23 
CALL[ ]	/* CallFunction */";
};
width = 511;
},
{
anchors = (
{
name = bottom;
position = "{190, 0}";
},
{
name = ogonek;
position = "{341, 0}";
},
{
name = top;
position = "{283, 418}";
}
);
layerId = "6E1F4822-938D-406D-B3C9-5D869F42D31A";
paths = (
{
closed = 1;
nodes = (
"152 -10 OFFCURVE",
"181 5 OFFCURVE",
"210 36 CURVE SMOOTH",
"239 66 OFFCURVE",
"274 120 OFFCURVE",
"317 197 CURVE",
"302 111 OFFCURVE",
"295 57 OFFCURVE",
"294 36 CURVE SMOOTH",
"294 20 OFFCURVE",
"295 8 OFFCURVE",
"298 1 CURVE SMOOTH",
"301 -6 OFFCURVE",
"306 -10 OFFCURVE",
"313 -10 CURVE SMOOTH",
"340 -10 OFFCURVE",
"381 9 OFFCURVE",
"420 60 CURVE",
"408 76 LINE",
"395 67 OFFCURVE",
"382 63 OFFCURVE",
"370 63 CURVE SMOOTH",
"361 63 OFFCURVE",
"357 69 OFFCURVE",
"357 80 CURVE SMOOTH",
"357 115 OFFCURVE",
"375 217 OFFCURVE",
"399 326 CURVE SMOOTH",
"423 427 LINE",
"359 413 LINE",
"353 391 LINE",
"334 414 OFFCURVE",
"306 428 OFFCURVE",
"273 428 CURVE SMOOTH",
"155 428 OFFCURVE",
"29 258 OFFCURVE",
"29 112 CURVE SMOOTH",
"29 36 OFFCURVE",
"62 -10 OFFCURVE",
"121 -10 CURVE SMOOTH"
);
},
{
closed = 1;
nodes = (
"116 35 OFFCURVE",
"98 64 OFFCURVE",
"98 119 CURVE SMOOTH",
"98 158 OFFCURVE",
"102 194 OFFCURVE",
"111 228 CURVE SMOOTH",
"134 328 OFFCURVE",
"188 401 OFFCURVE",
"269 401 CURVE SMOOTH",
"309 401 OFFCURVE",
"340 375 OFFCURVE",
"340 343 CURVE SMOOTH",
"340 239 OFFCURVE",
"208 35 OFFCURVE",
"140 35 CURVE SMOOTH"
);
}
);
userData = {
assembly = "NPUSHB[ ]	/* 68 values pushed */
25 1 4 2 23 10 1 3 3 4 2 1 5 3 3 74 6 1 3 4 5 4 3 5 126 0 4 4 2 95 0 2 2 20 75 7 1 5 5 0 95 1 1 0 0 26 0 76 32 32 0 0 32 46 32 45 39 37 0 31 0 30 37 38 36 8 7 23 
CALL[ ]	/* CallFunction */";
};
width = 446;
}
);
leftKerningGroup = a;
note = a;
unicode = 0061;
},
{
glyphname = ae;
layers = (
{
anchors = (
{
name = top;
position = "{412, 420}";
}
);
layerId = "9A6463FA-02C3-4660-BEDA-F7CC218AE705";
paths = (
{
closed = 1;
nodes = (
"171.333 -10 OFFCURVE",
"226.333 36.667 OFFCURVE",
"271 130 CURVE",
"277.667 46 OFFCURVE",
"335 -9 OFFCURVE",
"411 -9 CURVE SMOOTH",
"472.333 -9 OFFCURVE",
"536.667 29.333 OFFCURVE",
"590 84 CURVE",
"568 100 LINE",
"510 63.333 OFFCURVE",
"466 45 OFFCURVE",
"436 45 CURVE SMOOTH",
"390.667 45 OFFCURVE",
"359 87.333 OFFCURVE",
"359 154 CURVE SMOOTH",
"360 181 LINE",
"486.667 190.333 OFFCURVE",
"568.667 222.333 OFFCURVE",
"606 265 CURVE SMOOTH",
"624.667 286.333 OFFCURVE",
"634 308.667 OFFCURVE",
"634 332 CURVE SMOOTH",
"634 386.667 OFFCURVE",
"580 430 OFFCURVE",
"508 430 CURVE SMOOTH",
"478 430 OFFCURVE",
"448.667 422 OFFCURVE",
"420 406 CURVE",
"409.333 408.667 OFFCURVE",
"394.667 410 OFFCURVE",
"376 410 CURVE SMOOTH",
"254.667 410 OFFCURVE",
"134.333 341.833 OFFCURVE",
"65 246.5 CURVE SMOOTH",
"30.333 198.833 OFFCURVE",
"13 151 OFFCURVE",
"13 103 CURVE SMOOTH",
"13 37.667 OFFCURVE",
"47.333 -10 OFFCURVE",
"106 -10 CURVE SMOOTH"
);
},
{
closed = 1;
nodes = (
"115.667 45 OFFCURVE",
"102 80.333 OFFCURVE",
"102 115 CURVE SMOOTH",
"102 165 OFFCURVE",
"119.667 213.667 OFFCURVE",
"155 261 CURVE SMOOTH",
"207 331.667 OFFCURVE",
"280.667 380 OFFCURVE",
"382 380 CURVE",
"326 333.333 OFFCURVE",
"286 263 OFFCURVE",
"274 191 CURVE",
"238 109.667 OFFCURVE",
"183.667 45 OFFCURVE",
"141 45 CURVE SMOOTH"
);
},
{
closed = 1;
nodes = (
"368.667 249.667 OFFCURVE",
"379.667 285 OFFCURVE",
"397 319 CURVE SMOOTH",
"425.667 373 OFFCURVE",
"462 400 OFFCURVE",
"506 400 CURVE SMOOTH",
"543.333 400 OFFCURVE",
"563 372.667 OFFCURVE",
"563 338 CURVE SMOOTH",
"563 272.667 OFFCURVE",
"490.667 222.333 OFFCURVE",
"364 213 CURVE"
);
}
);
userData = {
assembly = "NPUSHB[ ]	/* 13 values pushed */
29 1 5 3 41 17 11 10 4 0 6 2 74 
MPPEM[ ]	/* MeasurePixelPerEm */
PUSHB[ ]	/* 1 value pushed */
25 
LT[ ]	/* LessThan */
IF[ ]	/* If */
NPUSHB[ ]	/* 33 values pushed */
0 5 5 4 95 0 4 4 20 75 0 6 6 3 95 0 3 3 20 75 7 1 0 0 1 95 2 1 1 1 26 1 76 
ELSE[ ]	/* Else */
NPUSHB[ ]	/* 31 values pushed */
0 3 0 6 0 3 6 103 0 5 5 4 95 0 4 4 20 75 7 1 0 0 1 95 2 1 1 1 26 1 76 
EIF[ ]	/* EndIf */
NPUSHB[ ]	/* 11 values pushed */
39 41 36 34 37 36 36 39 8 7 28 
CALL[ ]	/* CallFunction */";
};
width = 643;
},
{
anchors = (
{
name = top;
position = "{382, 425}";
}
);
layerId = "EC024578-EFD3-4C50-A1DE-0E38CDD8AD0F";
paths = (
{
closed = 1;
nodes = (
"163.667 -10 OFFCURVE",
"215.333 24.333 OFFCURVE",
"260 93 CURVE",
"280 27.667 OFFCURVE",
"333.333 -9 OFFCURVE",
"408 -9 CURVE SMOOTH",
"482.667 -9 OFFCURVE",
"559.333 30.667 OFFCURVE",
"606 92 CURVE",
"584 112 LINE",
"548 78.667 OFFCURVE",
"507.333 62 OFFCURVE",
"462 62 CURVE SMOOTH",
"414 62 OFFCURVE",
"385 97.333 OFFCURVE",
"385 168 CURVE SMOOTH",
"385 183 LINE",
"505 195 OFFCURVE",
"583 230.167 OFFCURVE",
"619 273.5 CURVE SMOOTH",
"637 295.167 OFFCURVE",
"646 317.667 OFFCURVE",
"646 341 CURVE SMOOTH",
"646 397 OFFCURVE",
"590 435 OFFCURVE",
"506 435 CURVE SMOOTH",
"464.667 435 OFFCURVE",
"425.333 423.667 OFFCURVE",
"388 401 CURVE",
"372 410.333 OFFCURVE",
"352.333 415 OFFCURVE",
"329 415 CURVE SMOOTH",
"215.667 415 OFFCURVE",
"112.333 350.5 OFFCURVE",
"55 256.5 CURVE SMOOTH",
"26.333 209.5 OFFCURVE",
"12 160.667 OFFCURVE",
"12 110 CURVE SMOOTH",
"12 35.333 OFFCURVE",
"46.333 -10 OFFCURVE",
"105 -10 CURVE SMOOTH"
);
},
{
closed = 1;
nodes = (
"155 68 OFFCURVE",
"143 91.667 OFFCURVE",
"143 129 CURVE SMOOTH",
"143 169 OFFCURVE",
"151.667 208.667 OFFCURVE",
"169 248 CURVE SMOOTH",
"198.333 324 OFFCURVE",
"256 378.667 OFFCURVE",
"352 376 CURVE",
"289.333 322.667 OFFCURVE",
"250.667 251 OFFCURVE",
"252 139 CURVE",
"225.333 95 OFFCURVE",
"199 68 OFFCURVE",
"179 68 CURVE SMOOTH"
);
},
{
closed = 1;
nodes = (
"392 252 OFFCURVE",
"401 286.333 OFFCURVE",
"415 319 CURVE SMOOTH",
"437.667 373 OFFCURVE",
"466 400 OFFCURVE",
"500 400 CURVE SMOOTH",
"526.667 400 OFFCURVE",
"539 381.667 OFFCURVE",
"539 355 CURVE SMOOTH",
"539 284.333 OFFCURVE",
"486.667 233.333 OFFCURVE",
"388 216 CURVE"
);
}
);
userData = {
assembly = "MPPEM[ ]	/* MeasurePixelPerEm */
PUSHB[ ]	/* 1 value pushed */
38 
LT[ ]	/* LessThan */
IF[ ]	/* If */
NPUSHB[ ]	/* 16 values pushed */
28 1 5 3 59 46 37 17 11 10 3 7 0 6 2 74 
ELSE[ ]	/* Else */
NPUSHB[ ]	/* 16 values pushed */
28 1 5 3 59 46 37 17 11 10 3 7 7 6 2 74 
EIF[ ]	/* EndIf */
MPPEM[ ]	/* MeasurePixelPerEm */
PUSHB[ ]	/* 1 value pushed */
24 
LT[ ]	/* LessThan */
IF[ ]	/* If */
NPUSHB[ ]	/* 34 values pushed */
8 1 5 5 4 95 0 4 4 20 75 0 6 6 3 95 0 3 3 20 75 7 1 0 0 1 95 2 1 1 1 26 1 76 
ELSE[ ]	/* Else */
MPPEM[ ]	/* MeasurePixelPerEm */
PUSHB[ ]	/* 1 value pushed */
38 
LT[ ]	/* LessThan */
IF[ ]	/* If */
NPUSHB[ ]	/* 32 values pushed */
0 3 0 6 0 3 6 103 8 1 5 5 4 95 0 4 4 20 75 7 1 0 0 1 95 2 1 1 1 26 1 76 
ELSE[ ]	/* Else */
NPUSHB[ ]	/* 42 values pushed */
0 3 0 6 7 3 6 103 8 1 5 5 4 95 0 4 4 20 75 0 7 7 1 95 2 1 1 1 26 75 0 0 0 1 95 2 1 1 1 26 1 76 
EIF[ ]	/* EndIf */
EIF[ ]	/* EndIf */
NPUSHB[ ]	/* 18 values pushed */
34 34 57 55 49 47 34 43 34 42 34 37 35 37 38 9 7 25 
CALL[ ]	/* CallFunction */";
};
width = 636;
},
{
anchors = (
{
name = top;
position = "{425, 418}";
}
);
layerId = "6E1F4822-938D-406D-B3C9-5D869F42D31A";
paths = (
{
closed = 1;
nodes = (
"174.667 -10 OFFCURVE",
"231.333 42 OFFCURVE",
"276 146 CURVE",
"276 55.333 OFFCURVE",
"336 -9 OFFCURVE",
"412 -9 CURVE SMOOTH",
"468 -9 OFFCURVE",
"525.667 28 OFFCURVE",
"583 80 CURVE",
"561 95 LINE",
"493.667 57 OFFCURVE",
"448 37.667 OFFCURVE",
"424 37 CURVE SMOOTH",
"380 37 OFFCURVE",
"347 82.667 OFFCURVE",
"347 148 CURVE SMOOTH",
"349 180 LINE",
"540.235 191.952 OFFCURVE",
"629 254.444 OFFCURVE",
"629 328 CURVE SMOOTH",
"629 382.667 OFFCURVE",
"575.667 428 OFFCURVE",
"509 428 CURVE SMOOTH",
"483.667 428 OFFCURVE",
"458.667 421.333 OFFCURVE",
"434 408 CURVE",
"426.667 408 OFFCURVE",
"414.333 408 OFFCURVE",
"397 408 CURVE SMOOTH",
"271.667 408 OFFCURVE",
"144.185 338 OFFCURVE",
"69.222 242 CURVE SMOOTH",
"31.741 194 OFFCURVE",
"13 146.667 OFFCURVE",
"13 100 CURVE SMOOTH",
"13 38.667 OFFCURVE",
"47.333 -10 OFFCURVE",
"106 -10 CURVE SMOOTH"
);
},
{
closed = 1;
nodes = (
"98.667 35 OFFCURVE",
"84 75.667 OFFCURVE",
"84 109 CURVE SMOOTH",
"84 163 OFFCURVE",
"105.667 215.667 OFFCURVE",
"149 267 CURVE SMOOTH",
"211.667 336.333 OFFCURVE",
"291 380.667 OFFCURVE",
"395 382 CURVE",
"343 339.333 OFFCURVE",
"301.333 267.333 OFFCURVE",
"284 214 CURVE",
"244 116.667 OFFCURVE",
"177.333 35 OFFCURVE",
"124 35 CURVE SMOOTH"
);
},
{
closed = 1;
nodes = (
"358.333 249.333 OFFCURVE",
"370.333 285 OFFCURVE",
"389 319 CURVE SMOOTH",
"420.333 373 OFFCURVE",
"460.333 400 OFFCURVE",
"509 400 CURVE SMOOTH",
"550.333 400 OFFCURVE",
"574 368.667 OFFCURVE",
"574 330 CURVE SMOOTH",
"574 267.333 OFFCURVE",
"491.667 217.333 OFFCURVE",
"353 212 CURVE"
);
}
);
userData = {
assembly = "NPUSHB[ ]	/* 13 values pushed */
29 1 5 3 41 17 11 10 4 0 6 2 74 
MPPEM[ ]	/* MeasurePixelPerEm */
PUSHB[ ]	/* 1 value pushed */
25 
LT[ ]	/* LessThan */
IF[ ]	/* If */
NPUSHB[ ]	/* 33 values pushed */
0 5 5 4 95 0 4 4 20 75 0 6 6 3 95 0 3 3 20 75 7 1 0 0 1 95 2 1 1 1 26 1 76 
ELSE[ ]	/* Else */
NPUSHB[ ]	/* 31 values pushed */
0 3 0 6 0 3 6 103 0 5 5 4 95 0 4 4 20 75 7 1 0 0 1 95 2 1 1 1 26 1 76 
EIF[ ]	/* EndIf */
NPUSHB[ ]	/* 11 values pushed */
39 41 36 34 37 36 36 39 8 7 28 
CALL[ ]	/* CallFunction */";
};
width = 646;
}
);
leftKerningGroup = ae;
note = ae;
rightKerningGroup = ae;
unicode = 00E6;
},
{
glyphname = b;
layers = (
{
background = {
paths = (
{
closed = 1;
nodes = (
"172 245 OFFCURVE",
"178 251 OFFCURVE",
"178 259 CURVE SMOOTH",
"178 266 OFFCURVE",
"172 272 OFFCURVE",
"165 272 CURVE SMOOTH",
"158 272 OFFCURVE",
"152 266 OFFCURVE",
"152 259 CURVE SMOOTH",
"152 251 OFFCURVE",
"158 245 OFFCURVE",
"165 245 CURVE SMOOTH"
);
}
);
};
layerId = "9A6463FA-02C3-4660-BEDA-F7CC218AE705";
paths = (
{
closed = 1;
nodes = (
"320.987 -7 OFFCURVE",
"435 153.944 OFFCURVE",
"435 301 CURVE SMOOTH",
"435 378.333 OFFCURVE",
"396.333 430 OFFCURVE",
"335 430 CURVE SMOOTH",
"255 430 OFFCURVE",
"190.667 357.667 OFFCURVE",
"140 239 CURVE",
"150 301.667 OFFCURVE",
"168 417 OFFCURVE",
"194 585 CURVE SMOOTH",
"206 662.333 OFFCURVE",
"212.333 703.333 OFFCURVE",
"213 708 CURVE SMOOTH",
"213 724 OFFCURVE",
"203 730 OFFCURVE",
"175 730 CURVE SMOOTH",
"145.667 730 OFFCURVE",
"97 719.333 OFFCURVE",
"57 698 CURVE",
"63 673 LINE",
"73 675 OFFCURVE",
"81.667 676 OFFCURVE",
"89 676 CURVE SMOOTH",
"107.667 676 OFFCURVE",
"120 667 OFFCURVE",
"120 651 CURVE SMOOTH",
"120 632.333 OFFCURVE",
"109.333 543.667 OFFCURVE",
"88 385 CURVE SMOOTH",
"70.667 262.333 OFFCURVE",
"53 129.333 OFFCURVE",
"53 84 CURVE SMOOTH",
"53 25.333 OFFCURVE",
"93.333 -7 OFFCURVE",
"168 -7 CURVE SMOOTH"
);
},
{
closed = 1;
nodes = (
"141.333 23 OFFCURVE",
"125 46.333 OFFCURVE",
"125 81 CURVE SMOOTH",
"125 198.333 OFFCURVE",
"231.333 375 OFFCURVE",
"294 375 CURVE SMOOTH",
"338 375 OFFCURVE",
"346 336.333 OFFCURVE",
"346 279 CURVE SMOOTH",
"346 248.333 OFFCURVE",
"341 213.333 OFFCURVE",
"331 174 CURVE SMOOTH",
"308.333 88.667 OFFCURVE",
"265.333 23 OFFCURVE",
"184 23 CURVE SMOOTH"
);
}
);
userData = {
assembly = "NPUSHB[ ]	/* 15 values pushed */
31 2 2 2 3 30 1 0 2 6 1 4 5 3 74 
MPPEM[ ]	/* MeasurePixelPerEm */
PUSHB[ ]	/* 1 value pushed */
10 
LT[ ]	/* LessThan */
IF[ ]	/* If */
NPUSHB[ ]	/* 36 values pushed */
0 2 3 0 3 2 0 126 6 1 3 3 19 75 7 1 5 5 0 95 0 0 0 20 75 0 4 4 1 95 0 1 1 18 1 76 
ELSE[ ]	/* Else */
NPUSHB[ ]	/* 36 values pushed */
0 2 3 0 3 2 0 126 6 1 3 3 19 75 7 1 5 5 0 95 0 0 0 20 75 0 4 4 1 95 0 1 1 26 1 76 
EIF[ ]	/* EndIf */
NPUSHB[ ]	/* 20 values pushed */
35 35 0 0 35 49 35 48 42 40 0 34 0 33 42 37 40 8 7 23 
CALL[ ]	/* CallFunction */";
};
width = 457;
},
{
background = {
paths = (
{
closed = 1;
nodes = (
"210 247 OFFCURVE",
"216 253 OFFCURVE",
"216 261 CURVE SMOOTH",
"216 268 OFFCURVE",
"210 274 OFFCURVE",
"203 274 CURVE SMOOTH",
"195 274 OFFCURVE",
"189 268 OFFCURVE",
"189 261 CURVE SMOOTH",
"189 253 OFFCURVE",
"195 247 OFFCURVE",
"203 247 CURVE SMOOTH"
);
}
);
};
layerId = "EC024578-EFD3-4C50-A1DE-0E38CDD8AD0F";
paths = (
{
closed = 1;
nodes = (
"354.672 -7 OFFCURVE",
"476 168.45 OFFCURVE",
"476 309 CURVE SMOOTH",
"476 386.333 OFFCURVE",
"436.667 435 OFFCURVE",
"374 435 CURVE SMOOTH",
"294 435 OFFCURVE",
"235.667 368.667 OFFCURVE",
"181 246 CURVE",
"191.667 320.667 OFFCURVE",
"210 434 OFFCURVE",
"236 586 CURVE SMOOTH",
"248.667 658.667 OFFCURVE",
"254.667 697.667 OFFCURVE",
"254 703 CURVE SMOOTH",
"254 724.333 OFFCURVE",
"238.667 730 OFFCURVE",
"208 730 CURVE SMOOTH",
"168 730 OFFCURVE",
"109 719.333 OFFCURVE",
"53 698 CURVE",
"59 666 LINE",
"68.333 667.333 OFFCURVE",
"76.333 668 OFFCURVE",
"83 668 CURVE SMOOTH",
"105.667 668 OFFCURVE",
"116 660.333 OFFCURVE",
"116 639 CURVE SMOOTH",
"116 604.333 OFFCURVE",
"105 515.333 OFFCURVE",
"83 372 CURVE SMOOTH",
"72.333 299.333 OFFCURVE",
"64.167 240.667 OFFCURVE",
"58.5 196 CURVE SMOOTH",
"52.833 151.333 OFFCURVE",
"50 120 OFFCURVE",
"50 102 CURVE SMOOTH",
"50 36.667 OFFCURVE",
"88.333 -7 OFFCURVE",
"179 -7 CURVE SMOOTH"
);
},
{
closed = 1;
nodes = (
"185.667 28 OFFCURVE",
"164 48.667 OFFCURVE",
"164 78 CURVE SMOOTH",
"164 175.333 OFFCURVE",
"251.667 358 OFFCURVE",
"309 358 CURVE SMOOTH",
"318.333 358 OFFCURVE",
"326.167 352.333 OFFCURVE",
"332.5 341 CURVE SMOOTH",
"338.833 329.667 OFFCURVE",
"342 312.667 OFFCURVE",
"342 290 CURVE SMOOTH",
"342 254 OFFCURVE",
"336 216 OFFCURVE",
"324 176 CURVE SMOOTH",
"301.333 94.667 OFFCURVE",
"260.333 28 OFFCURVE",
"211 28 CURVE SMOOTH"
);
}
);
userData = {
assembly = "NPUSHB[ ]	/* 15 values pushed */
32 2 2 2 3 31 1 0 2 7 1 4 5 3 74 
MPPEM[ ]	/* MeasurePixelPerEm */
PUSHB[ ]	/* 1 value pushed */
10 
LT[ ]	/* LessThan */
IF[ ]	/* If */
NPUSHB[ ]	/* 36 values pushed */
0 2 3 0 3 2 0 126 6 1 3 3 19 75 7 1 5 5 0 95 0 0 0 20 75 0 4 4 1 95 0 1 1 18 1 76 
ELSE[ ]	/* Else */
NPUSHB[ ]	/* 36 values pushed */
0 2 3 0 3 2 0 126 6 1 3 3 19 75 7 1 5 5 0 95 0 0 0 20 75 0 4 4 1 95 0 1 1 26 1 76 
EIF[ ]	/* EndIf */
NPUSHB[ ]	/* 20 values pushed */
36 36 0 0 36 50 36 49 43 41 0 35 0 34 42 37 41 8 7 23 
CALL[ ]	/* CallFunction */";
};
width = 487;
},
{
layerId = "6E1F4822-938D-406D-B3C9-5D869F42D31A";
paths = (
{
closed = 1;
nodes = (
"260.333 -7 OFFCURVE",
"340.389 62.278 OFFCURVE",
"384.167 155.834 CURVE SMOOTH",
"406.055 202.611 OFFCURVE",
"417 249.667 OFFCURVE",
"417 297 CURVE SMOOTH",
"417 374.333 OFFCURVE",
"378 428 OFFCURVE",
"318 428 CURVE SMOOTH",
"238 428 OFFCURVE",
"171.333 353.333 OFFCURVE",
"122 236 CURVE",
"131.333 292.667 OFFCURVE",
"149 409 OFFCURVE",
"175 585 CURVE SMOOTH",
"187 664.333 OFFCURVE",
"193.667 706 OFFCURVE",
"195 710 CURVE",
"195 723.333 OFFCURVE",
"186.667 730 OFFCURVE",
"160 730 CURVE SMOOTH",
"136 730 OFFCURVE",
"92.333 719.333 OFFCURVE",
"59 698 CURVE",
"65 676 LINE",
"74.333 678 OFFCURVE",
"83.333 679.333 OFFCURVE",
"92 680 CURVE SMOOTH",
"108 680 OFFCURVE",
"122 670.667 OFFCURVE",
"122 656 CURVE SMOOTH",
"122 644.667 OFFCURVE",
"111.333 556.333 OFFCURVE",
"90 391 CURVE SMOOTH",
"74 277.667 OFFCURVE",
"54 125.333 OFFCURVE",
"54 76 CURVE SMOOTH",
"54 20 OFFCURVE",
"95 -7 OFFCURVE",
"163 -7 CURVE SMOOTH"
);
},
{
closed = 1;
nodes = (
"121.333 21 OFFCURVE",
"108 46 OFFCURVE",
"108 82 CURVE SMOOTH",
"108 208.667 OFFCURVE",
"223 383 OFFCURVE",
"287 383 CURVE SMOOTH",
"343 383 OFFCURVE",
"348 336.667 OFFCURVE",
"348 274 CURVE SMOOTH",
"348 246 OFFCURVE",
"343.333 212.333 OFFCURVE",
"334 173 CURVE SMOOTH",
"311.333 86.333 OFFCURVE",
"268 21 OFFCURVE",
"172 21 CURVE SMOOTH"
);
}
);
userData = {
assembly = "NPUSHB[ ]	/* 15 values pushed */
31 2 2 2 3 30 1 0 2 6 1 4 5 3 74 
MPPEM[ ]	/* MeasurePixelPerEm */
PUSHB[ ]	/* 1 value pushed */
10 
LT[ ]	/* LessThan */
IF[ ]	/* If */
NPUSHB[ ]	/* 36 values pushed */
0 2 3 0 3 2 0 126 6 1 3 3 19 75 7 1 5 5 0 95 0 0 0 20 75 0 4 4 1 95 0 1 1 18 1 76 
ELSE[ ]	/* Else */
NPUSHB[ ]	/* 36 values pushed */
0 2 3 0 3 2 0 126 6 1 3 3 19 75 7 1 5 5 0 95 0 0 0 20 75 0 4 4 1 95 0 1 1 26 1 76 
EIF[ ]	/* EndIf */
NPUSHB[ ]	/* 20 values pushed */
35 35 0 0 35 49 35 48 42 40 0 34 0 33 42 37 40 8 7 23 
CALL[ ]	/* CallFunction */";
};
width = 444;
}
);
leftKerningGroup = b;
note = b;
rightKerningGroup = b;
unicode = 0062;
},
{
glyphname = c;
layers = (
{
anchors = (
{
name = bottom;
position = "{187, 0}";
},
{
name = top;
position = "{248, 420}";
}
);
layerId = "9A6463FA-02C3-4660-BEDA-F7CC218AE705";
paths = (
{
closed = 1;
nodes = (
"228.333 -9 OFFCURVE",
"294 29.333 OFFCURVE",
"346 84 CURVE",
"324 100 LINE",
"269.333 66.667 OFFCURVE",
"228 45 OFFCURVE",
"192 45 CURVE SMOOTH",
"144 45 OFFCURVE",
"115 88.667 OFFCURVE",
"115 158 CURVE SMOOTH",
"115 210.667 OFFCURVE",
"126.333 260.333 OFFCURVE",
"149 307 CURVE SMOOTH",
"179.667 369 OFFCURVE",
"217.667 400 OFFCURVE",
"263 400 CURVE SMOOTH",
"293.667 400 OFFCURVE",
"316 384.667 OFFCURVE",
"316 358 CURVE SMOOTH",
"316 349.333 OFFCURVE",
"313.333 339.667 OFFCURVE",
"308 329 CURVE SMOOTH",
"302.667 318.333 OFFCURVE",
"300 310 OFFCURVE",
"300 304 CURVE SMOOTH",
"300 286.667 OFFCURVE",
"310.667 278 OFFCURVE",
"332 278 CURVE SMOOTH",
"369.333 278 OFFCURVE",
"387 306.333 OFFCURVE",
"387 337 CURVE SMOOTH",
"387 389 OFFCURVE",
"334.333 430 OFFCURVE",
"265 430 CURVE SMOOTH",
"183.667 430 OFFCURVE",
"105.333 371 OFFCURVE",
"60 283 CURVE SMOOTH",
"37.333 239 OFFCURVE",
"26 193 OFFCURVE",
"26 145 CURVE SMOOTH",
"26 53 OFFCURVE",
"81.667 -9 OFFCURVE",
"171 -9 CURVE SMOOTH"
);
}
);
userData = {
assembly = "PUSHB[ ]	/* 7 values pushed */
25 24 2 2 0 1 74 
MPPEM[ ]	/* MeasurePixelPerEm */
PUSHB[ ]	/* 1 value pushed */
10 
LT[ ]	/* LessThan */
IF[ ]	/* If */
NPUSHB[ ]	/* 29 values pushed */
0 0 1 2 1 0 112 0 1 1 4 95 5 1 4 4 20 75 0 2 2 3 95 0 3 3 26 3 76 
ELSE[ ]	/* Else */
NPUSHB[ ]	/* 30 values pushed */
0 0 1 2 1 0 2 126 0 1 1 4 95 5 1 4 4 20 75 0 2 2 3 95 0 3 3 26 3 76 
EIF[ ]	/* EndIf */
NPUSHB[ ]	/* 13 values pushed */
0 0 0 35 0 34 37 37 39 36 6 7 24 
CALL[ ]	/* CallFunction */";
};
width = 406;
},
{
anchors = (
{
name = bottom;
position = "{197, 0}";
},
{
name = top;
position = "{258, 425}";
}
);
background = {
paths = (
{
closed = 1;
nodes = (
"211 435 OFFCURVE",
"91 361 OFFCURVE",
"18 234 OFFCURVE",
"18 158 QCURVE SMOOTH",
"18 79 OFFCURVE",
"101 -9 OFFCURVE",
"176 -9 QCURVE SMOOTH",
"231 -9 OFFCURVE",
"338 47 OFFCURVE",
"373 92 QCURVE",
"351 112 LINE",
"323 89 OFFCURVE",
"257 62 OFFCURVE",
"229 62 QCURVE SMOOTH",
"193 62 OFFCURVE",
"152 116 OFFCURVE",
"152 169 QCURVE SMOOTH",
"152 248 OFFCURVE",
"181 316 QCURVE SMOOTH",
"216 400 OFFCURVE",
"268 400 QCURVE SMOOTH",
"286 400 OFFCURVE",
"309 380 OFFCURVE",
"309 362 QCURVE SMOOTH",
"309 351 OFFCURVE",
"301 335 QCURVE",
"293 317 OFFCURVE",
"293 306 QCURVE SMOOTH",
"293 285 OFFCURVE",
"322 268 OFFCURVE",
"342 268 QCURVE SMOOTH",
"376 268 OFFCURVE",
"415 310 OFFCURVE",
"415 339 QCURVE SMOOTH",
"415 381 OFFCURVE",
"337 435 OFFCURVE",
"278 435 QCURVE SMOOTH"
);
}
);
};
layerId = "EC024578-EFD3-4C50-A1DE-0E38CDD8AD0F";
paths = (
{
closed = 1;
nodes = (
"249.333 -9 OFFCURVE",
"326.333 32 OFFCURVE",
"373 92 CURVE",
"351 112 LINE",
"313.667 81.333 OFFCURVE",
"266.333 62 OFFCURVE",
"229 62 CURVE SMOOTH",
"181 62 OFFCURVE",
"152 98.333 OFFCURVE",
"152 169 CURVE SMOOTH",
"152 221.667 OFFCURVE",
"161.667 270.667 OFFCURVE",
"181 316 CURVE SMOOTH",
"204.333 372 OFFCURVE",
"233.333 400 OFFCURVE",
"268 400 CURVE SMOOTH",
"292 400 OFFCURVE",
"309 386 OFFCURVE",
"309 362 CURVE SMOOTH",
"309 354.667 OFFCURVE",
"306.333 345.667 OFFCURVE",
"301 335 CURVE SMOOTH",
"295.667 323 OFFCURVE",
"293 313.333 OFFCURVE",
"293 306 CURVE SMOOTH",
"293 280.667 OFFCURVE",
"309.333 268 OFFCURVE",
"342 268 CURVE SMOOTH",
"387.333 268 OFFCURVE",
"415 300.333 OFFCURVE",
"415 339 CURVE SMOOTH",
"415 395 OFFCURVE",
"356.667 435 OFFCURVE",
"278 435 CURVE SMOOTH",
"188.667 435 OFFCURVE",
"103.167 382.167 OFFCURVE",
"54.5 297.5 CURVE SMOOTH",
"30.167 255.167 OFFCURVE",
"18 208.667 OFFCURVE",
"18 158 CURVE SMOOTH",
"18 52.667 OFFCURVE",
"76 -9 OFFCURVE",
"176 -9 CURVE SMOOTH"
);
}
);
userData = {
assembly = "PUSHB[ ]	/* 7 values pushed */
26 25 2 2 0 1 74 
MPPEM[ ]	/* MeasurePixelPerEm */
PUSHB[ ]	/* 1 value pushed */
10 
LT[ ]	/* LessThan */
IF[ ]	/* If */
NPUSHB[ ]	/* 29 values pushed */
0 0 1 2 1 0 112 0 1 1 4 95 5 1 4 4 20 75 0 2 2 3 95 0 3 3 26 3 76 
ELSE[ ]	/* Else */
NPUSHB[ ]	/* 30 values pushed */
0 0 1 2 1 0 2 126 0 1 1 4 95 5 1 4 4 20 75 0 2 2 3 95 0 3 3 26 3 76 
EIF[ ]	/* EndIf */
NPUSHB[ ]	/* 13 values pushed */
0 0 0 36 0 35 37 37 40 36 6 7 24 
CALL[ ]	/* CallFunction */";
};
width = 416;
},
{
anchors = (
{
name = bottom;
position = "{183, 0}";
},
{
name = top;
position = "{244, 418}";
}
);
layerId = "6E1F4822-938D-406D-B3C9-5D869F42D31A";
paths = (
{
closed = 1;
nodes = (
"218.333 -9 OFFCURVE",
"279.333 28 OFFCURVE",
"334 80 CURVE",
"312 95 LINE",
"249.333 60.333 OFFCURVE",
"210.667 37 OFFCURVE",
"176 37 CURVE SMOOTH",
"128 37 OFFCURVE",
"99 85 OFFCURVE",
"99 153 CURVE SMOOTH",
"99 205.667 OFFCURVE",
"111 255.667 OFFCURVE",
"135 303 CURVE SMOOTH",
"169 367.667 OFFCURVE",
"211 400 OFFCURVE",
"261 400 CURVE SMOOTH",
"294.333 400 OFFCURVE",
"319 384 OFFCURVE",
"319 356 CURVE SMOOTH",
"319 346.667 OFFCURVE",
"316.333 336.667 OFFCURVE",
"311 326 CURVE SMOOTH",
"305.667 316 OFFCURVE",
"303 308.333 OFFCURVE",
"303 303 CURVE SMOOTH",
"303 289 OFFCURVE",
"311.333 282 OFFCURVE",
"328 282 CURVE SMOOTH",
"361.333 282 OFFCURVE",
"375 309.333 OFFCURVE",
"375 336 CURVE SMOOTH",
"375 386.667 OFFCURVE",
"324.333 428 OFFCURVE",
"259 428 CURVE SMOOTH",
"181.667 428 OFFCURVE",
"106.222 366.111 OFFCURVE",
"62.666 276.333 CURVE SMOOTH",
"40.889 231.445 OFFCURVE",
"30 185.667 OFFCURVE",
"30 139 CURVE SMOOTH",
"30 53.667 OFFCURVE",
"83.667 -9 OFFCURVE",
"169 -9 CURVE SMOOTH"
);
}
);
userData = {
assembly = "PUSHB[ ]	/* 7 values pushed */
25 24 2 2 0 1 74 
MPPEM[ ]	/* MeasurePixelPerEm */
PUSHB[ ]	/* 1 value pushed */
10 
LT[ ]	/* LessThan */
IF[ ]	/* If */
NPUSHB[ ]	/* 29 values pushed */
0 0 1 2 1 0 112 0 1 1 4 95 5 1 4 4 20 75 0 2 2 3 95 0 3 3 26 3 76 
ELSE[ ]	/* Else */
NPUSHB[ ]	/* 30 values pushed */
0 0 1 2 1 0 2 126 0 1 1 4 95 5 1 4 4 20 75 0 2 2 3 95 0 3 3 26 3 76 
EIF[ ]	/* EndIf */
NPUSHB[ ]	/* 13 values pushed */
0 0 0 35 0 34 37 37 39 36 6 7 24 
CALL[ ]	/* CallFunction */";
};
width = 402;
}
);
leftKerningGroup = c;
note = c;
unicode = 0063;
},
{
glyphname = d;
layers = (
{
anchors = (
{
name = center;
position = "{389, 568}";
},
{
name = topright;
position = "{414, 545}";
}
);
layerId = "9A6463FA-02C3-4660-BEDA-F7CC218AE705";
paths = (
{
closed = 1;
nodes = (
"188.333 -10 OFFCURVE",
"257.333 51.333 OFFCURVE",
"316 186 CURVE",
"306 128.667 OFFCURVE",
"301 79.667 OFFCURVE",
"301 39 CURVE SMOOTH",
"301 8.333 OFFCURVE",
"308.333 -10 OFFCURVE",
"331 -10 CURVE SMOOTH",
"361.667 -10 OFFCURVE",
"407.667 12 OFFCURVE",
"453 60 CURVE",
"441 80 LINE",
"427.667 71.333 OFFCURVE",
"415.333 67 OFFCURVE",
"404 67 CURVE SMOOTH",
"392.667 67 OFFCURVE",
"387 76 OFFCURVE",
"387 94 CURVE SMOOTH",
"387 184.667 OFFCURVE",
"417 381 OFFCURVE",
"457 617 CURVE SMOOTH",
"463 651 LINE SMOOTH",
"467.667 679 OFFCURVE",
"470 698 OFFCURVE",
"470 708 CURVE SMOOTH",
"470 725.333 OFFCURVE",
"458.667 730 OFFCURVE",
"432 730 CURVE SMOOTH",
"390.667 730 OFFCURVE",
"351 719.333 OFFCURVE",
"313 698 CURVE",
"319 673 LINE",
"325 674.333 OFFCURVE",
"333 675 OFFCURVE",
"343 675 CURVE SMOOTH",
"366.333 675 OFFCURVE",
"378 667 OFFCURVE",
"378 651 CURVE SMOOTH",
"378 636.333 OFFCURVE",
"358 456.333 OFFCURVE",
"346 391 CURVE",
"327.333 413.667 OFFCURVE",
"294.333 430 OFFCURVE",
"253 430 CURVE SMOOTH",
"170.333 430 OFFCURVE",
"95.333 360.167 OFFCURVE",
"54 263.5 CURVE SMOOTH",
"33.333 215.167 OFFCURVE",
"23 167.333 OFFCURVE",
"23 120 CURVE SMOOTH",
"23 41.333 OFFCURVE",
"61.667 -10 OFFCURVE",
"123 -10 CURVE SMOOTH"
);
},
{
closed = 1;
nodes = (
"132.333 45 OFFCURVE",
"111 82.667 OFFCURVE",
"111 144 CURVE SMOOTH",
"111 176.667 OFFCURVE",
"115.333 210.333 OFFCURVE",
"124 245 CURVE SMOOTH",
"145.333 333 OFFCURVE",
"191.667 400 OFFCURVE",
"257 400 CURVE SMOOTH",
"294.333 400 OFFCURVE",
"334 382 OFFCURVE",
"334 326 CURVE SMOOTH",
"334 229.653 OFFCURVE",
"217.607 45 OFFCURVE",
"159 45 CURVE SMOOTH"
);
}
);
userData = {
assembly = "NPUSHB[ ]	/* 77 values pushed */
39 1 4 5 38 1 3 4 31 18 9 3 0 6 10 1 7 0 4 74 0 0 6 7 6 0 7 126 0 4 4 5 95 0 5 5 19 75 0 6 6 3 95 0 3 3 20 75 8 1 7 7 1 95 2 1 1 1 26 1 76 45 45 45 59 45 58 40 35 38 37 38 36 38 9 7 27 
CALL[ ]	/* CallFunction */";
};
width = 476;
},
{
anchors = (
{
name = center;
position = "{404, 568}";
},
{
name = topright;
position = "{454, 535}";
}
);
layerId = "EC024578-EFD3-4C50-A1DE-0E38CDD8AD0F";
paths = (
{
closed = 1;
nodes = (
"182 -10 OFFCURVE",
"256 47 OFFCURVE",
"304 175 CURVE",
"295.333 121.667 OFFCURVE",
"291 75.667 OFFCURVE",
"291 37 CURVE SMOOTH",
"291 7.667 OFFCURVE",
"308.333 -10 OFFCURVE",
"339 -10 CURVE SMOOTH",
"377.667 -10 OFFCURVE",
"434.333 15 OFFCURVE",
"485 59 CURVE",
"473 86 LINE",
"461.667 78.667 OFFCURVE",
"451 75 OFFCURVE",
"441 75 CURVE SMOOTH",
"428.333 75 OFFCURVE",
"422 84 OFFCURVE",
"422 102 CURVE SMOOTH",
"424.667 178 OFFCURVE",
"450 341.667 OFFCURVE",
"486 567 CURVE SMOOTH",
"492 601 LINE SMOOTH",
"502.667 660.333 OFFCURVE",
"508 693.667 OFFCURVE",
"508 701 CURVE SMOOTH",
"508 723.667 OFFCURVE",
"494.667 730 OFFCURVE",
"464 730 CURVE SMOOTH",
"414.667 730 OFFCURVE",
"362.333 719.333 OFFCURVE",
"307 698 CURVE",
"312 666 LINE",
"318 667.333 OFFCURVE",
"326 668 OFFCURVE",
"336 668 CURVE SMOOTH",
"358.667 668 OFFCURVE",
"370 660 OFFCURVE",
"370 644 CURVE SMOOTH",
"370 614.667 OFFCURVE",
"356 501 OFFCURVE",
"340 393 CURVE",
"328 419.667 OFFCURVE",
"297 435 OFFCURVE",
"261 435 CURVE SMOOTH",
"170.333 435 OFFCURVE",
"90 367.833 OFFCURVE",
"46 268.5 CURVE SMOOTH",
"24 218.833 OFFCURVE",
"13 167.333 OFFCURVE",
"13 114 CURVE SMOOTH",
"13 39.333 OFFCURVE",
"56.667 -10 OFFCURVE",
"114 -10 CURVE SMOOTH"
);
},
{
closed = 1;
nodes = (
"159.667 68 OFFCURVE",
"146 92 OFFCURVE",
"146 136 CURVE SMOOTH",
"146 168.667 OFFCURVE",
"151.333 204.667 OFFCURVE",
"162 244 CURVE SMOOTH",
"187.333 337.333 OFFCURVE",
"229 398 OFFCURVE",
"277 398 CURVE SMOOTH",
"305 398 OFFCURVE",
"327 380 OFFCURVE",
"327 348 CURVE SMOOTH",
"327 254.774 OFFCURVE",
"229.656 68 OFFCURVE",
"181 68 CURVE SMOOTH"
);
}
);
userData = {
assembly = "MPPEM[ ]	/* MeasurePixelPerEm */
PUSHB[ ]	/* 1 value pushed */
34 
LT[ ]	/* LessThan */
IF[ ]	/* If */
NPUSHB[ ]	/* 20 values pushed */
40 1 4 5 39 1 3 4 32 19 10 3 0 6 11 1 1 0 4 74 
ELSE[ ]	/* Else */
NPUSHB[ ]	/* 20 values pushed */
40 1 4 5 39 1 3 4 32 19 10 3 0 6 11 1 1 7 4 74 
EIF[ ]	/* EndIf */
MPPEM[ ]	/* MeasurePixelPerEm */
PUSHB[ ]	/* 1 value pushed */
34 
LT[ ]	/* LessThan */
IF[ ]	/* If */
NPUSHB[ ]	/* 40 values pushed */
0 4 5 3 5 4 3 126 8 7 2 0 6 1 6 0 1 126 0 5 5 19 75 0 6 6 3 95 0 3 3 20 75 2 1 1 1 26 1 76 
ELSE[ ]	/* Else */
NPUSHB[ ]	/* 46 values pushed */
0 4 5 3 5 4 3 126 0 0 6 7 6 0 7 126 8 1 7 1 6 7 1 124 0 5 5 19 75 0 6 6 3 95 0 3 3 20 75 2 1 1 1 26 1 76 
EIF[ ]	/* EndIf */
NPUSHB[ ]	/* 16 values pushed */
46 46 46 60 46 59 40 35 38 37 38 36 39 9 7 27 
CALL[ ]	/* CallFunction */";
};
width = 511;
},
{
anchors = (
{
name = center;
position = "{382, 568}";
},
{
name = topright;
position = "{396, 549}";
}
);
layerId = "6E1F4822-938D-406D-B3C9-5D869F42D31A";
paths = (
{
closed = 1;
nodes = (
"191 -10 OFFCURVE",
"257 52.333 OFFCURVE",
"321 191 CURVE",
"310.333 131.667 OFFCURVE",
"305 81.333 OFFCURVE",
"305 40 CURVE SMOOTH",
"305 8 OFFCURVE",
"308.333 -10 OFFCURVE",
"327 -10 CURVE SMOOTH",
"355 -10 OFFCURVE",
"396.333 10.667 OFFCURVE",
"439 60 CURVE",
"427 77 LINE",
"412.333 67.667 OFFCURVE",
"399.333 63 OFFCURVE",
"388 63 CURVE SMOOTH",
"376.667 63 OFFCURVE",
"371 72 OFFCURVE",
"371 90 CURVE SMOOTH",
"371 187.333 OFFCURVE",
"402.667 399 OFFCURVE",
"444 639 CURVE SMOOTH",
"450 673 LINE SMOOTH",
"452 687 OFFCURVE",
"453 699.667 OFFCURVE",
"453 711 CURVE SMOOTH",
"453 725.667 OFFCURVE",
"442 730 OFFCURVE",
"418 730 CURVE SMOOTH",
"380 730 OFFCURVE",
"346 719.333 OFFCURVE",
"316 698 CURVE",
"322 676 LINE",
"328 677.333 OFFCURVE",
"336 678 OFFCURVE",
"346 678 CURVE SMOOTH",
"370 678 OFFCURVE",
"382 670 OFFCURVE",
"382 654 CURVE SMOOTH",
"382 646 OFFCURVE",
"359.667 438 OFFCURVE",
"349 390 CURVE",
"326.333 411.333 OFFCURVE",
"293 428 OFFCURVE",
"249 428 CURVE SMOOTH",
"170.333 428 OFFCURVE",
"97.778 356.704 OFFCURVE",
"57.334 261.445 CURVE SMOOTH",
"37.111 213.815 OFFCURVE",
"27 167.667 OFFCURVE",
"27 123 CURVE SMOOTH",
"27 41.667 OFFCURVE",
"64.333 -10 OFFCURVE",
"127 -10 CURVE SMOOTH"
);
},
{
closed = 1;
nodes = (
"119.667 35 OFFCURVE",
"95 78.667 OFFCURVE",
"95 148 CURVE SMOOTH",
"95 180.667 OFFCURVE",
"99 213 OFFCURVE",
"107 245 CURVE SMOOTH",
"127 331.667 OFFCURVE",
"174.667 401 OFFCURVE",
"248 401 CURVE SMOOTH",
"289.333 401 OFFCURVE",
"337 382.667 OFFCURVE",
"337 316 CURVE SMOOTH",
"337 218.593 OFFCURVE",
"212.005 35 OFFCURVE",
"149 35 CURVE SMOOTH"
);
}
);
userData = {
assembly = "NPUSHB[ ]	/* 77 values pushed */
39 1 4 5 38 1 3 4 31 18 9 3 0 6 10 1 7 0 4 74 0 0 6 7 6 0 7 126 0 4 4 5 95 0 5 5 19 75 0 6 6 3 95 0 3 3 20 75 8 1 7 7 1 95 2 1 1 1 26 1 76 45 45 45 59 45 58 40 35 38 37 38 36 38 9 7 27 
CALL[ ]	/* CallFunction */";
};
width = 460;
}
);
leftKerningGroup = d;
note = d;
unicode = 0064;
},
